<svg xmlns="http://www.w3.org/2000/svg" xmlns:xlink="http://www.w3.org/1999/xlink" xml:space="preserve" id="flag-icons-asean" viewBox="0 0 640 480">
  <path fill="#0039a6" d="M0 0h640v480H0z"/>
  <circle cx="320" cy="240" r="144" fill="#fff"/>
  <circle cx="320" cy="240" r="137.3" fill="#ed2939"/>
  <use xlink:href="#asean-a" transform="matrix(-1 0 0 1 640 0)"/>
  <g id="asean-a" fill="#f9e300">
    <path d="M357 240c24-14.4 35-43.2 35-72h-11v1c0 9.6-1.5 44.6-27.9 71a106 106 0 0 1 27.9 71v1h11c0-28.8-11.5-57.6-35-72"/>
    <path d="M377.6 169v-1h-11.5v1.4c0 9.6-2 43.2-20.7 70.6 19.2 27.4 20.7 61 20.7 70.6v1.4h11.5v-1c0-9.6-2.4-44.6-27.8-71a106 106 0 0 0 27.8-71"/>
    <path d="m341.1 240 1-1a130 130 0 0 0 20.1-69.6V168h-10.5v2c0 10-1.5 42.2-14.4 70a182 182 0 0 1 14.4 70v2h10.5v-1.4c0-9.6-1-39.9-20.1-69.6"/>
    <path d="M333.4 240a178 178 0 0 0 14.4-72h-11v3.4c0 12-1 41.2-7.2 68.6a336 336 0 0 1 7.2 68.6v3.4h10.6v-2c0-10-1-43.1-13.5-69.5"/>
    <path d="M325.8 240a331 331 0 0 0 6.7-68.6V168h-10.6v144h10.6v-3.4c0-11.5 0-41.2-6.7-68.1"/>
  </g>
</svg>
