<svg xmlns="http://www.w3.org/2000/svg" id="flag-icons-br" viewBox="0 0 640 480">
  <g stroke-width="1pt">
    <path fill="#229e45" fill-rule="evenodd" d="M0 0h640v480H0z"/>
    <path fill="#f8e509" fill-rule="evenodd" d="m321.4 436 301.5-195.7L319.6 44 17.1 240.7z"/>
    <path fill="#2b49a3" fill-rule="evenodd" d="M452.8 240c0 70.3-57.1 127.3-127.6 127.3A127.4 127.4 0 1 1 452.8 240"/>
    <path fill="#ffffef" fill-rule="evenodd" d="m283.3 316.3-4-2.3-4 2 .9-4.5-3.2-3.4 4.5-.5 2.2-4 1.9 4.2 4.4.8-3.3 3m86 26.3-3.9-2.3-4 2 .8-4.5-3.1-3.3 4.5-.5 2.1-4.1 2 4.2 4.4.8-3.4 3.1m-36.2-30-3.4-2-3.5 1.8.8-3.9-2.8-2.9 4-.4 1.8-3.6 1.6 3.7 3.9.7-3 2.7m87-8.5-3.4-2-3.5 1.8.8-3.9-2.7-2.8 3.9-.4 1.8-3.5 1.6 3.6 3.8.7-2.9 2.6m-87.3-22-4-2.2-4 2 .8-4.6-3.1-3.3 4.5-.5 2.1-4.1 2 4.2 4.4.8-3.4 3.2m-104.6-35-4-2.2-4 2 1-4.6-3.3-3.3 4.6-.5 2-4.1 2 4.2 4.4.8-3.3 3.1m13.3 57.2-4-2.3-4 2 .9-4.5-3.2-3.3 4.5-.6 2.1-4 2 4.2 4.4.8-3.3 3.1m132-67.3-3.6-2-3.6 1.8.8-4-2.8-3 4-.5 1.9-3.6 1.7 3.8 4 .7-3 2.7m-6.7 38.3-2.7-1.6-2.9 1.4.6-3.2-2.2-2.3 3.2-.4 1.5-2.8 1.3 3 3 .5-2.2 2.2m-142.2 50.4-2.7-1.5-2.7 1.3.6-3-2.1-2.2 3-.4 1.4-2.7 1.3 2.8 3 .6-2.3 2M419 299.8l-2.2-1.1-2.2 1 .5-2.3-1.7-1.6 2.4-.3 1.2-2 1 2 2.5.5-1.9 1.5"/>
    <path fill="#ffffef" fill-rule="evenodd" d="m219.3 287.6-2.7-1.5-2.7 1.3.6-3-2.1-2.2 3-.4 1.4-2.7 1.3 2.8 3 .6-2.3 2"/>
    <path fill="#ffffef" fill-rule="evenodd" d="m219.3 287.6-2.7-1.5-2.7 1.3.6-3-2.1-2.2 3-.4 1.4-2.7 1.3 2.8 3 .6-2.3 2m42.3 3-2.6-1.4-2.7 1.3.6-3-2.1-2.2 3-.4 1.4-2.7 1.3 2.8 3 .5-2.3 2.1m-4.8 17-2.6-1.5-2.7 1.4.6-3-2.1-2.3 3-.4 1.4-2.7 1.3 2.8 3 .6-2.3 2m87.4-22.2-2.6-1.6-2.8 1.4.6-3-2-2.3 3-.3 1.4-2.7 1.2 2.8 3 .5-2.2 2.1m-25.1 3-2.7-1.5-2.7 1.4.6-3-2-2.3 3-.3 1.4-2.8 1.2 2.9 3 .5-2.2 2.1m-68.8-5.8-1.7-1-1.7.8.4-1.9-1.3-1.4 1.9-.2.8-1.7.8 1.8 1.9.3-1.4 1.3m167.8 45.4-2.6-1.5-2.7 1.4.6-3-2.1-2.3 3-.4 1.4-2.7 1.3 2.8 3 .6-2.3 2m-20.8 6-2.2-1.4-2.3 1.2.5-2.6-1.7-1.8 2.5-.3 1.2-2.3 1 2.4 2.5.4-1.9 1.8m10.4 2.3-2-1.2-2.1 1 .4-2.3-1.6-1.7 2.3-.3 1.1-2 1 2 2.3.5-1.7 1.6m29.1-22.8-2-1-2 1 .5-2.3-1.6-1.7 2.3-.3 1-2 1 2.1 2.1.4-1.6 1.6m-38.8 41.8-2.5-1.4-2.7 1.2.6-2.8-2-2 3-.3 1.3-2.5 1.2 2.6 3 .5-2.3 1.9m.6 14.2-2.4-1.4-2.4 1.3.6-2.8-1.9-2 2.7-.4 1.2-2.5 1.1 2.6 2.7.5-2 2m-19-23.1-1.9-1.2-2 1 .4-2.2-1.5-1.7 2.2-.2 1-2 1 2 2.2.4-1.6 1.6m-17.8 2.3-2-1.2-2 1 .5-2.2-1.6-1.7 2.3-.2 1-2 1 2 2.1.4-1.6 1.6m-30.4-24.6-2-1.1-2 1 .5-2.3-1.6-1.6 2.2-.3 1-2 1 2 2.2.5-1.6 1.5m3.7 57-1.6-.9-1.8.9.4-2-1.3-1.4 1.9-.2.9-1.7.8 1.8 1.9.3-1.4 1.3m-46.2-86.6-4-2.3-4 2 .9-4.5-3.2-3.3 4.5-.6 2.2-4 1.9 4.2 4.4.8-3.3 3.1"/>
    <path fill="#fff" fill-rule="evenodd" d="M444.4 285.8a125 125 0 0 0 5.8-19.8c-67.8-59.5-143.3-90-238.7-83.7a125 125 0 0 0-8.5 20.9c113-10.8 196 39.2 241.4 82.6"/>
    <path fill="#309e3a" d="m414 252.4 2.3 1.3a3 3 0 0 0-.3 2.2 3 3 0 0 0 1.4 1.7q1 .8 2 .7.9 0 1.3-.7l.2-.9-.5-1-1.5-1.8a8 8 0 0 1-1.8-3 4 4 0 0 1 2-4.4 4 4 0 0 1 2.3-.2 7 7 0 0 1 2.6 1.2q2.1 1.5 2.6 3.2a4 4 0 0 1-.6 3.3l-2.4-1.5q.5-1 .2-1.7-.2-.8-1.2-1.4a3 3 0 0 0-1.8-.7 1 1 0 0 0-.9.5q-.3.4-.1 1 .2.8 1.6 2.2t2 2.5a4 4 0 0 1-.3 4.2 4 4 0 0 1-1.9 1.5 4 4 0 0 1-2.4.3q-1.3-.3-2.8-1.3-2.2-1.5-2.7-3.3a5 5 0 0 1 .6-4zm-11.6-7.6 2.5 1.3a3 3 0 0 0-.2 2.2 3 3 0 0 0 1.4 1.6q1.1.8 2 .6.9 0 1.3-.8l.2-.8q0-.5-.5-1l-1.6-1.8q-1.7-1.6-2-2.8a4 4 0 0 1 .4-3.1 4 4 0 0 1 1.6-1.4 4 4 0 0 1 2.2-.3 7 7 0 0 1 2.6 1q2.3 1.5 2.7 3.1a4 4 0 0 1-.4 3.4l-2.5-1.4q.5-1 .2-1.7-.4-1-1.3-1.4a3 3 0 0 0-1.9-.6 1 1 0 0 0-.8.5q-.3.4-.1 1 .3.8 1.7 2.2 1.5 1.5 2 2.4a4 4 0 0 1 0 4.2 4 4 0 0 1-1.8 1.6 4 4 0 0 1-2.4.3 8 8 0 0 1-2.9-1.1 6 6 0 0 1-2.8-3.2 5 5 0 0 1 .4-4m-14.2-3.8 7.3-12 8.8 5.5-1.2 2-6.4-4-1.6 2.7 6 3.7-1.3 2-6-3.7-2 3.3 6.7 4-1.2 2zm-20.7-17 1.1-2 5.4 2.7-2.5 5q-1.2.3-3 .2a9 9 0 0 1-3.3-1 8 8 0 0 1-3-2.6 6 6 0 0 1-1-3.5 9 9 0 0 1 1-3.7 8 8 0 0 1 2.6-3 6 6 0 0 1 3.6-1.1q1.4 0 3.2 1 2.4 1.1 3.1 2.8a5 5 0 0 1 .3 3.5l-2.7-.8a3 3 0 0 0-.2-2q-.4-.9-1.6-1.4a4 4 0 0 0-3.1-.3q-1.5.5-2.6 2.6t-.7 3.8a4 4 0 0 0 2 2.4q.8.5 1.7.5h1.8l.8-1.6zm-90.2-22.3 2-14 4.2.7 1.1 9.8 3.9-9 4.2.6-2 13.8-2.7-.4 1.7-10.9-4.4 10.5-2.7-.4-1.1-11.3-1.6 11zm-14.1-1.7 1.3-14 10.3 1-.2 2.4-7.5-.7-.3 3 7 .7-.3 2.4-7-.7-.3 3.8 7.8.7-.2 2.4z"/>
    <g stroke-opacity=".5">
      <path fill="#309e3a" d="M216.5 191.3q0-2.2.7-3.6a7 7 0 0 1 1.4-1.9 5 5 0 0 1 1.8-1.2q1.5-.5 3-.5 3.1.1 5 2a7 7 0 0 1 1.6 5.5q0 3.3-2 5.3a7 7 0 0 1-5 1.7 7 7 0 0 1-4.8-2 7 7 0 0 1-1.7-5.3"/>
      <path fill="#f7ffff" d="M219.4 191.3q0 2.3 1 3.6t2.8 1.3a4 4 0 0 0 2.8-1.1q1-1.2 1.1-3.7.1-2.4-1-3.6a4 4 0 0 0-2.7-1.3 4 4 0 0 0-2.8 1.2q-1.1 1.2-1.2 3.6"/>
    </g>
    <g stroke-opacity=".5">
      <path fill="#309e3a" d="m233 198.5.2-14h6q2.2 0 3.2.5 1 .3 1.6 1.3c.6 1 .6 1.4.6 2.3a4 4 0 0 1-1 2.6 5 5 0 0 1-2.7 1.2l1.5 1.2q.6.6 1.5 2.3l1.7 2.8h-3.4l-2-3.2-1.4-2-.9-.6-1.4-.2h-.6v5.8z"/>
      <path fill="#fff" d="M236 190.5h2q2.1 0 2.6-.2.5-.1.8-.5.4-.6.3-1 0-.9-.4-1.2-.3-.4-1-.6h-2l-2.3-.1z"/>
    </g>
    <g stroke-opacity=".5">
      <path fill="#309e3a" d="m249 185.2 5.2.3q1.7 0 2.6.3a5 5 0 0 1 2 1.4 6 6 0 0 1 1.2 2.4q.4 1.4.3 3.3a9 9 0 0 1-.5 3q-.6 1.5-1.7 2.4a5 5 0 0 1-2 1q-1 .3-2.5.2l-5.3-.3z"/>
      <path fill="#fff" d="m251.7 187.7-.5 9.3h3.8q.8 0 1.2-.5.5-.4.8-1.3t.4-2.6l-.1-2.5a3 3 0 0 0-.8-1.4l-1.2-.7-2.3-.3z"/>
    </g>
    <g stroke-opacity=".5">
      <path fill="#309e3a" d="m317.6 210.2 3.3-13.6 4.4 1 3.2 1q1.1.6 1.6 1.9t.2 2.8q-.3 1.2-1 2a4 4 0 0 1-3 1.4q-1 0-3-.5l-1.7-.5-1.2 5.2z"/>
      <path fill="#fff" d="m323 199.6-.8 3.8 1.5.4q1.6.4 2.2.3a2 2 0 0 0 1.6-1.5q0-.7-.2-1.3a2 2 0 0 0-1-.9l-1.9-.5-1.3-.3z"/>
    </g>
    <g stroke-opacity=".5">
      <path fill="#309e3a" d="m330.6 214.1 4.7-13.2 5.5 2q2.2.8 3 1.4.8.7 1 1.8c.2 1.1.2 1.5 0 2.3q-.6 1.5-1.8 2.2-1.2.6-3 .3.6.7 1 1.6l.8 2.7.6 3.1-3.1-1.1-1-3.6-.7-2.4-.6-.8q-.3-.4-1.3-.7l-.5-.2-2 5.6z"/>
      <path fill="#fff" d="m336 207.4 1.9.7q2 .7 2.5.7t.9-.3q.5-.3.6-.9.3-.6 0-1.2l-.8-.9-2-.7-2-.7-1.2 3.3z"/>
    </g>
    <g stroke-opacity=".5">
      <path fill="#309e3a" d="M347 213.6a9 9 0 0 1 1.7-3.2l1.8-1.5 2-.7q1.5-.1 3.1.4a7 7 0 0 1 4.2 3.3q1.2 2.4.2 5.7a7 7 0 0 1-3.4 4.5q-2.3 1.3-5.2.4a7 7 0 0 1-4.2-3.3 7 7 0 0 1-.2-5.6"/>
      <path fill="#fff" d="M349.8 214.4q-.7 2.3 0 3.8c.7 1.5 1.2 1.6 2.3 2q1.5.5 3-.4 1.4-.8 2.1-3.2.8-2.2 0-3.7a4 4 0 0 0-2.2-2 4 4 0 0 0-3 .3q-1.5.8-2.2 3.2"/>
    </g>
    <g stroke-opacity=".5">
      <path fill="#309e3a" d="m374.3 233.1 6.4-12.4 5.3 2.7a10 10 0 0 1 2.7 1.9q.8.7.8 1.9c0 1.2 0 1.5-.4 2.2a4 4 0 0 1-2 2q-1.5.4-3.1-.2.6 1 .8 1.7.3.9.4 2.8l.2 3.2-3-1.5-.4-3.7-.3-2.5-.5-1-1.2-.7-.5-.3-2.7 5.2z"/>
      <path fill="#fff" d="m380.5 227.2 1.9 1q1.8 1 2.3 1t1-.2q.4-.2.7-.8t.2-1.2l-.7-1-1.8-1-2-1z"/>
    </g>
    <g stroke-opacity=".5">
      <path fill="#309e3a" d="M426.1 258.7a9 9 0 0 1 2.5-2.6 7 7 0 0 1 2.2-.9 6 6 0 0 1 2.2 0q1.5.3 2.8 1.2a7 7 0 0 1 3 4.4q.4 2.6-1.4 5.5a7 7 0 0 1-4.5 3.3 7 7 0 0 1-5.2-1.1 7 7 0 0 1-3-4.4q-.4-2.7 1.4-5.4"/>
      <path fill="#fff" d="M428.6 260.3q-1.4 2-1.1 3.6a4 4 0 0 0 1.6 2.5q1.5 1 3 .6t2.9-2.4q1.4-2.1 1.1-3.6t-1.6-2.6c-1.4-1.1-2-.8-3-.5q-1.5.3-3 2.4z"/>
    </g>
    <path fill="#309e3a" d="m301.8 204.5 2.3-9.8 7.2 1.7-.3 1.6-5.3-1.2-.5 2.2 4.9 1.1-.4 1.7-4.9-1.2-.6 2.7 5.5 1.3-.4 1.6z"/>
  </g>
</svg>
