<svg xmlns="http://www.w3.org/2000/svg" id="flag-icons-je" viewBox="0 0 640 480">
  <path fill="#fff" d="M0 0h640v480H0Z"/>
  <path d="m1.3-2.4 637.4 484.8m-637.4 0L638.7-2.4" color="#000" style="-inkscape-stroke:none" transform="matrix(.99998 0 0 .99028 0 2.3)"/>
  <path fill="#cf142b" d="M0-2.4v29.2L280.5 240 0 453.3v29h44L320 270l275.8 212.4H640V453L359.5 240 640 26.7v-29h-44L320 209.8 44-2.4Z" color="#000" style="-inkscape-stroke:none" transform="matrix(.99998 0 0 .99028 0 2.3)"/>
  <path fill="#cf142b" stroke="maroon" stroke-miterlimit="140.8" stroke-width=".5" d="M364.2 65c10.8 44 4.8 98.2-44.2 128.4-49-30.2-55-84.4-44.2-128.4 11.6-10.5 64.2-17 88.4 0z"/>
  <path fill="gold" stroke="#806600" stroke-miterlimit="135.2" stroke-width=".2" d="M295.1 91a7 7 0 0 1-2.4-.4 6 6 0 0 1-1.4-2l-2.7.2a7 7 0 0 1-2.1-1.2 4 4 0 0 0 2.2-.9l-2.5-.5q-1.2-.6-2.1-1.3 1.3-.1 2.1-.8l-2.4-.3-1.7-1.3q1.3 0 2.2-1l-2.3-.1-2.4-1.6a5 5 0 0 0 2.6-.8l-.6-1c-.6-1.2-1.8-.7-2.7-1.1a2 2 0 0 1-1.4-1.8c0-.9.4-2.3 2.4-2-1-1.6.1-2.7 1.2-3.2s2-.2 2.7 1.5l1.4-.8a2 2 0 0 1 1.8.6v1.2c-.3.6-1 1-1 1.8-.3.8.5 2.4.5 2.4s4 3.2 5.7 4.8l2.8 3h4.1l.3 6.6H295z"/>
  <path fill="#377bc8" stroke="#2c5aa0" stroke-miterlimit="135.2" stroke-width=".2" d="M284.2 69.2a2 2 0 0 1 .7 2.4q.3.5 1 .4a1 1 0 0 0 .7-1.3c-.4-.3-.5-1.1-2.4-1.6zm-4.5.5-1.1.1a2 2 0 0 1 1.6 2q.6.2 1-.1a1 1 0 0 0 .2-1.5c-.4 0-.8-.5-1.6-.5zm-1.3 4.2c-.5.1-1.2-.4-2.7.8a2 2 0 0 1 2.3 1q.5 0 .9-.4a1 1 0 0 0-.5-1.4z"/>
  <path fill="gold" stroke="#806600" stroke-miterlimit="135.2" stroke-width=".2" d="M317.6 94c-.6-.2-1.5-1-2.2-1a2 2 0 0 0-1.7 1 2 2 0 0 0 .4 1.5l1.3.8a4 4 0 0 0-1 1.6 2 2 0 0 0 .6 1.1q.4.8 1.2.8l1.5-.1.1 1.1a2 2 0 0 0 2.1 1.1 1 1 0 0 0 1.2-.6c.3-.4.3-1.4.7-1.9l1.9-1.6q1 .7.6 2l1.6-1.4.5-1.8a2 2 0 0 1 .8 2l1.6-1.2.8-2q1 1.1.5 2.3a6 6 0 0 0 1.7-1.6l.4-1.6q2.6 0 2.8-1.4c0-.5-.6-1.3-1.9-1.6l-.6-1.2v-1.1a5 5 0 0 1 1.5-2l2.8-1.5-.6-2.9-6.5-1-7.4 1.8c1.4.6 4.3 2.7 4.1 3.5 0 .3-.7.6-1 1q-.2.5.2 1c.2.4 1 .5 1.3.9q.3.6 0 1c-.5.7-2.2 1-3 1.3l-4 2.1a6 6 0 0 1-2.2-.4z"/>
  <path fill="gold" stroke="#806600" stroke-miterlimit="135.2" stroke-width=".2" d="M333.1 85.1s-.1 2.4-1.1 3a2 2 0 0 1-1.4.1 2 2 0 0 1-1-1l-.3-1.1-2.3-.7q-1.8 0-3.6.6a8 8 0 0 1 2.7-3.2l3.9-.3z"/>
  <path fill="gold" d="M343.6 69.4c1.1-.1 3.4-.6 4.2-1.3l1.4-1.4q-.2 3.3-3.8 4.7a14 14 0 0 1-6.2.8l-3.8-.8c1.4 1.4.7 2.4-1 3 0 0 .2-1.3-.2-1.5q-1.7-.4-3.5.8a7 7 0 0 1-3 .6 8 8 0 0 1-3.6-.5c-.8-.2-2.3-1.3-2.8-1.2-1.4.2-3 .4-3.7 1.4q-.3.5 0 1.2a4 4 0 0 0 2.6 1.5q4.2.9 8.4.3l9.6-1.9c3-.5 6.8-1.4 9-1.9a34 34 0 0 1 8.9-1c5.3.1 7 2.8 6.9 5.6-.2 2.8-3.3 4.1-6 5-4.8 1.4-11.4.6-15.6.4l2 1.6c.8.6 1.2 1.8 2 2 1.3.4 3.2-.4 4.5-.4 1.9-.2 5 0 5 0l1.3-.8h1.2q1 .3.8 2 .3.4 1 .6h1.7l1.6.8-1.5.5-.7.7q1 0 2 .3l1.2 1-1.3.2-.8.6s1.6-.1 2.2.3l1.1 1.2h-1.3l-.8.4 1.6 1.2q.5.7.6 1.6l-1.1-.6h-.8l.2 2.2c0 .6 1 1.2 1 1.6a1 1 0 0 1-.1 1.2 2 2 0 0 1-2.2.7l-1-.6-.9 1c-.5.4-.6.4-1.3.4a2 2 0 0 1-1.3-.5l-.7-1.6-1.6.3a2 2 0 0 1-1.5-.7 2 2 0 0 1 .3-1.8c.4-.4 1.6-.5 2.2-.8a5 5 0 0 0 1.6-1.3l-3.8-3-1.6-2.1s-3.4 1-4.7 1a26 26 0 0 1-6.4 0c-4.8 0-8-6.6-12.3-8.2a5 5 0 0 0-3.3 0c-5 1-10.4 6.8-15.3 8q-3.2.6-6.4.7l-1.3 1.7a7 7 0 0 1-2.6.5l-1 2.3a7 7 0 0 1-2 1.3 3 3 0 0 0 0-2.3l-1.5 2-2.2 1.1c.2-.6.5-1.3 0-2.1l-1.2 1.8q-1 .7-2 1a2 2 0 0 0 0-2.3l-1.2 1.9-2.6 1.3a4 4 0 0 0 .4-2.4h-1.2c-1.5 0-1.6 1.3-2.3 1.9a3 3 0 0 1-2.4.4c-.8-.4-1.7-1.4-.5-3-2 .2-3-1-3-2.2 0-1 .3-1.9 2.4-1.8l-.2-1.4a1.4 1.4 0 0 1 1.5-1.2q.6 0 1.2.6c.4.4.5 1.1 1.2 1.6.8.6 2.7.5 2.7.5a50 50 0 0 1 6.2-2.8c1.3-.4 5-1 5-1V81a87 87 0 0 1 13 1.1l5.2-.3s8.4-1.3 12.4-1.7q3-.3 6.1-.2c3 .2 5.6.9 8.6 1q3.2.5 6.4.3c3.5-.2 9.7 0 11.7-3a2 2 0 0 0-.6-2.6 3 3 0 0 0-3-.8q-1.4.2-1.7 1.2a1 1 0 0 0 .3 1.1q.3.6 1.1.9a4 4 0 0 1-2.2-.3 6 6 0 0 1-1.4-2.2 2 2 0 0 0-.5 1.5q0 1 .7 1.6a4 4 0 0 1-2.4-.8 7 7 0 0 1-.9-2.2 2 2 0 0 0-.8 1.6q.1.8.5 1.7a5 5 0 0 1-2.2-1.2 6 6 0 0 1-.7-2.2l-9 1.8-9.5 1.6a24 24 0 0 1-11.3-.8c-1.6-.8-2.4-1.3-2.8-2.7a3 3 0 0 1 1-2.7 10 10 0 0 1 5-2.6 76 76 0 0 1 8.8-1.6 34 34 0 0 1 9.5.4c1.4.2 3-.1 3.3-.6.4-.4 1-.8.2-1.8q1.2 0 1.8 1.2c.3.4 0 1.6 0 1.6z"/>
  <path fill="none" stroke="#806600" stroke-miterlimit="135.2" stroke-width=".2" d="M343.6 69.4c1.1-.1 3.4-.6 4.2-1.3l1.4-1.4q-.2 3.3-3.8 4.7a14 14 0 0 1-6.2.8l-3.8-.8c1.4 1.4.7 2.4-1 3 0 0 .2-1.3-.2-1.5q-1.7-.4-3.5.8a7 7 0 0 1-3 .6 8 8 0 0 1-3.6-.5c-.8-.2-2.3-1.3-2.8-1.2-1.4.2-3 .4-3.7 1.4q-.3.5 0 1.2a4 4 0 0 0 2.6 1.5q4.2.9 8.4.3l9.6-1.9c3-.5 6.8-1.4 9-1.9a34 34 0 0 1 8.9-1c5.3.1 7 2.8 6.9 5.6-.2 2.8-3.3 4.1-6 5-4.8 1.4-11.4.6-15.6.4l2 1.6c.8.6 1.2 1.8 2 2 1.3.4 3.2-.4 4.5-.4 1.9-.2 5 0 5 0l1.3-.8h1.2q1 .3.8 2 .3.4 1 .6h1.7l1.6.8-1.5.5-.7.7q1 0 2 .3l1.2 1-1.3.2-.8.6s1.6-.1 2.2.3l1.1 1.2h-1.3l-.8.4 1.6 1.2q.5.7.6 1.6l-1.1-.6h-.8l.2 2.2c0 .6 1 1.2 1 1.6a1 1 0 0 1-.1 1.2 2 2 0 0 1-2.2.7l-1-.6q-.3.6-.9 1a2 2 0 0 1-1.3.5 2 2 0 0 1-1.3-.6l-.7-1.6-1.6.3a2 2 0 0 1-1.5-.7 2 2 0 0 1 .3-1.8c.4-.4 1.6-.5 2.2-.8a5 5 0 0 0 1.6-1.3l-3.8-3-1.6-2.1s-3.4 1-4.7 1a26 26 0 0 1-6.4 0c-4.8 0-8-6.6-12.3-8.2a5 5 0 0 0-3.3 0c-5 1-10.4 6.8-15.3 8q-3.2.6-6.4.7l-1.3 1.7a7 7 0 0 1-2.6.5l-1 2.3a7 7 0 0 1-2 1.3 3 3 0 0 0 0-2.4l-1.5 2-2.2 1.2c.2-.6.5-1.3 0-2.1l-1.2 1.8q-1 .7-2 1a2 2 0 0 0 0-2.3l-1.2 1.9-2.6 1.3a4 4 0 0 0 .4-2.4h-1.2c-1.5 0-1.6 1.3-2.3 1.9a3 3 0 0 1-2.4.4c-.8-.4-1.7-1.4-.5-3-2 .2-3-1-3-2.2 0-1 .3-1.9 2.4-1.8l-.2-1.4a1.4 1.4 0 0 1 1.5-1.2q.6 0 1.2.6c.4.4.5 1.1 1.2 1.6.8.6 2.7.5 2.7.5a50 50 0 0 1 6.2-2.8c1.3-.4 5-1 5-1V81a87 87 0 0 1 13 1.1l5.2-.3s8.4-1.3 12.4-1.7q3-.3 6.1-.2c3 .2 5.6.9 8.6 1q3.2.5 6.4.3c3.5-.2 9.7 0 11.7-3a2 2 0 0 0-.6-2.6 3 3 0 0 0-3-.8q-1.4.2-1.7 1.2 0 .7.3 1 .4.6 1.1 1s-1.7 0-2.4-.4a5 5 0 0 1-1.2-2.1 2 2 0 0 0-.5 1.5q0 1 .7 1.6a4 4 0 0 1-2.4-.8 7 7 0 0 1-.9-2.2 2 2 0 0 0-.8 1.6q.1.8.5 1.7a5 5 0 0 1-2.2-1.2 6 6 0 0 1-.7-2.2l-9 1.8-9.5 1.6a22 22 0 0 1-11.3-1c-1.6-.6-2.4-1.1-2.8-2.5a3 3 0 0 1 1-2.8 10 10 0 0 1 5-2.5 76 76 0 0 1 8.8-1.6 34 34 0 0 1 9.4.4c1.4.2 3-.1 3.4-.6s1-.8.1-1.8a2 2 0 0 1 1.8 1.2c.3.4 0 1.6 0 1.6z"/>
  <path fill="gold" d="M307.6 82.3c1 .7 2-.1 2.2-.2L309 81l-.2-2c0-1.6.6-1.9.6-1.8l1.6-.7a2 2 0 0 0 .7-1.5l-.2-1.9c-1.6 0-2 .1-2.4.6l-.2-1.6-.6-1.2-.5-.6q-.1.7-.6 1.1l-.6-2.1-1.2-1-1.5.2-1.6 1.6.1-1.3-.8.2-1.1.7-1 1.2c0-.7-.4-1-1.7-1.9l-1.2 1.6a2 2 0 0 0-.2 1.6q.4.8 1 1.5c0-.1.4.5-.5 1.8l-1.3 1.5-1.3.5c.3.9.4 1.3 1.8 1.5-3 2.2-3.4 5.7-1 8.7l.9-1.5a4 4 0 0 0 1 2.6c.2.3.4 2 .8 2.4l1 1s.3-1.3.9-1.5l2-.6c.9-.3 2.1-1.9 2.1-1.9l-.2 2c4-1.4 5-4.2 4-7.9"/>
  <path fill="#504416" d="M299.8 77.4a8 8 0 0 1-.8 4l2.5 1 2.7.4c-.3-1.1.8-3.2 1.3-3.8h-1.9l-.8-.8-1.6.3z"/>
  <path fill="#fff" d="M300.2 78a3 3 0 0 0 0 2l.8-1.6zm3.8 1.2-.2 1.8a3 3 0 0 0 1-1.7zm-3.8 1.3a3 3 0 0 0-1 1.7h.9zm3.3.9-.7 1.6.6.4a3 3 0 0 0 .1-2m-3-8.6q-.7 0-1 .6 0 .8 1 1.2a1.4 1.4 0 0 0 1.7-.7q.1-.7-1.2-1zm5.4 1.6q-.6-.1-.8.4a1.4 1.4 0 0 0 1.1 1.4q1.3.3 1.6-.5 0-.9-1-1.2z"/>
  <path fill="#d1b948" d="m300.5 72.6-.5.1-.6.6.2.9q.4.4.9.6 1.4.3 1.8-.8l-.2-.8-1-.4zm0 .4h.5l.8.4q.4.2.3.5a1.2 1.2 0 0 1-1.5.7l-.8-.6v-.6l.3-.4zm5.4 1.2h-.2l-.7.5a1.4 1.4 0 0 0 1.2 1.6q.6.3 1 0 .5 0 .6-.6l-.1-.8-1-.5zm0 .3.8.1q.5.1.8.4.2.3.1.7l-.5.5h-.9a1.2 1.2 0 0 1-1-1.4q0-.2.5-.3z"/>
  <path fill="gold" d="M300.6 71.7a1 1 0 0 0-1 .2l-.2.7h.4l.7.1 1.3.6h1.5l-1.2-.7c-.5-.2-1-.8-1.6-1zm7 2q-.9-.1-1.6 0l-1.4-.1 1.2.8 1.5.2.6.2.4.3.3-.6a1 1 0 0 0-1-.8m-8.6 7.7c-1.3 3.5 4 5.2 4.8 1.4a11 11 0 0 1-4.8-1.4"/>
  <path fill="#806600" d="m299 81.1-.2.3a3 3 0 0 0 0 2.4 2.8 2.8 0 0 0 5.4-.8v-.4h-.3a11 11 0 0 1-4.8-1.3zm.1.4A14 14 0 0 0 304 83a3 3 0 0 1-1.1 1.7 4 4 0 0 1-2.2.2 4 4 0 0 1-1.6-1.4 3 3 0 0 1 0-1.9z"/>
  <path fill="#377bc8" stroke="#2c5aa0" stroke-miterlimit="135.2" stroke-width=".2" d="M301.3 78.4a15 15 0 0 0-.8 7.2c1.6-1.8 2.4-4.2 3-6.4q-.2-.3-.5-.4l-.4-.6-.7.4-.6-.1z"/>
  <path fill="gold" d="m305.4 68.2-1.5.3-1.6 1.6v-1.3l-.7.2-1.2.7-1 1.1c.4 0 1.6-1 2-.9s.2 1 .5 1.1c.5 0 1-.8 1.6-1.2a3 3 0 0 1 1.6-.8 2 2 0 0 1 1 1.6q.4 1.3.9 1.9c.3.1.6-.8 1-.8.5.2.7 1.7 1.1 2l-.2-1.6-.7-1.2-.5-.6q-.1.6-.6 1.1l-.5-2.1zm-6.5 5.7c-.6 1 0 2 1.2 2.1l-.4 1.1.6 1.3 1.2.4 1-.4.9 1 1 .2 1.3-.8.5-.9h.8l.8-.4.2-.9a2 2 0 0 1-2.6.4 2 2 0 0 1-.5 1.4 1 1 0 0 1-1 .2 2 2 0 0 1-1.2-1q-.7.5-1.2.5a1.4 1.4 0 0 1-1-1 2 2 0 0 1 .5-1.4c-2.4-.7-1.6-1.4-2.2-1.8zm-1.3.3-2 2.8-1.3.5c.3.9.4 1.3 1.8 1.5-3 2.2-3.4 5.7-1 8.7l.9-1.5a4 4 0 0 0 1 2.6c.2.3.4 2 .8 2.4l1 1s.3-1.3.9-1.5l2-.6c.9-.3 2.1-1.9 2.1-1.9l-.1 2c4-1.4 5-4.2 3.9-7.9 1 .7 2-.1 2.2-.2l-.8-1.2-.2-2-.2-1.1-.5 1.7v1.8a5 5 0 0 1-1.9-1l.8 4q0 1.3-.4 2.7a7 7 0 0 1-1.7 1.7l.3-2.4c0-.8-.4-3-.4-3l-.8 3-1.3 2c.3-2.1.2-2.2-.1-3 0 0-.5 2.6-1.5 3.7l-1.6.8-.8.6-.6-1.8-1.2-2.4c-.3-1.2 1.3-3.6 1.3-3.6q-.9.2-1.9 1.4l-1.3 1.8-.5-2.4a5 5 0 0 1 .7-2.2 22 22 0 0 1 3.4-3.3 5 5 0 0 1-3 0s1.3-1.3 1.4-1.6a4 4 0 0 0 .6-2zm5.2 1.2h-1.3v.6l.6.2.8 1 1.7-.5.3-.4-1.6-.9z"/>
  <path fill="none" stroke="#806600" stroke-miterlimit="135.2" stroke-width=".2" d="M307.6 82.3c1 .7 2-.1 2.2-.2L309 81l-.2-2c0-1.6.6-1.9.6-1.8l1.6-.7a2 2 0 0 0 .7-1.5l-.2-1.9c-1.6 0-2 .1-2.4.6l-.2-1.6-.6-1.2-.5-.6q-.1.7-.6 1.1a4 4 0 0 0-1.8-3.2q-1.9.1-3.2 1.8l.2-1.2-.8.2-1.1.7-1 1.2c0-.7-.4-1-1.7-1.9l-1.2 1.6a2 2 0 0 0-.2 1.6q.4.8 1 1.5c0-.1.4.5-.5 1.8l-1.3 1.5-1.3.5c.3.9.4 1.3 1.8 1.5-3 2.2-3.4 5.7-1 8.7l.9-1.5a4 4 0 0 0 1 2.6c.2.3.4 2 .8 2.4l1 1s.3-1.3.9-1.5l2-.6c.9-.3 2.1-1.9 2.1-1.9l-.2 2c4-1.4 5-4.2 4-7.9z"/>
  <path fill="#806600" d="M297.8 70.2a3 3 0 0 0-.6 1.6l1 1.7.4-2.4c0-.4-.8-1-.8-1Zm2.1 2.1-.3.1-.6.6.8-.4h.3q.6.5 1.2.7h1.9l-.2.8s-.7.2-1 .5l-.3.4-.3.3v.8h.2q.7.2.8 1l.2.2h.7q.5-.5 1.3-.3h.1l.1-.1q.3-.2.2-.6V76l-.1-.6-.4-1 .1-.9a5 5 0 0 0 1.6 1.2l1.4.1.3.2.5.6q0-.5-.2-.8-.2-.2-.5-.2l-1.3-.2a4 4 0 0 1-1.5-1l-.3-.2-.1.2-.3 1.2.4 1.2.1.7v.1a2 2 0 0 0-1.7.5h-.1a3 3 0 0 0-1.2-1.3v-.3l.1-.2.4-.3 1-.8q.3-.5.3-1v-.4h-.3a4 4 0 0 1-1.8.2l-1.2-.6h-.3zm-1 1.4a2 2 0 0 0-.3 1.7q.5.6 1.2.8l-.1.2-.2.8q.2.8.8 1.4a2 2 0 0 0 1.3.4l.8-.4.6.8a2 2 0 0 0 1.3.3 2 2 0 0 0 1.8-1.5v-.1a2 2 0 0 0 1.4-.2q.6-.7.7-1.6c-.4.3 0 .8-1 1.4a1 1 0 0 1-1.1 0l-.4-.3v1l-.3.5q-.5.5-1.2.5l-.8-.2-.6-.8v-.5l-.3.3-.5.3-.5.1-.9-.3a2 2 0 0 1-.8-1.2l.2-.5.2-.4.2-.4h-.4a1 1 0 0 1-1-.6c-.6-.6 0-1-.1-1.5m12 .2s-1 0-1.3.4l-.8 2.3 1.6-1a3 3 0 0 0 .5-1.7"/>
  <path fill="#2b2200" d="M301 73.1a.6.6 0 0 0-.2 1.1.6.6 0 1 0 .2-1zm5.4 1.6a.6.6 0 0 0-.2 1 .6.6 0 1 0 .2-1"/>
  <path fill="#377bc8" stroke="#2c5aa0" stroke-miterlimit="135.2" stroke-width=".2" d="M280.2 91.5c-.5.3-1.2-.2-2.7 1a2 2 0 0 1 2.4 1q.5 0 .8-.6a1 1 0 0 0-.5-1.4zm33.9 1.6c-.5.3-1.2-.2-2.7 1a2 2 0 0 1 2.4 1 1 1 0 0 0 .8-.5 1 1 0 0 0-.5-1.5zm-36.4 2c-.4.3-1.2.2-2.1 1.9a2 2 0 0 1 2.6 0q.5-.3.5-1a1 1 0 0 0-1-1zm37 2.6c-.4.4-1.2.3-1.9 2a2 2 0 0 1 2.5-.2q.6-.2.5-.8a1 1 0 0 0-1.2-1zM280.1 99l-.6.2c-.2.5-.9.8-.8 2.7a2 2 0 0 1 2.2-1.3q.4-.5 0-1a1 1 0 0 0-.8-.6zm73.8.3h-.5c-.1.5-1 .8-1.1 2.7a2 2 0 0 1 2.4-1l.2-1.1a1 1 0 0 0-1-.6zm-35.2 1.2-.6.3c0 .5-.8.8-.5 2.7a2 2 0 0 1 2-1.4q.3-.7 0-1a1 1 0 0 0-.8-.6zm43.8.2a1 1 0 0 0-1 .6c.2.5-.3 1.2.8 2.7a2 2 0 0 1 1.1-2.3 1 1 0 0 0-.5-1zm-4.8.6q-.3 0-.7.4c0 .4-.6 1 .1 2.8a2.4 2.4 0 0 1 1.7-2 1 1 0 0 0-.3-1z"/>
  <path fill="gold" stroke="#806600" stroke-miterlimit="128.6" stroke-width=".2" d="M295.2 127a6 6 0 0 1-2.2-.3 6 6 0 0 1-1.5-1.8H289l-2-1a4 4 0 0 0 2.1-1l-2.4-.3-2-1.3c.7-.2 1.5-.2 2-.8l-2.1-.3-1.8-1.2a3 3 0 0 0 2.2-1l-2.3-.2-2.2-1.5a4 4 0 0 0 2.4-.6l-.5-1c-.6-1.2-1.8-.8-2.6-1.1a2 2 0 0 1-1.3-1.6c-.1-.9.3-2.2 2.3-2-1-1.4 0-2.5 1-3q1.6-.8 2.6 1.4l1.4-.8a1.4 1.4 0 0 1 1.6.6q.3.6 0 1.2-.5.6-1 1.6c-.2.8.6 2.4.6 2.4s3.8 3 5.5 4.6l2.6 2.7h3.8l.3 6.3z"/>
  <path fill="#377bc8" stroke="#2c5aa0" stroke-miterlimit="128.6" stroke-width=".2" d="M284.8 106.3a2 2 0 0 1 .6 2.3q.4.5 1 .4a1 1 0 0 0 .6-1.2c-.4-.4-.4-1-2.2-1.5zm-4.2.5h-1.2a2 2 0 0 1 1.6 2 1 1 0 0 0 1 0 1 1 0 0 0 0-1.5c-.2 0-.6-.5-1.4-.5zm-1.3 4c-.5 0-1.1-.3-2.6.8a2 2 0 0 1 2.2 1q.7 0 .9-.5a1 1 0 0 0-.5-1.3z"/>
  <path fill="gold" stroke="#806600" stroke-miterlimit="128.6" stroke-width=".2" d="M316.6 130c-.6-.2-1.4-1.1-2.1-1.1a2 2 0 0 0-1.6 1 2 2 0 0 0 .4 1.4l1.2.9-.8 1.4a1 1 0 0 0 .5 1.1c.4.5.4.7 1.2.8l1.2-.1q0 .6.3 1a2 2 0 0 0 1.9 1q.8 0 1.2-.5c.2-.4.2-1.4.6-1.8l1.8-1.6c.8.5.7 1.1.6 1.9l1.5-1.2.5-1.9a2 2 0 0 1 .8 2l1.6-1.2.7-1.7a2 2 0 0 1 .4 2 6 6 0 0 0 1.6-1.6l.5-1.4q2.4-.1 2.6-1.3c0-.5-.6-1.3-1.8-1.5l-.7-1.2v-1.1a5 5 0 0 1 1.5-1.8l2.7-1.6-.6-2.6-6.2-1-7 1.7c1.3.6 4.1 2.6 4 3.4-.2.2-.9.5-1.1.8q-.2.7.2 1c.3.5 1 .6 1.2.9a1 1 0 0 1 0 1c-.4.7-2 .9-2.8 1.2l-3.8 2a5 5 0 0 1-2.2-.4z"/>
  <path fill="gold" stroke="#806600" stroke-miterlimit="128.6" stroke-width=".2" d="M331.4 121.4s-.1 2.3-1 2.8a2 2 0 0 1-1.5.3 2 2 0 0 1-.8-1.1l-.3-1-2.3-.7a13 13 0 0 0-3.3.6 8 8 0 0 1 2.4-3l3.8-.3z"/>
  <path fill="gold" d="M341.4 106.5c1-.1 3.2-.6 4-1.2l1.2-1.3q0 3-3.6 4.4a13 13 0 0 1-5.9.7l-3.5-.8c1.3 1.5.6 2.4-1 3 0 0 .3-1.3-.2-1.5-1-.4-2.2.2-3.4.8a7 7 0 0 1-2.8.6 9 9 0 0 1-3.4-.5c-.8-.2-2.2-1.3-2.7-1.2-1.3.3-2.8.4-3.5 1.4a1 1 0 0 0 0 1.2 4 4 0 0 0 2.5 1.3q4 .9 8 .3c2.8-.4 6.2-1.2 9-1.7l8.8-2a33 33 0 0 1 8.4-.7c5 0 6.6 2.5 6.5 5.1-.2 2.8-3.2 4-5.8 4.8-4.6 1.4-10.8.6-14.7.5l1.9 1.4c.7.6 1 1.7 2 2 1.1.3 3-.4 4.2-.5l4.8.1q.4-.5 1.2-.8h1q1 .3.8 1.9l.9.5c.6.2 1.3 0 1.7.2l1.5.6-1.5.6-.6.6 2 .3q.5.3 1 1H359l-.8.7s1.6-.1 2.2.3l1 1-1.2.2-.8.3 1.6 1.1.5 1.6-1-.6h-.8l.2 2.1c0 .5.8 1.1 1 1.5q.3.8-.2 1.2a2 2 0 0 1-2 .6l-1-.6-.8 1q-.5.5-1.3.3a2 2 0 0 1-1.3-.4l-.6-1.5-1.5.3a2 2 0 0 1-1.4-.7 2 2 0 0 1 .2-1.7c.4-.5 1.6-.5 2.2-.8l1.4-1.2-3.5-2.9-1.6-2-4.5 1a25 25 0 0 1-6 0c-4.6 0-7.6-6.3-11.7-7.8a5 5 0 0 0-3.2 0c-4.8 1-9.9 6.4-14.6 7.6a44 44 0 0 1-6 .7 5 5 0 0 1-1.3 1.6q-1.2.5-2.4.5l-1 2.1a7 7 0 0 1-2 1.3q.5-1.2 0-2.2l-1.3 1.9-2 1.1c0-.6.3-1.3 0-2l-1.3 1.7q-.8.7-1.9 1a2 2 0 0 0 0-2.2l-1.1 1.7-2.4 1.3q.5-1.2.3-2.2H286c-1.3 0-1.4 1.1-2.1 1.7a3 3 0 0 1-2.2.4c-.9-.4-1.7-1.4-.6-3-1.9.3-2.8-.9-2.8-2 0-.9.3-1.8 2.2-1.7l-.2-1.3a1.4 1.4 0 0 1 1.5-1q.6-.1 1.1.4c.4.4.5 1 1.2 1.6a6 6 0 0 0 2.6.4 48 48 0 0 1 5.8-2.6c1.3-.4 4.8-1 4.8-1v-8.7h3.1c2.6 0 9.3 1 9.3 1l4.8-.3s8-1.2 12-1.6a39 39 0 0 1 5.7-.2c3 .1 5.4.8 8.1 1q3.2.3 6.2.2c3.3-.1 9.2 0 11-3a2 2 0 0 0-.4-2.3 3 3 0 0 0-3-.8c-.6.1-1.5.6-1.5 1.2q-.1.6.2 1.1l1 .8a4 4 0 0 1-2-.3 6 6 0 0 1-1.3-2.1 2 2 0 0 0-.5 1.4 2 2 0 0 0 .7 1.6 4 4 0 0 1-2.3-.8l-.9-2.1a2 2 0 0 0-.8 1.5q.1.8.6 1.6a5 5 0 0 1-2-1.1 6 6 0 0 1-.9-2.1l-8.5 1.6a101 101 0 0 1-9 1.6q-6.7.9-10.8-.8-2.1-.7-2.6-2.4a3 3 0 0 1 .8-2.7 9 9 0 0 1 4.8-2.4 73 73 0 0 1 8.4-1.6 32 32 0 0 1 9 .5c1.4.1 2.8-.2 3.2-.6s1-.8.2-1.8q1.1 0 1.6 1.2c.3.4 0 1.6 0 1.6z"/>
  <path fill="gold" stroke="#806600" stroke-miterlimit="128.6" stroke-width=".2" d="M341.4 106.5c1-.1 3.2-.6 4-1.2l1.2-1.3q0 3-3.6 4.4a13 13 0 0 1-5.9.7l-3.5-.8c1.3 1.5.6 2.4-1 3 0 0 .3-1.3-.2-1.5-1-.4-2.2.2-3.4.8a7 7 0 0 1-2.8.6 9 9 0 0 1-3.4-.5c-.8-.2-2.2-1.3-2.7-1.2-1.3.3-2.8.4-3.5 1.4a1 1 0 0 0 0 1.2 4 4 0 0 0 2.5 1.3q4 .9 8 .3c2.8-.4 6.2-1.2 9-1.7l8.8-2a33 33 0 0 1 8.4-.7c5 0 6.6 2.5 6.5 5.1-.2 2.8-3.2 4-5.8 4.8-4.6 1.4-10.8.6-14.7.5l1.9 1.4c.7.6 1 1.7 2 2 1.1.3 3-.4 4.2-.5l4.8.1q.4-.5 1.2-.8h1q1 .3.8 1.9l.9.5c.6.2 1.3 0 1.7.2l1.5.6-1.5.6-.6.6 2 .3q.5.3 1 1H359l-.8.7s1.6-.1 2.2.3l1 1-1.2.2-.8.3 1.6 1.1.5 1.6-1-.6h-.8l.2 2.1c0 .5.8 1.1 1 1.5q.3.8-.2 1.2a2 2 0 0 1-2 .6l-1-.6-.8 1a2 2 0 0 1-1.3.5 2 2 0 0 1-1.3-.6l-.6-1.5-1.5.3a2 2 0 0 1-1.4-.7 2 2 0 0 1 .2-1.7c.4-.5 1.6-.5 2.2-.8l1.4-1.2-3.5-2.9-1.6-2-4.5 1a25 25 0 0 1-6 0c-4.6 0-7.6-6.3-11.7-7.8a5 5 0 0 0-3.2 0c-4.8 1-9.9 6.4-14.6 7.6a44 44 0 0 1-6 .7 5 5 0 0 1-1.3 1.6 7 7 0 0 1-2.4.5l-1 2.1a7 7 0 0 1-2 1.3q.5-1.2 0-2.2l-1.3 1.9-2 1.1c0-.6.3-1.3 0-2l-1.3 1.7q-.8.7-1.9 1a2 2 0 0 0 0-2.2l-1.1 1.7-2.4 1.3q.5-1.2.3-2.2H286c-1.3 0-1.4 1.1-2.1 1.7a3 3 0 0 1-2.2.4c-1-.4-1.7-1.4-.6-3-1.9.3-2.8-.9-2.8-2 0-.9.3-1.8 2.2-1.7l-.2-1.3a1.4 1.4 0 0 1 1.5-1q.6-.1 1.1.4c.4.4.5 1 1.2 1.6a6 6 0 0 0 2.6.4 48 48 0 0 1 5.8-2.6c1.3-.4 4.8-1 4.8-1v-8.7h3.1c2.6 0 9.3 1 9.3 1l4.8-.3s8-1.2 12-1.6a39 39 0 0 1 5.7-.2c3 .1 5.4.8 8.1 1q3.2.3 6.2.2c3.3-.1 9.2 0 11-3a2 2 0 0 0-.4-2.3 3 3 0 0 0-3-.8c-.6.1-1.5.6-1.5 1.2a1 1 0 0 0 .2 1l1 .9a5 5 0 0 1-2.2-.4 4 4 0 0 1-1.1-2 2 2 0 0 0-.5 1.4 2 2 0 0 0 .7 1.6 4 4 0 0 1-2.3-.8l-.9-2.1a2 2 0 0 0-.8 1.5q.1.8.6 1.6a5 5 0 0 1-2-1.1 6 6 0 0 1-.9-2.1l-8.5 1.6a101 101 0 0 1-9 1.6q-6.7.9-10.8-.8-2.1-.7-2.6-2.4a3 3 0 0 1 .8-2.7 9 9 0 0 1 4.8-2.4 73 73 0 0 1 8.4-1.6 32 32 0 0 1 9 .5c1.4.1 2.8-.1 3.2-.6s1-.8.2-1.8q1.1 0 1.6 1.2c.3.4 0 1.6 0 1.6z"/>
  <path fill="gold" d="M307 118.8c1 .6 2-.2 2.3-.2l-.8-1.2-.3-1.8c0-1.6.5-1.8.6-1.6l1.4-.8q.6-.5.8-1.3l-.2-1.9c-1.5 0-1.8.2-2.2.6l-.3-1.5-.5-1.2-.6-.5q0 .7-.6 1l-.4-2a1.6 1.6 0 0 0-2.6-.8l-1.6 1.5.2-1.2-.8.2-1 .7-1.1 1.1q.2-.8-1.6-1.7l-1.1 1.6a2 2 0 0 0-.1 1.4l.8 1.4c.1 0 .5.4-.4 1.7l-1.2 1.4q-.6.5-1.3.5c.4.8.5 1.2 1.8 1.4-3 2-3.2 5.4-1 8.3q.3-.8.9-1.4a4 4 0 0 0 .8 2.5c.3.3.5 1.8.8 2.3l1 1s.3-1.3.9-1.5l2-.6a7 7 0 0 0 2-1.7l-.3 1.8q5.5-2.1 3.7-7.5"/>
  <path fill="#504416" d="M299.6 114a8 8 0 0 1-.8 4l2.6 1 2.4.2c-.2-1 .8-3 1.2-3.6h-1.7l-.8-.8-1.5.3-1.4-1z"/>
  <path fill="#fff" d="M300 114.7a3 3 0 0 0 0 1.9l.7-1.6zm3.6 1.1-.2 1.7a3 3 0 0 0 1-1.6h-.8zM300 117a3 3 0 0 0-.9 1.6l.7.1zm3.2 1-.8 1.5.7.3a3 3 0 0 0 0-1.9zm-2.9-8.2q-.7 0-.9.4-.1.8 1 1.3a1.3 1.3 0 0 0 1.6-.6q0-.8-1.1-1zm5.2 1.4q-.5 0-.8.4a1.3 1.3 0 0 0 1 1.4q1.3.4 1.5-.5.3-.8-1-1.1l-.8-.2z"/>
  <path fill="#d1b948" d="M300.3 109.6h-.4l-.5.6q-.1.5.1.8.3.5.8.6a1.4 1.4 0 0 0 1.8-.8l-.3-.6-1-.5zm0 .2.5.1.8.4a.4.4 0 0 1 .2.5 1 1 0 0 1-1.4.6l-.7-.4-.2-.7.4-.4zm5.2 1.3h-.2l-.7.5a1.4 1.4 0 0 0 1.2 1.6h1q.4-.3.6-.7l-.3-.8-.8-.4zm0 .3.7.1q.4 0 .8.4l.1.6-.5.4h-.8a1 1 0 0 1-1-1.2q0-.4.5-.3z"/>
  <path fill="gold" d="M300.4 108.6a1 1 0 0 0-1 .3c-.2.1-.2.6-.2.6h.6l.5.2 1.3.5h1.4l-1.2-.6c-.4-.2-.8-.9-1.4-1m6.6 2c-.4-.2-1 .1-1.5 0l-1.3-.1 1.2.8 1.4.2.6.2.4.2.2-.5a1 1 0 0 0-1-.8m-8 7.4c-1.4 3.2 3.8 4.8 4.6 1.3a11 11 0 0 1-4.6-1.3"/>
  <path fill="#806600" d="M298.8 117.6v.3a3 3 0 0 0 0 2.3 2.6 2.6 0 0 0 5-.8v-.3h-.2a10 10 0 0 1-4.6-1.3l-.2-.1zm.2.5a13 13 0 0 0 4.5 1.2 3 3 0 0 1-1 1.7 3 3 0 0 1-2 .2 3 3 0 0 1-1.6-1.4 3 3 0 0 1 0-1.7z"/>
  <path fill="#377bc8" stroke="#2c5aa0" stroke-miterlimit="128.6" stroke-width=".2" d="M301.1 115.2a14 14 0 0 0-.8 6.7c1.6-1.6 2.4-4 2.9-6.1l-.5-.4-.3-.5-.7.3z"/>
  <path fill="gold" d="m305 105.4-1.4.2-1.6 1.5v-1.2l-.6.2-1.2.7-1 1c.6 0 1.7-1 2-.8.4 0 0 1 .5 1s.9-.6 1.5-1.1q.9-.8 1.6-.7a2 2 0 0 1 .9 1.4q.3 1.3.8 1.8c.3.2.6-.8 1-.7s.6 1.6 1 1.9l-.2-1.5-.6-1.2-.5-.5q-.1.6-.6 1l-.5-2zm-6.3 5.5c-.5.8.2 1.7 1.3 1.9l-.5 1 .7 1.2 1 .4 1.1-.4.7 1 1 .2 1.3-.8.5-.8h.8l.6-.4.2-.8q-1 1-2.4.4a2 2 0 0 1-.4 1.3 1 1 0 0 1-1 .2 2 2 0 0 1-1.1-.9q-.7.4-1.1.4a1.4 1.4 0 0 1-1-1 2 2 0 0 1 .4-1.3c-2.4-.7-1.6-1.3-2-1.6zm-1.2.2-1.8 2.6q-.6.5-1.3.5c.4.8.5 1.2 1.8 1.4-3 2-3.2 5.4-1 8.3q.3-.8.9-1.4a4 4 0 0 0 .8 2.5c.3.3.5 1.8.8 2.3l1 1s.3-1.3.9-1.5l2-.6a7 7 0 0 0 2-1.7l-.3 1.8c3.9-1.3 4.8-4 3.7-7.5 1 .6 2-.2 2.3-.2l-.8-1.2-.3-1.8v-1.1l-.6 1.6v1.7l-1.8-.8q.5 1.8.8 3.7 0 1.3-.5 2.5l-1.6 1.7.3-2.3-.3-2.8-.8 2.7-1.2 2c.1-2 0-2.2-.2-2.9 0 0-.5 2.5-1.3 3.6l-1.6.7-.7.6-.6-1.7-1.2-2.2c-.3-1.2 1.2-3.6 1.2-3.6q-.9.2-1.7 1.4l-1.3 1.6-.5-2.2q0-1.2.7-2.1c.6-1 3.3-3 3.3-3a4 4 0 0 1-2.8 0l1.2-1.7a4 4 0 0 0 .5-1.9m5 1.1h-1.2v.5l.5.3.8 1 1.6-.5.3-.4-1.5-.8z"/>
  <path fill="none" stroke="#806600" stroke-miterlimit="128.6" stroke-width=".2" d="M307 118.8c1 .6 2-.2 2.3-.2l-.8-1.2-.3-1.8c0-1.6.5-1.8.6-1.6l1.4-.8q.6-.5.8-1.3l-.2-1.9c-1.5 0-1.8.2-2.2.6l-.3-1.5-.5-1.2-.6-.5q0 .7-.6 1a4 4 0 0 0-1.6-3q-1.8.1-3 1.7v-1.2l-.6.2-1 .7-1.1 1.1q.2-.8-1.6-1.7l-1.1 1.6a2 2 0 0 0-.1 1.4l.8 1.4c.1 0 .5.4-.4 1.7l-1.2 1.4q-.6.5-1.3.5c.4.8.5 1.2 1.8 1.4-3 2-3.2 5.4-1 8.3q.3-.8.9-1.4a4 4 0 0 0 .8 2.5c.3.3.5 1.8.8 2.3l1 1s.3-1.3.9-1.5l2-.6a7 7 0 0 0 2-1.7l-.3 1.8q5.5-2.1 3.7-7.5z"/>
  <path fill="#806600" d="M297.7 107.2a3 3 0 0 0-.5 1.6l.9 1.6.5-2.2c-.1-.4-.8-1-.8-1zm2 2-.3.2q-.4 0-.4.4l.7-.2h.2l1.2.6h1.9l-.3.8-.9.4-.4.4-.2.4v.6h.2a1 1 0 0 1 .8.9l.2.2.2.1h.4a1 1 0 0 1 1.2-.3h.1l.1-.1.3-.6v-.4l-.2-.4c0-.4-.3-1-.3-1l.1-.8 1.5 1.1 1.3.1q.3 0 .3.2l.4.5-.1-.8-.5-.2-1.3-.1-1.4-1-.2-.2-.1.2a2 2 0 0 0-.4 1.2l.4 1 .2.7-.2.3a2 2 0 0 0-1.5.4h-.1a3 3 0 0 0-1.2-1.3v-.3l.2-.1q0-.3.3-.3l.9-.8q.3-.4.4-1v-.3h-.3l-1.6.1-1.2-.5h-.3zm-.9 1.4a2 2 0 0 0-.2 1.6q.4.6 1 .8v.1l-.2.8q.1.9.8 1.3.5.5 1.2.4l.8-.2.5.6q.6.4 1.3.3a2 2 0 0 0 1.6-1.4v-.2a2 2 0 0 0 1.4-.1 2 2 0 0 0 .6-1.5c-.3.3 0 .8-.8 1.3q-.6.3-1.1 0l-.4-.3v.9l-.3.5-1 .6a1 1 0 0 1-1-.3l-.4-.7-.2-.5-.2.3-.4.2-.5.2q-.6 0-.8-.3a2 2 0 0 1-.7-1.2v-.5q0-.3.3-.4l.1-.3h-.4a1 1 0 0 1-1-.5c-.5-.7 0-1 0-1.5m11.4.2s-1 0-1.2.4l-.8 2 1.6-.7q.4-.9.4-1.6z"/>
  <path fill="#2b2200" d="M300.8 110a.5.5 0 0 0-.2 1.1.5.5 0 1 0 .1-1zm5.1 1.6a.5.5 0 0 0-.1 1 .5.5 0 1 0 .1-1"/>
  <path fill="#377bc8" stroke="#2c5aa0" stroke-miterlimit="128.6" stroke-width=".2" d="M281 127.6c-.5.2-1.2-.2-2.5 1a2 2 0 0 1 2.2.8 1 1 0 0 0 .8-.5 1 1 0 0 0-.5-1.3zm32.3 1.5c-.5.2-1.1-.2-2.5 1a2 2 0 0 1 2.2.9q.7 0 .8-.6a1 1 0 0 0-.5-1.3zm-34.7 1.8c-.4.3-1.2.2-2 1.8a2 2 0 0 1 2.4 0q.6-.2.6-.8a1 1 0 0 0-1-1zm35.2 2.5c-.3.4-1 .4-1.8 2a2 2 0 0 1 2.4-.2 1 1 0 0 0 .6-.8 1 1 0 0 0-1.2-1zm-32.8 1.4-.5.2c-.2.4-.9.8-.8 2.5a2 2 0 0 1 2-1.2 1 1 0 0 0 .1-1 1 1 0 0 0-.8-.5zm70.2.2h-.4c-.2.6-1 .8-1 2.6a2 2 0 0 1 2.1-1q.4-.5.3-1a1 1 0 0 0-1-.6zm-33.4 1.2-.6.3c0 .5-.8.8-.5 2.6a2 2 0 0 1 2-1.4 1 1 0 0 0 0-1 1 1 0 0 0-.9-.5zm41.6.2a1 1 0 0 0-1 .6c.2.4-.2 1 .9 2.5a2 2 0 0 1 1-2.1 1 1 0 0 0-.5-1zm-4.4.5-.8.4c0 .5-.6 1 .1 2.6a2 2 0 0 1 1.6-1.7q.1-.7-.2-1z"/>
  <path fill="gold" stroke="#806600" stroke-miterlimit="103.2" stroke-width=".2" d="m303.1 158.7-1.7-.3-1.2-1.4h-2l-1.6-.8a3 3 0 0 0 1.6-.8l-1.9-.3-1.6-1c.6-.2 1.2-.1 1.6-.7l-1.7-.2-1.5-1a2 2 0 0 0 1.8-.7l-1.8-.1-1.7-1.2a4 4 0 0 0 1.8-.5l-.4-.8c-.4-1-1.4-.7-2-.9a2 2 0 0 1-1.1-1.4c0-.7.3-1.7 1.8-1.6-.8-1 0-2 .9-2.4.8-.2 1.5-.1 2 1.2l1.2-.7a1 1 0 0 1 1.4.6v.9q-.6.5-.8 1.3a4 4 0 0 0 .4 1.9s3 2.4 4.4 3.7c.8.7 2 2.2 2 2.2h3l.3 5z"/>
  <path fill="#377bc8" stroke="#2c5aa0" stroke-miterlimit="103.2" stroke-width=".2" d="M294.8 142q.8 1 .5 2l.8.2a1 1 0 0 0 .5-1c-.4-.2-.4-.8-1.8-1.1zm-3.4.5h-.8a2 2 0 0 1 1.2 1.6l.8-.1a1 1 0 0 0 0-1.1c-.3 0-.5-.4-1.2-.4zm-1 3.2a3 3 0 0 0-2 .6 2 2 0 0 1 1.7.8q.4.1.6-.4a1 1 0 0 0-.3-1z"/>
  <path fill="gold" stroke="#806600" stroke-miterlimit="103.2" stroke-width=".2" d="M318 161c-.6-.1-1.3-.8-1.8-.8a2 2 0 0 0-1.3.8 1 1 0 0 0 .3 1.2l1 .6-.7 1.2q0 .5.4.9.3.5.9.6l1.1-.1q0 .5.2.8a2 2 0 0 0 1.6.8q.5.2.9-.4.1-.6.5-1.4l1.4-1.3q.8.6.5 1.5l1.2-1q.4-.6.4-1.4.8.7.6 1.6l1.2-1 .6-1.4q.7.7.4 1.6l1.3-1.2.3-1.2q2 0 2.1-1 .1-.8-1.4-1.2l-.5-1v-.8a4 4 0 0 1 1.2-1.5l2.2-1.3-.5-2.1-5-.8-5.7 1.4c1 .4 3.4 2 3.2 2.7l-.8.8q-.2.2.1.8.6.2 1 .6v.8c-.3.5-1.6.7-2.3 1-1 .4-3 1.6-3 1.6l-1.7-.4z"/>
  <path fill="gold" stroke="#806600" stroke-miterlimit="103.2" stroke-width=".2" d="M328 154.2s0 1.9-.7 2.3q-.6.4-1.2.1a1 1 0 0 1-.7-.8l-.2-.8-1.8-.5q-1.4 0-2.7.5a6 6 0 0 1 2-2.5l3-.3 2.4 2z"/>
  <path fill="gold" d="M333.8 142.2c.8 0 2.2-.4 2.7-1l.8-1a4 4 0 0 1-2.3 3.6 7 7 0 0 1-4 .5l-2.4-.5c1 1 .5 1.8-.6 2.4 0 0 .2-1-.2-1.2q-1-.4-2.1.5-.9.5-2 .6a5 5 0 0 1-2.2-.4c-.5-.3-1.4-1-1.7-1-.8.2-2 .3-2.4 1v1a3 3 0 0 0 1.6 1.1q2.7.7 5.3.2 3.1-.6 6.1-1.4c2-.4 4.3-1 5.8-1.5a18 18 0 0 1 5.6-.6c3.2 0 4.4 2 4.3 4.1-.2 2.2-2.2 3.2-3.9 3.8-3 1.1-7.2.5-9.7.4l1.3 1.2c.4.4.6 1.4 1.2 1.6.8.2 2-.3 2.8-.4h3.2l.8-.6h.8q.5.2.4 1.5l.6.5h1.1l1 .6-.9.4-.5.6 1.3.1.8.8-.8.1-.6.6s1-.1 1.5.2l.6.8h-.8l-.5.4 1 .9q.3.6.3 1.3l-.6-.5-.6-.1.2 1.8c0 .4.6.8.7 1.2q.2.5-.2 1-.4.7-1.3.4l-.7-.4-.4.8q-.4.3-1 .2l-.7-.4-.5-1.2-1 .3q-.6 0-1-.6a1 1 0 0 1 .2-1.3q.6-.5 1.5-.6l1-1-2.5-2.4-1-1.6s-2 .8-2.9.8a14 14 0 0 1-4 0c-3.1 0-5.1-5-7.8-6.2a3 3 0 0 0-2.1 0c-3.2.7-6.6 5.1-9.6 6l-4 .6-.9 1.3-1.6.3-.6 1.8-1.3 1a3 3 0 0 0 0-1.7l-1 1.4-1.3 1a2 2 0 0 0 0-1.6l-.8 1.3-1.3.8a2 2 0 0 0 0-1.7l-.7 1.3-1.6 1a3 3 0 0 0 .2-1.8h-.8c-1 0-1 1-1.4 1.5a2 2 0 0 1-1.5.3q-1.1-.4-.4-2.3a1.6 1.6 0 0 1-1.9-1.6q-.1-1.4 1.5-1.5v-1q.1-1 .8-.9.5 0 .8.4t.8 1.2a3 3 0 0 0 1.7.4l4-2.1 3.1-.8v-7h2q3.2.3 6.2.9l3.2-.3s5.4-1 7.8-1.2q2-.4 3.9-.3c1.9.2 3.6.8 5.4.8q2 .4 4 .3c2.3-.2 6.2 0 7.4-2.4a2 2 0 0 0-2.3-2.6q-.8.3-1 1 0 .5.2.8t.7.8a2 2 0 0 1-1.4-.4l-.9-1.6-.3 1.2q0 .6.4 1.2a2 2 0 0 1-1.5-.7l-.6-1.6q-.4.5-.4 1.1 0 .8.3 1.4a3 3 0 0 1-1.4-1l-.5-1.6-5.6 1.3-6 1.3q-4.4.6-7.2-.7a3 3 0 0 1-1.6-2 3 3 0 0 1 .5-2.1 6 6 0 0 1 3.2-2l5.5-1.2a18 18 0 0 1 6 .3q1.2.3 2-.4a1 1 0 0 0 .2-1.4q.8.1 1 1z"/>
  <path fill="gold" d="m337.4 140.2-1.6 2.1a7 7 0 0 1-3 1.1 11 11 0 0 1-3-.2l-2.8-.9.8 1.8-1.6-.1-1.6.8q-1.4.2-2.4-.2c-.8-.1-1-.4-1.7-.3l-.7.3 2.1 1.2 2 .3 1.3-.3 1.4-.8 1.2-.1.3.5v.8l.8-.8.1-.5-.2-1 1.6.3 1.8.2 2-.4 1.8-.8.9-1.1zm5.2 5.4-1.3.5a2 2 0 0 0-.6 1.7l-.8-2.1c-.8.8-.8 1.8-1 2.7l-.8-2.5a5 5 0 0 0-1.4 2.3 5 5 0 0 1-.5-2h-.2c-2.6.4-8.2 2.3-12.6 2.7-2.4.2-5.2 0-6.7-1a3 3 0 0 1-1.3-2l-.2 1 .8 1.3 1.6 1 3 .7 3.4-.4 2-.1 10-2.4v1.3l.8.8.8.5-.2-1.1v-.8l.4-.5.5 1.4.7.6 1 .2-.5-.7v-.9l.3-.8.5 1.3.5.5h1.3l-.8-.7-.2-.8.6-.7 1.1-.3 1 .4.6.7.2 1-.1.8c1.7-1.6 0-3.6-2-3.6zm3.4 1.6a5 5 0 0 1-1.1 2.8c-3 3.3-9.8 2.2-13 1.1l-1.4-.2-.8-.3-2-.3-3.9.3c-2.4.2-7.8 1.2-7.8 1.2l-3.2.3a46 46 0 0 0-6.2-.8h-2v1.1l2.8.6h-.4l-1.9 3.6-.4-1.6-.1 2.5-.4.7-2.4.6-2.4 1-1.8 1.4-1.8-.5-.8-1.3q.2 1 .7 2c.5.5 2 .6 2 .6l3.3-2 1.6-.6a4 4 0 0 0 1.6 1.2c0-1.6 1-1.6 2.4-2.4v1s2.7-1 3.4-1.8a5 5 0 0 0 1.1-1.9 5 5 0 0 0 .1-2.1h1.8c2.7-.1 5.6-1.3 8.2-1.6 2-.4 4.5-.8 6.4-.4 1.6.3 2.2 1 3.6 2 1.2.8 2.4 3.2 4 3.2 0 0 .9 0 1.4-.2l2-.5 2.4.2c.7-1 1-1 1.2-.8q.6.4.1 1.3a2 2 0 0 0 1.9.8q-.7.6-1 1.3a3 3 0 0 1 1.7.3l-.8 1.2 1.6.3q-.7.3-.8.8l1.3 1q-.8 0-1 .3l.9 1.7-.2-1.6.6.2q.4 0 .6.5l-.2-1.3-1-.9.4-.3h.8l-.6-.9c-.4-.3-1.5-.2-1.5-.2l.6-.6h.8l-.8-.9-1.3-.1.5-.6.9-.4-1-.6h-1.1l-.6-.5q.1-1.2-.4-1.5h-.8q-.6.2-.8.7h-3.2c-.8 0-2 .5-2.8.3-.6-.2-.8-1.2-1.2-1.6l-1.3-1.2h2.9l3 .2h1.8c2.2-.6 4.7-1.2 5.7-3.8v-2zm-22.4 5.1a6 6 0 0 0-2.4.5 30 30 0 0 0-5.1 3.5l-3.2 2a18 18 0 0 1-4.6.6s-.4 1.6-1 1.9c-.4.3-1.5-.3-1.5-.3l-.1 1.3-.5 1.4-.3-1-.8-1-.4 1.4-.9 1.4-.2-.8-.8-1.2-.4 1.4-.5 1-.2-.5-.8-1.2-.7 1.5-.6.8-.2-1.2a1 1 0 0 0-1-.3c-1 .2-1.5 1.2-2.1 2.1q-.4.4-.4 0v-.7l-.7-.3c-.4.3.8-1.2.8-1.2l-1.6-.1c-.4-.1.1 0 .1-.8s-.8-.8-.5-.8l1.3.1s-.4-.4-.2-.8c0-.1.5-.4.6-.8a1 1 0 0 0-.5-1c-.1.4-.8.2-.8.7v1.1q-1.7.1-1.5 1.5a1.6 1.6 0 0 0 2 1.6c-.9 1.2-.3 2 .3 2.3a2 2 0 0 0 1.5-.3c.5-.5.5-1.5 1.4-1.5h.8a4 4 0 0 1-.2 1.9l1.6-1 .8-1.4a2 2 0 0 1 0 1.7l1.2-.8.8-1.4a2 2 0 0 1 0 1.7l1.3-1 1-1.4a3 3 0 0 1 0 1.7l1.3-1 .6-1.7q.8 0 1.6-.4l.8-1.3 4-.5c3.2-1 6.5-5.4 9.7-6.2a3 3 0 0 1 2 0c2.8 1.3 4.9 6.4 7.8 6.4 1.4 0 2.1.3 4 0l3-.9 1 1.6 2.4 2.4-1 1c-.3.2-1.1.2-1.4.6a1 1 0 0 0-.1 1.3q.3.4 1 .6l.9-.3.4 1.2q.4.4.8.5.7.1 1-.4l.4-.8q.3.4.7.5a1 1 0 0 0 1.3-.5c.3-.3 0-1.3-.1-1.7v1.2a.8.8 0 0 0-1.5 0 1 1 0 0 1-.7-.8l-.2 1q0 .4-.3.6c0-1-.7-1-1.2-.8v-1l-1 .5c-.3 0 0-.2-.2-.5 0-.3-.6-.2-.4-.3l1.5-.8 1-1.4-2.5-2.4-1.5-2.4a26 26 0 0 1-4.8 1 7 7 0 0 1-3.4-.4c-1.8-.9-2.8-3.1-4.3-4.3q-1.4-1.4-3-1.9z"/>
  <path fill="none" stroke="#806600" stroke-miterlimit="103.2" stroke-width=".2" d="M333.8 142.2c.8 0 2.2-.4 2.7-1l.8-1a4 4 0 0 1-2.3 3.6 7 7 0 0 1-4 .5l-2.4-.5c1 1 .5 1.8-.6 2.4 0 0 .2-1-.2-1.2q-1-.4-2.1.5-.9.5-2 .6a5 5 0 0 1-2.2-.4c-.5-.3-1.4-1-1.7-1-.8.2-2 .3-2.4 1v1a3 3 0 0 0 1.6 1.1q2.7.7 5.3.2 3.1-.6 6.1-1.4c2-.4 4.3-1 5.8-1.5a18 18 0 0 1 5.6-.6c3.2 0 4.4 2 4.3 4.1-.2 2.2-2.2 3.2-3.9 3.8-3 1.1-7.2.5-9.7.4l1.3 1.2c.4.4.6 1.4 1.2 1.6.8.2 2-.3 2.8-.4h3.2l.8-.6h.8q.5.2.4 1.5l.6.5h1.1l1 .6-.9.4-.5.6 1.3.1.8.8-.8.1-.6.6s1-.1 1.5.2l.6.8h-.8l-.5.4 1 .9q.3.6.3 1.3l-.6-.5-.6-.1.2 1.8c0 .4.6.8.7 1.2q.2.5-.2 1-.4.7-1.3.4l-.7-.4-.4.8a1 1 0 0 1-1 .3l-.7-.5-.5-1.2-1 .3q-.6 0-1-.6a1 1 0 0 1 .2-1.3q.6-.5 1.5-.6l1-1-2.5-2.4-1-1.6s-2 .8-2.9.8a14 14 0 0 1-4 0c-3.1 0-5.1-5-7.8-6.2a3 3 0 0 0-2.1 0c-3.2.7-6.6 5.1-9.6 6l-4 .6-.9 1.3-1.6.3-.6 1.8-1.3 1a3 3 0 0 0 0-1.7l-1 1.4-1.3 1a2 2 0 0 0 0-1.6l-.8 1.3-1.3.8a2 2 0 0 0 0-1.7l-.7 1.3-1.6 1a3 3 0 0 0 .2-1.8h-.8c-1 0-1 1-1.4 1.5a2 2 0 0 1-1.5.3q-1.1-.4-.4-2.3a1.6 1.6 0 0 1-1.9-1.6q-.1-1.3 1.5-1.5v-1q.1-1 .8-.9.5 0 .8.4t.8 1.2a3 3 0 0 0 1.7.4l4-2.1 3.1-.8v-7h2q3.2.3 6.2.9l3.2-.3s5.4-1 7.8-1.2q2-.4 3.9-.3c1.9.2 3.6.8 5.4.8q2 .4 4 .3c2.3-.2 6.2 0 7.4-2.4a2 2 0 0 0-2.3-2.6q-.8.3-1 1l.2.8.7.8a3 3 0 0 1-1.6-.4l-.7-1.6-.3 1.2q0 .6.4 1.2a2 2 0 0 1-1.5-.7l-.6-1.6q-.4.5-.4 1.1 0 .8.3 1.4a3 3 0 0 1-1.4-1l-.5-1.6-5.6 1.3-6 1.3q-4.4.6-7.2-.7a3 3 0 0 1-1.6-2 3 3 0 0 1 .5-2.1 6 6 0 0 1 3.2-2l5.5-1.2a18 18 0 0 1 6 .3q1.2.3 2-.4a1 1 0 0 0 .2-1.4q.8.1 1 1 .2.5 0 1.1z"/>
  <path fill="gold" d="M310.2 152.2c.8.4 1.6-.2 1.8-.3l-.6-.8-.3-1.6c0-1.2.5-1.3.5-1.3l1.1-.5q.5-.5.7-1.1l-.2-1.5c-1.2 0-1.5 0-1.8.4l-.2-1.2-.5-1-.4-.3q0 .5-.4.8l-.5-1.6a1.4 1.4 0 0 0-2-.7l-1.2 1.2v-1l-.5.2-.9.6-.8.9q.2-.6-1.3-1.4l-.9 1.2-.1 1.2.7 1.1s.4.4-.3 1.5l-1 1-1 .4c.2.8.3 1 1.3 1.2-2.4 1.6-2.5 4.3-.8 6.6l.8-1.2q0 1.2.7 2c.2.3.3 1.6.6 2l.7.7s.4-1 .8-1.1l1.6-.5a6 6 0 0 0 1.6-1.5l-.2 1.6c3.1-1.2 3.8-3.2 3-6"/>
  <path fill="#504416" d="M304.2 148.3a6 6 0 0 1-.6 3.1l2 .8 2 .3c-.2-.8.6-2.4 1-3h-1.5l-.6-.6-1.1.3-1.2-.8z"/>
  <path fill="#fff" d="M304.6 148.8a2 2 0 0 0 0 1.5l.5-1.2zm2.8 1-.1 1.3q.5-.6.7-1.3zm-2.8 1a2 2 0 0 0-.8 1.2h.6l.2-1.3zm2.5.6-.6 1.2.5.3a2 2 0 0 0 0-1.5zm-2.3-6.6q-.6-.1-.7.4-.2.7.8 1a1 1 0 0 0 1.2-.5q0-.6-.8-.8zm4.2 1.2q-.6 0-.7.3a1 1 0 0 0 .8 1.1q1 .3 1.2-.4.3-.7-.8-1z"/>
  <path fill="#d1b948" d="M304.8 144.8h-.3l-.5.5.2.6q.2.4.6.5a1 1 0 0 0 1.4-.6l-.2-.6-.8-.4zm0 .2h.4l.6.4q.3 0 .2.3-.4.7-1.1.5l-.6-.4-.1-.5.3-.3zm4.2 1h-.2l-.6.3a1 1 0 0 0 1 1.3h.7l.5-.6-.2-.5-.6-.4zm0 .2h.5q.4 0 .7.4v.4l-.4.4h-.6a1 1 0 0 1-.8-1q0-.2.4-.2z"/>
  <path fill="gold" d="m304.8 144-.8.2v.4h.3l.5.2 1 .5 1.2-.1-1-.5c-.4-.1-.7-.7-1.2-.8zm5.4 1.5H308l1 .6 1 .1.6.2.3.2.1-.4a1 1 0 0 0-.8-.7m-6.5 6c-1 2.6 3.1 4 3.7 1a8 8 0 0 1-3.7-1"/>
  <path fill="#806600" d="M303.6 151.2v.2a2 2 0 0 0 0 1.8 2.2 2.2 0 0 0 4-.6v-.3h-.2a8 8 0 0 1-3.6-1zm.2.3a11 11 0 0 0 3.6 1 3 3 0 0 1-.8 1.4 3 3 0 0 1-1.6.1 3 3 0 0 1-1.3-1 2 2 0 0 1 0-1.5z"/>
  <path fill="#377bc8" stroke="#2c5aa0" stroke-miterlimit="103.2" stroke-width=".2" d="M305.4 149.2a12 12 0 0 0-.6 5.4 12 12 0 0 0 2.4-5l-.5-.2-.2-.4-.6.2z"/>
  <path fill="gold" d="m308.6 141.4-1.2.1-1.2 1.2v-1l-.5.2-1 .6-.8.8c.4 0 1.3-.8 1.6-.7.3 0 .1.8.4.8q.4 0 1.2-.8.8-.7 1.2-.6.6.3.8 1.1.2 1.2.6 1.5c.3.1.5-.7.8-.5.4 0 .5 1.3.9 1.4l-.2-1.2-.5-1-.4-.3q-.1.5-.5.8l-.4-1.6zm-5 4.4q-.6 1.1.9 1.6l-.3.8.4 1 1 .2.8-.3.6.8.8.2 1-.7.4-.7h.6l.5-.2.3-.7a2 2 0 0 1-2.1.3l-.3 1-.8.2-.8-.7q-.6.4-1 .3a1 1 0 0 1-.8-.8 1 1 0 0 1 .3-1c-1.8-.5-1.2-1.1-1.6-1.3zm-1 .2-1.6 2-1 .4c.3.8.4 1 1.4 1.2-2.4 1.6-2.5 4.3-.8 6.6l.8-1.2q0 1.2.7 2c.2.3.3 1.6.6 2l.7.7s.4-1 .8-1.1l1.6-.5a6 6 0 0 0 1.6-1.5l-.2 1.6c3.1-1.2 3.8-3.2 3-6 .8.4 1.6-.2 1.8-.3l-.6-.8-.3-1.6v-.8l-.5 1.3v1.3l-1.4-.7.6 3q0 1-.4 2l-1.2 1.4.2-1.8-.3-2.3-.7 2.2-1 1.6c.2-1.6.2-1.7 0-2.4a9 9 0 0 1-1.1 2.9l-1.2.6-.6.5-.5-1.4-1-1.8c-.2-.9 1-2.8 1-2.8q-.6.1-1.3 1.1l-1.1 1.3-.4-1.8a3 3 0 0 1 .5-1.6 17 17 0 0 1 2.7-2.6 3 3 0 0 1-2.3.1l1-1.3q.5-.7.5-1.6zm4 .8h-1v.5l.4.1.6.8 1.4-.4.2-.3-1.2-.6z"/>
  <path fill="none" stroke="#806600" stroke-miterlimit="103.2" stroke-width=".2" d="M310.2 152.2c.8.4 1.6-.2 1.8-.3l-.6-.8-.3-1.6c0-1.2.5-1.3.5-1.3l1.1-.5q.5-.5.7-1.1l-.2-1.5c-1.2 0-1.5 0-1.8.4l-.2-1.2-.5-1-.4-.3q0 .5-.4.8a2 2 0 1 0-3.7-1v-1l-.5.1-.9.6-.8.9q.2-.6-1.3-1.4l-.9 1.2-.1 1.2.7 1.1s.4.4-.3 1.5l-1 1-1 .4c.2.8.3 1 1.3 1.2-2.4 1.6-2.5 4.3-.8 6.6l.8-1.2q0 1.2.7 2c.2.3.3 1.6.6 1.9l.7.8s.4-1 .8-1.1l1.6-.6 1.6-1.4-.2 1.6c3.1-1.2 3.8-3.2 3-6z"/>
  <path fill="#806600" d="m302.7 142.9-.5 1.2.8 1.3.4-1.8c0-.3-.7-.8-.7-.8zm1.6 1.6h-.2q-.3 0-.4.5.3 0 .5-.3h.3l1 .5h1.4l-.2.6-.7.4-.2.3-.3.3v.6h.1q.6.2.6.8h.1l.2.1h.5a1 1 0 0 1 1-.2v-.1l.3-.4v-.3l-.1-.4c0-.3-.4-.8-.4-.8q0-.4.2-.7.5.6 1.2.8.5.3 1 .2h.2l.4.6v-.7l-.5-.1-1-.1-1.1-.8-.2-.2-.2.2-.1 1 .2.7.1.6v.2a2 2 0 0 0-1.3.4 2 2 0 0 0-1-1v-.3l.1-.1.3-.3.7-.5.3-.9v-.2h-1.6l-.9-.3h-.2zm-.8 1a1 1 0 0 0-.1 1.3q.3.5.8.6v.2l-.1.6q0 .7.5 1t1 .4l.7-.2.4.4q.5.4 1 .4a1.4 1.4 0 0 0 1.3-1.2v-.1l1.2-.2q.4-.4.4-1.1c-.3.2 0 .6-.6 1h-.9l-.3-.3v.7l-.2.4a1 1 0 0 1-1 .5l-.6-.1-.4-.6v-.4l-.3.2-.3.2h-.4l-.7-.2-.6-.8.1-.5.2-.3.1-.2h-.3a1 1 0 0 1-.8-.5c-.4-.5 0-.8 0-1.2zm9.2.2s-.8 0-1 .3l-.6 1.7 1.3-.7z"/>
  <path fill="#2b2200" d="M305.1 145.1a.4.4 0 0 0 0 .8.4.4 0 1 0 0-.8m4.2 1.2a.4.4 0 0 0-.1.8.4.4 0 1 0 0-.8z"/>
  <path fill="#377bc8" stroke="#2c5aa0" stroke-miterlimit="103.2" stroke-width=".2" d="M293.8 159.2c-.3 0-.8-.2-1.6.8a1.4 1.4 0 0 1 1.4.6l.6-.4a1 1 0 0 0-.4-1zm21.4 1.2a3 3 0 0 0-2 .8 2 2 0 0 1 1.8.6l.7-.4a1 1 0 0 0-.5-1zm-23 1.4c-.2.3-.8.2-1.2 1.5a1.4 1.4 0 0 1 1.6 0l.4-.7a.7.7 0 0 0-.8-.8zm23.4 2c-.2.4-.8.3-1.4 1.6a2 2 0 0 1 1.9-.1l.4-.7a1 1 0 0 0-.8-.8zm-21.7 1.2-.4.1a3 3 0 0 0-.5 2q.5-.9 1.3-1l.1-.7zm46.4.1-.2.1a3 3 0 0 0-.7 2 1.4 1.4 0 0 1 1.4-.8l.2-.8zm-21.5 1-.5.1a3 3 0 0 0-.4 2.2 2 2 0 0 1 1.6-1.1v-.8zm27 .1q-.4 0-.6.4-.1 1.3.5 2.1-.1-1 .7-1.7l-.3-.8zm-3 .4-.5.4a3 3 0 0 0 .1 2 2 2 0 0 1 1-1.4l-.1-.8z"/>
  <path fill="gold" stroke="#806600" stroke-linecap="round" stroke-linejoin="round" stroke-width=".5" d="M378.7 21.3V21l.8-1.6a9 9 0 0 0-6.9 2 18 18 0 0 0-2.8 3.7 12 12 0 0 0-.8 3.2l-1.9-1.6-1.3-.4a5 5 0 0 0-3.2 1.5 6 6 0 0 0-1.5 3c-.4 1.6 0 3.2-1 4.6l-1.6 1.8a8 8 0 0 0 2.7.6 4 4 0 0 0 2.8-1.5c.6-.8.9-1.9 1.8-2.5a1 1 0 0 1 1.2-.2c.5.2.6 1.2.4 1.6l-1 3.4-1.8-.4-1.4.8-.6.3h0l1.2 1.8.5.2h0l-.4.2-3.3 1.6-.4.2h0l-2.4.1-1.6-.2-2.4-.8-.7-.4-1.3-1.4a12 12 0 0 1-2.1-4.3 6 6 0 0 0 5-5.7v-.8l-.1-.4-.3-1-.3-.6-.6-1-.4-.4a5 5 0 0 0-3.5-1.7h-1.3a6 6 0 0 0-3.2 1.6 6 6 0 0 0-1.4 2.2l-.2.8-.1 1.3h0a6 6 0 0 0 3.2 5.2l-2.7 2.6a15 15 0 0 1-8.7 4 14 14 0 0 1-10.6-3 12 12 0 0 1-2.3-2.8h1.3l1.6-1.6h.1l-.5-.4-1.2-1h-.5l.4-3.8c0-.6.4-1.6 1-1.6a2 2 0 0 1 1.4.8c.8 1 .4 2.1.8 3.2a5 5 0 0 0 2.4 2.6q1.7.5 3.3.4l-.9-2.4c-.6-1.8.5-3.2.8-5a6 6 0 0 0-.2-3.6 6 6 0 0 0-3-2.8h-1.6l-2.8.8s.8-2.4.5-3.6a15 15 0 0 0-1.6-4.8 23 23 0 0 0-3.5-3.7 23 23 0 0 0-3.5 3.7 15 15 0 0 0-1.6 4.8c-.2 1.2.5 3.6.5 3.6l-2.8-.8H311a6 6 0 0 0-3 2.8 6 6 0 0 0-.2 3.6c.3 1.8 1.4 3.2.8 5l-1 2.4q1.7.1 3.3-.4a5 5 0 0 0 2.4-2.6c.5-1 .2-2.3 1-3.2q.4-.8 1.2-.8c.7 0 1.1 1 1.1 1.6l.4 3.7h-.5l-1.6 1.6 1.6 1.5h1.3a12 12 0 0 1-2.4 2.8 14 14 0 0 1-10.6 3 15 15 0 0 1-8.6-4l-2.6-2.6a6 6 0 0 0 3.4-5.2h0a6 6 0 0 0-1.8-4.2 6 6 0 0 0-3.3-1.6l-.3-.2h-1a5 5 0 0 0-3.4 1.8 7 7 0 0 0-1.3 2l-.3 1v1.2a6 6 0 0 0 4.7 5.7 12 12 0 0 1-2.1 4.3l-1.4 1.4-.8.4-2.3.8-1.6.2-2.3-.1h0l-.4-.1-3.4-1.7-.3-.2h0l.5-.2 1.2-1.8h0l-.6-.3-1.4-.8-1.7.4-1.1-3.3c-.2-.5-.1-1.5.4-1.7a1 1 0 0 1 1.2.2c.8.6 1.2 1.8 1.8 2.5a4 4 0 0 0 2.8 1.5 8 8 0 0 0 2.7-.6l-1.6-1.8c-1.1-1.4-.6-3-1-4.7a6 6 0 0 0-1.5-3 5 5 0 0 0-3.2-1.4l-1.3.4-2 1.6a12 12 0 0 0-.7-3.2 18 18 0 0 0-2.8-3.7 9 9 0 0 0-6.8-2l.7 1.6v.3h.1l8.2 18.4-1.1.2-1.2 2 1.9 1 2.4-.6 2 5.8-2 .2h0c-.4.5-.6.5-.6 1h0q0 .6.4 1h0l.3.2h0l.5.3h1l.2 1.3-.1-.1v2l-1.2 2.6L274 59l.8 2.1.6-.4.1.7h-.3l.5 1h0l-.7.2q-.5.4-.5 1h0q0 .4.3 1h0l.8.5q5.8-.8 12.2-1.3l4-.3q10.6-.6 21.3-.6h13.6c4.3 0 13.3 0 21.4.6l2.2.2 2.3.1 5.3.5 6.4.8h0l.3-.2.7-.7v-.6h0q0-.6-.5-1h0l-.7-.1.2-.9h0l.2-.9.5.4.8-2 2-2.4-1.2-2.8V52h-.2l.3-1.3.9.1h0q.3 0 .4-.2.8-.6.8-1.3h0q0-.5-.6-1h0l-2.3-.2 2.2-5.9 2.5.7 2-1-1.2-2-1.2-.2 8.3-18.3h.1z"/>
</svg>
