<svg xmlns="http://www.w3.org/2000/svg" xml:space="preserve" id="flag-icons-kg" viewBox="0 0 640 480">
  <path fill="red" d="M0 0h640v480H0Z"/>
  <path fill="#ff0" fill-rule="evenodd" d="m340.7 146.6 2.7-52q0-.4-.4-.5-.3 0-.5.4l-13.3 50.1-.1.5a5.9 5.9 0 1 0 11.6 1.5m14.4 4.4 10.8-51q.2-.3-.3-.5-.3 0-.5.3L344 147.2l-.2.5a5.9 5.9 0 1 0 11.3 3.3m13.5 6.6 18.7-48.6a.5.5 0 0 0-.8-.4L358.2 152l-.2.4a5.9 5.9 0 1 0 10.6 5m12.3 8.7 26-45a.5.5 0 0 0-.7-.6l-34.7 38.6-.3.4a5.9 5.9 0 1 0 9.7 6.6m10.8 10.4 32.8-40.4v-.6h-.7l-40.3 32.6-.4.4a5.9 5.9 0 1 0 8.6 8m9 12 38.7-34.8q.3-.3 0-.7h-.6L394 179l-.4.2a5.9 5.9 0 1 0 7.2 9.3m7 13.3 43.7-28.4a.5.5 0 0 0-.4-.8l-48.4 18.6-.5.3a5.9 5.9 0 1 0 5.6 10.3m5 14.2 47.5-21.2a.5.5 0 0 0-.3-.8l-50.7 10.8-.5.1a5.9 5.9 0 1 0 4 11m2.5 14.9 50.4-13.4q.3-.1.3-.5-.1-.4-.5-.4l-51.8 2.7h-.5a5.9 5.9 0 1 0 2.1 11.6m.3 15 51.8-5.4q.4-.1.4-.5 0-.3-.4-.5l-51.6-5.4h-.5a5.9 5.9 0 1 0 .3 11.8m-2.1 14.8 52 2.7a.5.5 0 0 0 .1-.9l-50.1-13.3-.5-.1a5.9 5.9 0 1 0-1.5 11.6m-4.4 14.4 51 10.8q.3.2.5-.3 0-.3-.3-.5l-47.5-21-.5-.2a5.9 5.9 0 1 0-3.3 11.3m-6.6 13.5 48.6 18.7a.5.5 0 0 0 .4-.8L408 278.2l-.4-.2a5.9 5.9 0 1 0-5 10.6m-8.7 12.3 45 26a.5.5 0 0 0 .6-.7l-38.6-34.7-.4-.3a5.9 5.9 0 1 0-6.6 9.7m-10.4 10.8 40.4 32.8a.5.5 0 0 0 .7-.7l-32.7-40.3-.4-.4a5.9 5.9 0 1 0-8 8.6m-12 9 34.8 38.7a.5.5 0 0 0 .8-.6L381 314l-.3-.4a5.9 5.9 0 1 0-9.3 7.2m-13.3 7 28.4 43.7q.2.3.6.2.3-.2.2-.6l-18.6-48.4-.3-.5a5.9 5.9 0 1 0-10.3 5.6m-14.2 5 21.2 47.5q.1.5.5.3.4 0 .3-.6l-10.8-50.7-.1-.5a5.9 5.9 0 1 0-11 4m-14.9 2.5 13.4 50.4q.1.3.5.3.4-.1.4-.5l-2.7-51.8v-.5a5.9 5.9 0 1 0-11.6 2.1m-15 .3 5.4 51.8a.5.5 0 0 0 1 0l5.4-51.6a6 6 0 0 0-5.9-6.4 6 6 0 0 0-5.9 6.2m-14.8-2.1-2.7 52a.5.5 0 0 0 .9.1l13.3-50.1.1-.5a5.9 5.9 0 1 0-11.6-1.5m-14.4-4.4-10.8 51a.5.5 0 0 0 .8.2l21.1-47.4.2-.5a5.9 5.9 0 1 0-11.3-3.3m-13.5-6.6L252.7 371q-.1.4.2.6t.6-.2l28.3-43.5a6 6 0 0 0-2.3-8.3 6 6 0 0 0-8 2.8m-12.4-8.6-26 45a.5.5 0 0 0 .7.6l34.7-38.6.3-.4a5.9 5.9 0 1 0-9.7-6.6m-10.8-10.4-32.8 40.4v.6q.4.3.7 0l40.3-32.6.4-.4a5.9 5.9 0 1 0-8.6-8m-9-12-38.7 34.8a.5.5 0 0 0 .6.8l44.9-26 .4-.3a5.9 5.9 0 1 0-7.2-9.3m-7-13.3-43.7 28.4a.5.5 0 0 0 .4.8l48.4-18.6.5-.3a5.9 5.9 0 1 0-5.6-10.3m-5-14.2-47.5 21.2q-.5.1-.3.5 0 .4.6.3l50.7-10.8.5-.1a5.9 5.9 0 1 0-4-11m-2.5-14.9-50.4 13.4a.5.5 0 0 0 .2 1l51.8-2.8h.5a5.9 5.9 0 1 0-2.1-11.6m-.3-15-51.8 5.4a.5.5 0 0 0 0 1l51.6 5.4h.5a5.9 5.9 0 1 0-.3-11.8m2.1-14.8-52-2.7a.5.5 0 0 0-.1.9l50.1 13.3.5.1a5.9 5.9 0 1 0 1.5-11.6m4.4-14.4-51-10.8q-.3-.2-.5.3 0 .3.3.5l47.4 21.1.5.2a5.9 5.9 0 1 0 3.3-11.3m6.6-13.5L189 172.7a.5.5 0 0 0-.4.8l43.5 28.3.4.2a5.9 5.9 0 1 0 5-10.6m8.7-12.3-45-26h-.7q-.1.3.1.7l38.6 34.7.4.3a5.9 5.9 0 1 0 6.6-9.7m10.4-10.8-40.4-32.8h-.6q-.3.3 0 .7l32.6 40.3.4.4a5.9 5.9 0 1 0 8-8.6m12-9-34.8-38.7a.5.5 0 0 0-.7.6l26 44.9.2.4a5.9 5.9 0 1 0 9.3-7.2m13.3-7-28.4-43.7a.5.5 0 0 0-.8.4l18.6 48.4.3.5a5.9 5.9 0 1 0 10.3-5.6m14.2-5-21.2-47.5a.5.5 0 0 0-.8.3l10.8 50.7.1.5a5.9 5.9 0 1 0 11-4m14.9-2.5-13.4-50.4q-.1-.3-.5-.3-.4.1-.4.5l2.7 51.8v.5a5.9 5.9 0 1 0 11.6-2.1m15-.3-5.4-51.8a.5.5 0 0 0-1 0l-5.4 51.6v.5a5.9 5.9 0 1 0 11.8-.3m-5.9 6.3a89.2 89.2 0 1 1 0 178.4 89.2 89.2 0 0 1 0-178.4m0 10.7a78.5 78.5 0 1 1 0 157 78.5 78.5 0 0 1 0-157m-65.6 102a155 155 0 0 1 32-44l6 4a155 155 0 0 0-34.1 48.4 70 70 0 0 1-3.9-8.3m71.1-40.6q2.8 2.3 5.4 4.8l5.8-4.5-5.4-4.7zm-11.4-8.7 5.9 4.3 5.9-4.3-5.9-4.3zm.6 18.3 5.3 5 5.3-5-5.3-5zm-11.4-9.3q3 2.2 5.8 4.5l5.4-4.8-5.8-4.4q-2.7 2.2-5.4 4.7m35.2-16.9q-3-2.3-6-4.3l-6.7 4 6 4.3zm10.4 8.6-5.3-4.6-6.4 4 5.5 4.6zm-36-16.6q3.5-2.3 7.1-4.3l7 4.3-7 4zm-11.5 8q3-2.3 6-4.3l6.7 4-6 4.3zM291 215l5.3-4.6 6.4 4-5.5 4.6zm-32.7-10.2a157 157 0 0 1 21.5 10.6 153 153 0 0 0-28.6 37.4 71 71 0 0 1 7-48m6-9.2q13 4.2 25.6 11l-5.3 4.6q-11.6-6.4-23.6-10.8 1.6-2.6 3.3-4.8m7.5-8.3q14.6 4 29.2 11.3l-6 4.2q-13.5-6.7-27.3-11.2zm11-8.4.6.2.8.2q14.8 4 29.7 11.5l-7.4 4.3a187 187 0 0 0-30.2-11.6q3-2.5 6.4-4.6m68.6-3.4-.8.3q-15.4 4.5-30.5 11.8-14.8-7.2-30-11.7l-.5-.1q-.5 0-.8-.3a70 70 0 0 1 62.6 0m12.5 8-.7.2q-15 4.4-29.6 11.4-3.6-2.3-7.4-4.3a145 145 0 0 1 31.3-11.9q3.4 2.2 6.4 4.6m8.5 8q-13.8 4.5-27.2 11.3l-6-4.2q14.5-7.4 29-11.3zm6.7 8.8q-12 4.4-23.6 10.8l-5.3-4.5q12.6-7 25.6-11 1.8 2.1 3.3 4.7m9.7 52.4a153 153 0 0 0-28.6-37.4 157 157 0 0 1 21.5-10.6 70 70 0 0 1 7.1 48m-7 19.1a155 155 0 0 0-34-48.3q3-2.2 6-4.1a157 157 0 0 1 31.9 44 70 70 0 0 1-3.9 8.4m-10.9 15c-8.6-22-20.6-39.9-34.7-54.2l5.6-4.7c14.6 14.4 27 32 35 51.9a71 71 0 0 1-5.9 7m-13.3 10.9-.9-2.5c-7.7-21-18.6-38.2-31.4-52.3l5.3-5.3a151 151 0 0 1 34 55 71 71 0 0 1-7 5m-67.9 4 .9-2.8c6.5-19 16.8-36 29.5-50.3 12.7 14.4 23 31.3 29.5 50.3l1 2.8a70 70 0 0 1-60.9 0m-14.1-9a151 151 0 0 1 34-55l5.3 5.3a158 158 0 0 0-31.4 52.3l-1 2.5a70 70 0 0 1-7-5m-12-13c8-19.9 20.3-37.4 34.9-51.8l5.6 4.7a157 157 0 0 0-34.7 54.2q-3.1-3.4-5.9-7"/>
</svg>
