<svg xmlns="http://www.w3.org/2000/svg" xmlns:xlink="http://www.w3.org/1999/xlink" id="flag-icons-lk" viewBox="0 0 640 480">
  <path fill="#ffb700" d="M0 0h640v480H0z"/>
  <path fill="#ff5b00" d="m26.7 240 88-213.3h88v426.6h-88z"/>
  <path fill="#005641" d="M26.7 26.7h88v426.6h-88z"/>
  <path fill="#8d2029" d="M229.3 26.7H616v426.6H229.3z"/>
  <path id="lk-a" fill="#ffb700" stroke="#000" stroke-width="1.1" d="M579.3 408.6s3.6 7.3 7.6 10.4c6 4.4 18 4 23.3 9.3 6.1 6.1-.5 14.2-.5 15l.4 4.2s-4.2 0-6 .3c-2.6.4-3.6 2.6-8.6 2.3-12.3-.8-11.8-12-12.5-21.5-.6-3.6-2-8.4-2.9-12-.7-3-.8-8-.8-8z"/>
  <use xlink:href="#lk-a" width="100%" height="100%" transform="matrix(-1 0 0 1 845.3 0)"/>
  <use xlink:href="#lk-a" width="100%" height="100%" transform="matrix(1 0 0 -1 0 480)"/>
  <use xlink:href="#lk-a" width="100%" height="100%" transform="rotate(180 422.7 240)"/>
  <g transform="translate(0 -76)">
    <use xlink:href="#lk-b" width="100%" height="100%" stroke="#000" stroke-width="5.6"/>
    <g id="lk-b" fill="#ffb700">
      <path d="m363.5 415.8 2.3-1.4 1 1.4c1.3 1.8 5 1.7 7.4 0l1.9-1.5 1.6 1.4c2 1.9 5.8 1.9 8.3 0 1.7-1.2 2-1.3 3-.3.7.6 2.7 1.2 4.4 1.5 3.2.4 3.2.4 5-2.4 1.6-2.3 1.8-3.2 1.5-5.5l-.6-5.3c-.2-2.6-.1-2.6 3.6-4l5.4-2c1.5-.9 5.7-5.8 5.7-6.8 0-.2-1.6-.6-3.6-.8q-12-1.4-4.1-13c8.3-13 13.4-25.5 13.4-33.4q0-5.3.7-4c1.9 3.1-1.5 16.4-6.5 26l-2 3.8 1.9-.4c1-.3 7.4-3 14-6 18.2-8.2 24.4-9.8 36.2-9.3 9.9.4 14 2.3 21 9.6 3.7 4 7.3 6.7 13.8 10.8 13.8 8.6 14.4 9.4 15.1 19.6s.3 10.9-7.5 12.6q-10.2 2.3-12 9-1 3.4 4 .1l2.5-1.6 1.1 1.6c1.5 2.1 4.5 2.1 7 0l2-1.5 2 1.5c3 2.5 7 1.9 8.2-1.2q.3-.8 2 .7c2.3 2 8 2.8 8.6 1.2.2-.6-.2-2-1-3.2-3.3-5-4.4-7.3-4.4-10 0-3.8 1-5.7 5.4-8.7 5.2-3.8 6.8-8.6 2.8-8.6-2.4 0-4.9-2.2-6.5-5.7-3.2-7.2-2.5-15.2 2.3-28.6a58 58 0 0 0 5.4-25.2c0-7.4-.2-8.6-1.8-12.7a45 45 0 0 0-4.6-8.1l-2.8-3.7 3.5-3c10.8-8.9 8.6-23.5-4.4-29.1-4-1.8-5-1.9-12-1.9-4 0-10.5.6-14 1.3a98 98 0 0 1-14.2 1.2c-6.8 0-8-.2-10.6-1.6-2.7-1.4-3.2-2.1-3.7-5.5a2 2 0 0 0-1.1-1.5c-1-.3-5.2 3.4-5.8 5-.4.9-.6.8-1.5-.3a13 13 0 0 1-2-3.6q-1.6-4.9 4.2-7.6l3-1.4-1.8-1.1c-3.6-2.3-9.8-.7-12 3-.7 1-1.4 2-1.6 2s-1.4-1-2.6-2.3c-4.7-4.6-3.1-11.4 3.2-13.4 3.3-1.1 6.3-.3 6.9 2 1 3.3 3.8-1.1 3.3-5.2-.3-2.7-.3-2.8 1.6-2.8 2.6 0 8 3.4 9.8 6 2 3.1 1.8 8-.4 11.6l-1.7 2.8 2.3-.4c3.2-.7 6.4-2.7 8-5.2a12 12 0 0 0 .4-10.4c-1.5-2.7-1.3-3.1.9-2.2 3.6 1.5 5.6 3.2 7 6.1 1.4 2.6 1.5 3.2.8 6a17 17 0 0 1-2.2 4.8c-1.2 1.6-1.3 1.9-.3 1.9 1.8 0 5.4-1.7 6.7-3 .7-.8 1.7-2.5 2.2-4l1-2.5 1 2c1.5 2.7 4.5 5.2 8.1 6.8 3.9 1.6 5.5 1.7 3.5.2-1.4-1-4-8.5-3.1-9.2a51 51 0 0 1 11.7 9c5.7 5.1 9.3 6.8 14.5 6.8 6.7 0 10.6-5.8 7.6-11.3-1.7-3.2-5.6-3.7-8-1q-1.5 1.8-1 3.7c.4 1.6.3 1.8-1.2 1.8-2 0-5.8-2.5-12.6-8.2a102 102 0 0 0-32.1-18.7 70 70 0 0 0-24.3-1.3c-6.4 1.2-14 4.9-18.2 8.8-7.3 7-7.4 16.3-.3 24.8l2 2.4-1.3 2.2a9 9 0 0 0 .4 10.4c1 1.4 2 2.5 2.3 2.5q.3-.2.5-2 .3-4.1 3.4-5.2c1.8-.7 3-.3 11.2 3 8.7 3.4 23 3.6 38.2.6a43 43 0 0 1 20 .2c7.2 3 8.8 10.7 3.6 16.5-2.3 2.6-4.4 3.6-11.7 5.6a54 54 0 0 1-19.5 1.5c-10.8-.1-14.7.1-19 1-4.9 1-7.8 1.1-21.8.8l-16.3-.4 1.8 1.4 3.1 2.3c1.3.7 1.2.8-.6 1.5-1 .4-3.4.7-5.3.7h-3.3l-.4 2.8a10 10 0 0 0 0 4q.6 1.4-.8.8c-.7-.3-2.6-.8-4.3-1.1a27 27 0 0 1-5-1.6c-1.9-1-2.1-1-2.8.3-.6 1-6.2 5.2-7 5.2a27 27 0 0 0-2.2-7.5c-1-2.1-1.9-4.5-2.2-5.2q-.4-1.6-1-.3c-.3.5-.7 2-1 3.2a16 16 0 0 1-1.8 4.6l-1.5 2.2-1-1.9c-1-2-2.6-4.2-3.2-4.2q-.3 0-.7 1.5c-.5 1.6-4.4 6.3-5.4 6.3-.3 0-.6-1.3-.6-3 0-1.5-.3-2.9-.7-2.9q-.6.1-.7 1c0 1.2-3.3 5-4.5 5q-.8 0-1.7 1c-1.2 1.3-2.2 1.1-1.7-.4a9 9 0 0 0-.4-3.8l-1-3.2q-.2-.7-4 .5c-4 1.3-5.4 1-3.3-.6.8-.6 2-2.7 2.6-4.6.7-2 1.7-3.7 2.2-3.9q1.1-.4-.2 1.2a6 6 0 0 0-1.1 2.6c0 .5-.5 1.8-1 2.9s-1 2-.9 2.1 1.7-.5 3.5-1.3l3.2-1.6v1.4c0 .8.4 2.8.9 4.5l.9 3 2.2-1c2.2-1 4.3-4.6 4.3-7.5 0-1.4.8-1.2 1.2.3 0 .4.6 2.1 1 3.7l1 2.8 1.5-1.8c.9-1 1.9-3 2.3-4.3.8-2.4 2-3.5 2-1.7 0 1.2 3.4 5.8 4 5.4.4-.2 1-1.9 1.5-3.8 1-4 2.5-6.6 3.5-6q.6.4.3 1c-.2.2.6 2.8 1.8 5.6l2.6 6.3c.4 1 .8 1 3.3-1.3 1.5-1.4 3-2.9 3.1-3.4.3-.8.6-.7 2 .2a25 25 0 0 0 9.5 2.8c.2-.2.4-2 .4-4l.1-3.7 2 .4c1 .3 3.3.3 5 0l3-.4-2.7-2c-1.5-1-3-2.3-3.4-2.9s-1.7-1.2-3.2-1.3c-4.1-.4-11.4-4.4-11.4-6.4q.2-.4 2.2 1.4c2.8 2.5 6.6 4 10 4h2.4l-1.5-2a12 12 0 0 1-2-5.2c-.2-3-.5-3.4-3.6-5.5a35 35 0 0 1-5-4.3l-1.7-1.9-.9 2.3q-.8 2.1-1.3 2.3c-.2 0-1.2-.8-2-1.7a7 7 0 0 0-2-1.6c-.3 0-1 1.2-1.8 2.7l-1.4 2.7-1-1.5a24 24 0 0 0-3-3.4q-1.9-1.6-1.3-1.8c.4 0 1.7 1 3 2.3l2.2 2.3 1-1.7a6 6 0 0 0 .5-3.8q-.6-2.6.3-.7a16 16 0 0 0 3 3l2.2 1.8 1.5-2.7c1.5-2.8 1.5-2.8 2.1-1.1 1 2.1 7.5 7.5 13 10.6q1.5.8-1-5a13 13 0 0 1-.8-4c0-1.8-.5-2.6-2.8-4.4a11 11 0 0 1-5-8.4c-.3-1.7-.9-3.5-1.4-4.1q-.9-1.7-.6 2.6c.2 2.1-.1 4.7-.6 5.8l-.8 2-.6-1.7c-.4-.9-2-2.5-3.5-3.5s-2.6-2-2.4-2.2 1.8.7 3.5 2c2.7 2.1 3.2 2.3 3.6 1.4.4-1 0-5.6-.8-8.8-.4-1.6-.4-1.6 1.6.4q2 1.9 2.9 6.2c.8 3.8 1.2 4.5 4.7 7.6 2.1 1.9 4 3.3 4.1 3.2.2-.2.4-5 .6-10.8.4-11.1 0-13.8-2.7-17.2l-1.4-1.8 2.2-2.3a16 16 0 0 0 4.7-8.8l.4-2.7-2.4 2.3c-2 1.9-3 2.3-5.3 2.3s-3.2-.4-4.7-2a20 20 0 0 0-8.3-4.8q-1.7-.6-1.6.6c0 .6-.6 2.2-1.4 3.7l-1.4 2.6-3-3c-1.9-1.7-4-3.2-5.7-3.6-4.1-1-4.3-1-4.3 2.1q-.1 7.1-5.6 2.5c-2.8-2.4-5-3-10.3-2.3l-4 .4.7 1.8c.6 1.5.5 2.2-.8 3.9-2.1 2.8-4.8 4-9 4-2 0-4.4.4-5.4.9s-3.6 1-5.7 1.2c-2 .2-4.3.6-5 .8-1 .4-1 0-.7-2.2.5-3.4-2-6-5.7-6-4.9 0-7.1 4.4-5.2 10.2l1 3.8a23 23 0 0 0 5.2 6.6c2.6 2.6 5 5.3 5.4 6a9 9 0 0 0 3 2.5l2.2 1.2-.3-2.4q-.5-4 1.6-1.1c.5.6 1.8 1.7 2.8 2.3 1.7 1 2 1 2 .2 0-.6.3-1.9.7-2.9l.7-1.8 1.3 2.5c.7 1.4 3 4.5 5.1 7 4.1 4.7 6.7 10 5.4 11.2-.6.5-2 .5-5-.1-2.2-.4-5-.7-6.2-.5-2.3.3-2.5 0-1-1.8 1.5-2 1.2-2.3-1.8-2.3-3.5 0-12.2-1.7-15.6-3-3.2-1.3-4-1-5 2.1l-1.7 5.6-1 3 3.6-.3a37 37 0 0 0 5.5-1 6 6 0 0 1 2.2-.3c.2.1-.3 1.3-1 2.7l-1.4 2.4 2.2-.4c1.2-.3 3-.9 4-1.4 1.8-.8 2-.8 3.4 1.5q2.7 4 3.3-.3.4-4.6 3.2 1.4c1.8 3.8 3.6 5.2 4 3q.3-1.4 2.1-2.8 3.3-2.2 4.7 1.3c1 2.5-1.2 5-7.4 8.8a43 43 0 0 0-21.7 31c-1.9 11.8 4 24 15.6 32.9 5.6 4.2 14.5 8.6 13.9 7-2.4-7.3-2.3-21 .1-23.3.4-.4.3 1-.3 3.1-2 7.9-1 14.1 4 28.7 4.4 13.2 3.8 18.9-2.6 22.6-2 1.2-3.3 1.4-8.8 1.3-6 0-6.7 0-8.6 1.6a16 16 0 0 0-4.3 8.6q0 1.9 4-.4z"/>
      <path d="m460.5 415.5 2.5-1.6 1.7 1.6c2.2 2.1 4.9 2 7-.1q1.6-1.6 1.9-1.5l.9 1.6q.7 1.3 3.6 1.5c2.3.1 3 0 4-1.4l1-1.7 2.5 1.6c6.8 4.4 10.4-.2 7.3-9.3-1.5-4.6-.6-7.2 4.3-13 2.1-2.5 3.8-5.2 3.8-6 0-1.1-.4-1.3-3.2-1.2-2.6 0-3.4-.3-4.8-1.8q-3.4-3.8.4-8.6l2-2.5-3.6-2.4a60 60 0 0 1-8-7.1 26 26 0 0 0-17.5-9l-4.7-.5v3.6c0 4.5 2.2 8.9 8 16.3 6.6 8.4 7 9.7 7.3 20.7l.3 9.3-2 1.8c-1.7 1.6-2.4 1.9-8 2.2-5.3.3-6.5.6-8 2a9 9 0 0 0-3.4 5.3c-.3 1.5-.2 1.8.9 1.8.7 0 2.4-.7 3.8-1.6m-142.2-24a6 6 0 0 0 1-3c0-1 .6-1.4 3.2-1.8l3.1-.4-2-1.7c-2.5-2-2.8-3.5-.6-3.5s5.8-2.2 6.4-3.9q.3-1.4-.4-2.3c-1.2-1.4-3.5-1.2-3.9.4-.5 1.6-1.2 1.6-3 0-2.5-2.5-2.6-7.6 0-10.6 1.1-1.4 1.1-1.4-.4-2.9-1.6-1.6-2.8-4.6-2-5.4.2-.2 1.5 0 2.8.5 2 .6 2.7.6 3.5 0 2.3-1.9-.2-4.3-4-3.7q-2.2.4-2.4-.8c-.2-.6-1.5-1.4-3-1.8-2.7-.7-2.7-.7-2.7 1.2q0 3-3.4 1.1c-1.8-1-3.5-.2-3.5 1.7q0 2.7 5 2.4c2.4-.1 2.5 1.7.2 4.3l-1.7 2 1.3 1.9c2 2.8 1.8 7.5-.3 9.9l-1.7 1.8-1.1-1.5c-1.6-2-3.7-1.9-4.3.3-.3 1.4 0 2 1.8 3.6 1.2 1 3 1.8 3.9 1.8 2.3 0 2.2 1.9-.2 3.7l-2 1.5 3 .4c1.6.3 3 .7 3 1 0 1.3 2 5.2 2.6 5.2q.8-.2 1.8-1.5z"/>
      <path d="M356.5 374.9c2.7-1 8.5-6 8.5-7.1 0-.4-1.6-2.2-3.6-4-4-3.6-8.5-9.9-9.7-13.5-.6-2-3.5-5.2-11.7-13.2l-10.9-10.5-3.1.8c-1.8.4-3.9.8-4.7.8-1.5 0-1.5 0 .5 1.6l2 1.6 3-1.6c2.7-1.6 2.8-1.6 3.1-.3.2.7-.2 2-1 2.9-.7.9-1.1 2-1 2.3q.3.6-1.5 1.6c-2 1-3.5 4.3-1.9 4.3 1.5 0 4.7-4 4.3-5.3q-.2-1.2.2-1.6c1.3-.7 1.2 2.4 0 4-.8.8-1.2 1.8-1 2.2q.2.6-1.6 1.6c-2 1-3.5 4.3-1.9 4.3s4.7-3.8 4.4-5.2q-.3-1.2.1-1.7c.9-.4 1.3 2 .6 3.2a2 2 0 0 0 0 2.2c.7 1.3 0 3.7-1.3 4.5q-.8.5 1.2 2c2 1.4 2 1.6 2 8 0 5.4.2 6.8 1.2 7.7q1.3 1.5 1.2 0c-.1-1.5 2-2.4 3.5-2.4.5 0 3.4 2.5 6.5 5.5s6.4 5.7 7.3 5.8l2.2.4c.3 0 1.7-.3 3.1-1zm-33.3-26.1c0-1.7-3.6-3.6-7.9-4-3.5-.5-3.5-.4-3.5 1.3 0 1.4.5 2 3 3 3.8 1.7 8.4 1.5 8.4-.3"/>
      <path d="M327.1 348.6c1.8-1.6 2.6-3.4 1.5-3.4s-4.4 2.8-4.4 4c0 1.6.6 1.5 3-.6zm-3.7-5.1q.3-1.3-2.3-2.5c-4-1.7-8.6-2.6-9.7-1.7-2.1 1.7-.7 3.9 2.6 4.3 1.4.1 3.2.5 4.1.9 2.6 1 5 .5 5.3-1m0-5.3c.2-1.3-.7-1.8-8-4.4-5.5-2-7.9-1-6.1 2.3.6 1.1 1.6 1.6 3.9 2 1.7.2 4 .7 5.1 1.1q4.6 1.5 5-1zm3.6-4.9c1.1-1.1 2-2.4 2-3 0-1.5-4.3 1.3-4.9 3.3q-.8 3.5 3-.3zm-3.6-.3q.3-2.4-7.6-4.1-5.8-1.3-5.3 1.4c.2 1 1.5 1.7 5 2.8 5.9 1.8 7.6 1.8 7.9-.1m5-7.4c6.8-3 7.3-10.5 1-12.5q-3.8-1.2-5.2 1.4c-.8 1.4-.3 3.8.7 3.8q.6.1.7 1c0 2.7-10.2 3.8-14.4 1.7-1.5-.7-2-2.7-.9-2.7 1 0 1.6-2 1.1-3.3q-1-3-5.3-1.8c-6.3 1.6-6.1 9 .3 12a34 34 0 0 0 22 .4"/>
      <path d="M324.3 319.8q.5-.7-.4-1.4-2-1.8.2-4.7c1.2-1.4 1.3-3.6 1.7-25.1.7-37.1 3.5-65 7.1-71.8 1.5-2.6 1.3-2.6-2.5 0a36 36 0 0 0-11.7 13.6c-6.2 11.5-8.3 27-8.3 60.2 0 18.8.1 21.3 1.2 23 1 1.8 1 2.4.4 4.2-.5 1.1-.7 2.3-.5 2.5 1.4 1.3 11.4 1 12.8-.5m56.1-35.4c.3-.3-.2-2-1-3.6-1.2-2.6-1.7-3-3.4-3a65 65 0 0 1-23-6.4c-5.1-2.3-7-2.8-7.5-2.2-1.6 1.5 1 5 5 6.9a64 64 0 0 0 18.3 3.7c2.7 0 2.8 0 1.2 2.3l-1 1.6h3l5 .6c3 .7 3 .7 3.4.1"/>
      <path fill="#000001" d="M412 301.1c0-1-2.9-3.5-5.7-5.2-2.3-1.3-2.7-1.4-2.7-.3 0 1.6-1.4 5.7-2 5.7q-.6-.2-1-1.7c-.3-1-1.4-3-2.5-4.3l-2-2.5-1.4 2.3c-1.4 2.2-3.9 4.3-5 4.3-.2 0-.3-1.2 0-2.5q.2-2.6-.5-3t-.8.2c0 .8-3.4 4.6-4 4.6q-.6-.1-1-2.4l-.8-4.8q-.2-1.7 1 2l1.6 4.1 1.6-2.5a11 11 0 0 0 1.6-3.4q0-.8.7-.5c.4.2.9 1.9 1.1 3.7l.5 3.4 1.8-2 2.6-3.2c.7-1.2.8-1.2 2.3 0 .8.8 2.1 2.5 2.9 3.9s1.5 2.4 1.6 2.3l.6-3.2.4-3c.1-.5 5.4 3 7.4 4.7 1.2 1.1 2.4 1.9 2.6 1.7s.4-1.8.4-3.7c0-2.8-.3-3.6-2-5.1-2-1.8-2-1.8-2.8-.5-1 1.7-2.1 1.7-2.1 0 0-1.2-3.8-5.9-4.7-5.9q-.6.2-1.8 2.3c-1.2 2.1-1.5 2.3-1.7 2.3-1 0-6.3-6-6.3-7q0-1.3 1.3.8a21 21 0 0 0 3.1 3.6c2 1.8 2.8 1.4 3.6-2.1q.5-1.6 1-1.8c.8 0 5.4 4.9 6 6.5l.7 1.6.5-1.8q.9-3.2 2.3-.2c.4.8 2.4 2.6 4.4 3.8l3.7 2.4.7-2.4q.8-2 1.2-1.6c.4.5-.6 4.5-1.3 5.3 0 .1-1.3-.6-2.6-1.5l-2.5-1.8v3.2c0 1.7-.2 3.8-.4 4.6-.5 1.6-1.7 2-1.7.6zm-18.5-25.4c-4.4-3.6-5-4.4-5-6.2l.1-1.8.3 1.7c.2 1 1.4 2.6 2.8 3.8l2.6 2 1.5-1.8c.9-1 1.6-2.2 1.6-2.6 0-1.2.2-1.1 3.2 1.5 2.6 2.3 2.7 2.3 3 .8.3-.8.2-2.4 0-3.5q-1.5-4.4.5-1.6l2.4 2.8c1 1.1 1.1 1.1 1.5-.3.3-.9.5-2.4.5-3.4v-1.9l2.3 2.7c2.3 2.6 2.5 2.7 3.1 1.4.5-.7.8-2.4.8-3.7q0-2.6.6-1.6c.8 1.2.3 4.2-1.1 6.8l-1 2-1.3-2.1c-1.7-2.6-2.3-2.6-3.3.2q-1.4 4-2.7.8c-.6-1.3-.8-1.1-1.2 1.7l-.5 3-3-2.3-3-2.3-1.5 1.5c-.7.9-1.3 2-1.3 2.4q-.1 1.5-1.9 0m39-13.6c-1.5-1.4-2.6-2.8-2.4-3q.5-.5.6-.2l3 3c3.4 3.6 2.7 3.7-1.1.2zm-52-5.4c-1.4-2-1.3-3.2.5-5.4 1.2-1.5 1.8-1.7 4-1.4 1.5.1 4.6 1.4 6.9 2.8a21 21 0 0 0 11 3l-1.7-2.8q-3.4-4.8.4-1.7c2.6 2.1 5.7 2.7 12.7 2.5l3.4-.1-2-2c-2.7-2.7-1.9-3 1.2-.3 2.8 2.5 2.7 2.7-3.4 3.3a23 23 0 0 1-7.6-.5c-3.4-1-3.6-.9-2.9.2q.7 1.1 1.3 1.2t.7.8c0 1.3-7.4.1-11-1.6-8-4.1-9-4.5-11-3.9a4 4 0 0 0-2.4 2.3c-1.3 3.3 3.4 5.9 5.3 3 .6-.9.5-1.4-.5-2.5q-2.1-2 .6-1c1.3.5 1.4 3.6.2 4.8-1.3 1.3-4.5 1-5.7-.7"/>
      <path fill="#000001" d="M412.4 248.6c-1-1-.2-1.2 4.3-1.3 5.6-.1 9-1 13-3.6 3.2-2 4.1-1.6 1 .5-2.7 2-7 3.4-11.3 3.8l-5.1.7q-1.4.3-2-.1z"/>
    </g>
  </g>
</svg>
