<svg xmlns="http://www.w3.org/2000/svg" id="flag-icons-me" viewBox="0 0 640 480">
  <path fill="#d3ae3b" d="M0 0h640v480H0z"/>
  <path fill="#c40308" d="M24 24h592v432H24z"/>
  <path fill="#b96b29" d="M424.5 236.1a58 58 0 0 0 19.4-9.2c7-5.6 8.3-10.1 8.8-12.5s.8-4.3-1-3c-1.8 1.4-7.1 5.6-10.7 7.6-3.7 2-7 3-9 3.6-2 .5-3.6.9-1.7.1 2-.7 8.1-2.9 13-7.7 4.7-4.8 8.5-12 8.6-16.4s-.3-4-1.7-3c-1.4 1.1-6.4 7.3-9.3 9.7a90 90 0 0 1-9.7 6.9c-2.3 1.3-5.5 2.8-1-.3s13-10.3 16.5-19.7a35 35 0 0 0 2.7-15.8c0-1-.8-2.8-1.6-1.1s-6.5 13-11 18c-4.6 4.8-3.5 3.9-4.6 4.7s-2.7 2.2-.5-.6a51 51 0 0 0 12.2-31.7c0-3.6-1.5-8.6-2.2-10.1s-1.4-2.6-1.7-.9a191 191 0 0 1-5.8 18.4 75 75 0 0 1-6.7 12.8c-.8 1.1-2.8 3.6-.6-.5a77 77 0 0 0 7-27.6 44 44 0 0 0-2.6-20.9c-1.6-3.1-3-4.2-3-4.2s.3 7.8-2 19-5.7 17-5.7 17-1.5 1.7-.5-1a62 62 0 0 0 1.4-34.5c-2.3-7.5-6.2-11.3-6.2-11.3-1 10.7-.9 24.5-4.8 35.7-.7-.7-1.7-1.9-2.1.6a63 63 0 0 1-7 19.4c-4.8 8.8-6.8 10-6.8 10l-1.5-3.4c-.6-1.2-1-1.8-1.8-.2s-3.5 7.8-9.4 14.6-9.2 10.2-9 15.3c.1 5 2.8 7.7 6.4 10s4.2 3.6 3.7 6.4-3.8 3.7-6.6 3.8-6.2-.1-7.5.6-1.3 2.5-2.6 3.7c-1.2 1.3-1.8 2-3 2.2l-1 .1c-.2-13.5 5-19.5 5-19.5l-14.6-17.1-2.2 1-.4-.6a11 11 0 0 1-2.6-7.8c.7 0 2.2.6 3.5.3s.3-1.6 0-2.8c-.5-1.3-.9-5.7-.6-7.3l.4-2.3s2.1 2.3 3.4 2.3 1.2-1.3 1.4-2.8c.3-2.2 1.3-5 3-6.5 0 0 2.4 1.6 5 1.6s6.2-.7 9-3.5c3-2.7 2.9-3.3 2.9-3.3s5.3 1.8 9.3 2 8.3-.4 10.4-4.7-.6-8.2-1-8.8c-.6-.7-1.9-1.2-1.9 0s.1 4.4-2.4 6c-2.4 1.6-4.3 1.5-6.6.8a21 21 0 0 0-13.1-.4 17 17 0 0 1 6.1-4.2c3-.9 4.8.4 5.8 1.6s1.9 3 2.7.3.3-6-1-8a8 8 0 0 0-7.2-3c-3 .2-4 .7-4 .7s-1.5-4.3-5.3-5a21 21 0 0 0-14 3s-3.1.7-6.4-.2a21 21 0 0 1-5.4-2.8l1.1-3.5 1.9-.6c1-.4.7-.7.9-1.5.1-.8-1.8-2.2-1.8-2.2s-.3-2.5 2.9-4.1l2.8-1.4s1.9.3 2.6-.2.8-1 .8-1 1.4-.4 2-1.2q.6-1.5.2-3.1c-.4-1-.9-1.2-.4-1.7s1-1.6 1-2.4l.1-1s1.1-.4 1-2c0-1.7-.9-2.3-1.4-2.5l-.9-.1s0-1-.9-2.3l-1.4-2c-.1 0 .6-.4.3-1.5s-1.1-1.7-1.9-2c-.7-.2-1.5 0-1.5 0l-3.7-2.1-1.5-.8s0-1-.4-1.6c-.5-.5-1.5-.8-2-.8s-1 .3-1 .3l-6-1.4c-1.8-.2-1.9-.4-1.9-.4s-3.8-1.8-5.2-2l-2-.5s1.6-1.8 1.7-4a6 6 0 0 0-2.8-5l-1.6-.8V93l2.8.3.2-4.6-2.7.3.4-2.7h-5.8l.4 2.7-2.8-.2.3 4.5 3-.4-.4 1.7s-1 .2-2 .9a5 5 0 0 0-2.6 4.7c0 2.2 1.3 4 1.3 4l-1.8.4c-1.5.3-5.3 2.1-5.3 2.1s0 .2-1.8.4l-6 1.4s-.6-.3-1-.3-1.6.3-2 .8-.5 1.6-.5 1.6l-1.4.8-3.7 2.1s-.8-.2-1.6 0q-1.2.5-1.8 2c-.3 1.1.3 1.6.3 1.6s-.6.5-1.5 1.9a6 6 0 0 0-.9 2.3l-.8.1c-.6.2-1.5.8-1.5 2.5s1 2 1 2v1c.1.8.6 2 1.1 2.4.5.5 0 .7-.3 1.7q-.6 1.6.2 3c.5 1 2 1.4 2 1.4s0 .3.7.9 2.6.2 2.6.2l2.9 1.4c3.2 1.6 2.9 4 2.9 4s-2 1.5-1.8 2.3 0 1.1.9 1.5l1.9.6 1 3.5a21 21 0 0 1-5.4 2.8c-3.2.9-6.4.2-6.4.2a21 21 0 0 0-13.9-3c-3.8.7-5.4 5-5.4 5s-1-.4-4-.8c-3-.3-5.8 1-7.1 3-1.4 2.1-1.8 5.3-1 8.1s1.6.9 2.6-.3 2.8-2.5 5.8-1.6c3 1 6 4 6.2 4.2 0 0-.5-.3-3.9-.8-3.7-.5-6.9.4-9.2 1.2s-4.2.8-6.7-.8c-2.4-1.6-2.4-4.8-2.4-6s-1.3-.7-1.8 0-3 4.6-1 8.8 6.3 5 10.4 4.7c4-.2 9.3-2 9.3-2s0 .6 2.8 3.3a13 13 0 0 0 9 3.5c2.7 0 5-1.6 5-1.6 1.7 1.5 2.7 4.3 3 6.5.2 1.5.1 2.8 1.4 2.8 1.4 0 3.5-2.3 3.5-2.3l.4 2.3a26 26 0 0 1-.6 7.3c-.4 1.2-1.4 2.6 0 2.8 1.3.3 2.7-.2 3.5-.3 0 3.2-.7 5.3-2.6 7.8l-.4.6-2.2-1-14.6 17.1s5.3 6 5 19.6l-1-.2c-1.2-.2-1.8-1-3-2.2-1.3-1.2-1.4-3-2.6-3.7s-4.8-.5-7.5-.6-6-1-6.6-3.8.1-4 3.7-6.4c3.6-2.3 6.3-5 6.4-10s-3-8.5-9-15.3-8.6-13-9.4-14.6-1.2-1-1.8.2l-1.5 3.3s-2-1.2-6.8-10a63 63 0 0 1-7-19.3c-.4-2.5-1.4-1.3-2-.6-4-11.2-3.8-25-4.9-35.7 0 0-3.9 3.8-6.2 11.3-2 6.8-2 14.9-1.3 22 .6 6.7 2 10.7 2.7 12.5 1 2.7-.5 1-.5 1s-3.4-5.8-5.7-17-2-19-2-19-1.4 1-3 4.2a44 44 0 0 0-2.6 21 77 77 0 0 0 7 27.5c2.2 4 .2 1.6-.6.5a71 71 0 0 1-6.7-12.8c-2-5.5-5.6-16.6-5.8-18.4s-1-.6-1.7.9-2.3 6.5-2.2 10.2a51 51 0 0 0 12.2 31.6c2.2 2.8.5 1.4-.5.6s0 .1-4.5-4.7a92 92 0 0 1-11-18c-.9-1.7-1.6.1-1.7 1.1s-.7 6.5 2.7 15.8 12 16.7 16.5 19.7c4.5 3.1 1.3 1.6-1 .3a90 90 0 0 1-9.7-6.9c-2.9-2.4-7.9-8.6-9.3-9.7s-1.7-1.4-1.7 3c.1 4.4 3.9 11.6 8.7 16.4s11 7 12.9 7.7.3.4-1.7-.1a40 40 0 0 1-9-3.6 93 93 0 0 1-10.7-7.6c-1.8-1.4-1.6.6-1 3 .5 2.4 1.9 6.9 8.8 12.5a58 58 0 0 0 19.4 9.2c2.9.8.9.8.9.8l-6.8-1.4a71 71 0 0 1-16.7-7.3c-2.3-1.5-2.7-2-2.4 1a20 20 0 0 0 8.9 12.9 50 50 0 0 0 17.2 4.8c2.5.1 1.8.4.7.5a51 51 0 0 1-19.2-3.2l-.5-2c-.2-1.2-.9-1-1.2-.8-.4.3-.7.5-2 1.1s-1.3-.1-1.4-.5l-.3-3q-.1-1.1-1.1-.6l-4.7 2c-1 .4 0 1.3.5 2.3l1.5 2.6-3.7 1c-.8.2-.6.8-.3 1.4l1.9 4.6c.3.8 1.1.3 1.1.3l2.7-1.6 1 3.7s-1.3.3-2.7 1.2c-1.3 1-1 2.3.7 2.7s3.6 1.4 5.7 5.3c2.2 3.9 2.7 10.9 4 22 1.4 11 8.4 16.6 9.4 17.3s.4 1.3.4 1.3-1 1.4-.5 3.5a5 5 0 0 0 3.2 3.8c1 .3.7 1.3.7 1.3s-.5 2.3 0 6.7c.5 4.3 4 9.1 5 10 1 .8 1 1.2 1 1.6-.2.3-.9 0-2 1a12 12 0 0 0-3.4 3.6c-.8 1.6-.5 2.5-.2 4.5.2 2.1 3.3 4 3.3 4s-.6.1-.7 1.7 1 3.2 2.4 4.4c1.3 1 4 1.6 4 1.6l.3 2.2c.2 1 1.9 1.9 3 2.5s3.3.3 4.2-.2q1.3-.5 2 1c.6 1 .4 4.4.4 5.8s-.8 2.8-.4 3.5 1.8.2 3.2-.5c1.3-.8 1.6-.2 2.8.5a9 9 0 0 0 3.5 1.4c.5 0 .3-1.3.3-2.3s.2-3.4.7-3.8c.2-.2 2.3-.3 3.8-1 .7-.3 1.7-.6 1.7-1.3.1-.7-1-.7-3.2-1.9s-2.7-1.8-4.2-2.8c-1.4-1-.7-1.3-.7-1.8s.7-.9 1-1.4c.2-.6 0-1.8 0-1.8l1.8-1.8 2-2.3c.8-.6 2-3.6 2.7-4.5.8-1 2.5-2 3.6-3.4a30 30 0 0 1 11.3-7.6s-.1 2.6 1 3.9 2.6-1 7.5-4.5 8.6-4.7 8.6-4.7l2.4 3.3c1.3 1.6 2.5-.1 8.5-8.5 4.8-6.5 11-12.6 13.5-14.8l1.3.6-.4 1c-.5 1.8-1.4 3-2.6 5.3-1.1 2.4-3 3-5 6.2s-2.4 5.5-2.6 8.8 1.7 4 1.7 4-3 3-4 5.2-1.3 6.7-1.3 6.7-.5.2-1.6 2.5-3.1 2.6-6 5.5c-3 3-6.2 4.2-7.7 5-1.5 1-1 1.9-.7 3s2.5 2.4 5 3.3c2.3.9 3.2.5 4.8.5 1.7-.1.4 1.2-.3 1.9s-1.6 3.1-1.5 5.8 2.2 2 4.7 1.6a28 28 0 0 0 5.3-1.6l-.2.8c-.3.7-.4 1.3-.4 3.4q0 3 1 3.7c.5.6 1.8-.6 2.7-.9.9-.2 2.4-1.1 4.6-1.6s3-1.5 3-1.5-.5.7-.6 2.2c-.2 1.6-.1 3.8.2 5.2a9 9 0 0 0 2.9 4.2c1.5 1.4 1.8.8 3-1 1-1.7 3.3-3.9 3.3-3.9l1.7 5.5c1.5 4.9 6.5 9 6.5 9s5-4.1 6.5-9l1.6-5.5s2.3 2.2 3.4 4 1.5 2.3 3 1a9 9 0 0 0 2.8-4.3c.3-1.4.4-3.6.3-5.2q-.5-2.2-.7-2.2c-.2 0 .8 1 3 1.5s3.8 1.4 4.7 1.6 2.1 1.5 2.7 1q1-.8 1-3.8c0-2.1-.1-2.7-.4-3.4l-.3-.8s2.9 1.2 5.4 1.6 4.5 1 4.6-1.6a10 10 0 0 0-1.4-5.8c-.7-.7-2-2-.4-2 1.7.1 2.5.5 5-.4 2.3-1 4.4-2.1 4.8-3.3s.9-2-.7-3c-1.5-.8-4.7-2-7.6-5-3-2.9-5-3.2-6-5.5-1.1-2.3-1.6-2.5-1.6-2.5s-.5-4.5-1.4-6.7c-1-2.2-4-5.2-4-5.2s2-.7 1.7-4c-.2-3.3-.5-5.5-2.5-8.8-2.1-3.2-4-3.8-5-6.2-1.3-2.4-2.2-3.5-2.7-5.2l-.4-1 1.8-.8c2.4 2.2 8.7 8.2 13.5 14.8 6 8.4 7.2 10.1 8.5 8.4l2.4-3.2s3.7 1.2 8.6 4.7c5 3.5 6.4 5.7 7.5 4.4q.9-1 .8-2.6a104 104 0 0 1 11.8 4.2c4.3 1.8 4.7 2.8 8.1 5.4s8.2 2.5 12.8 1a304 304 0 0 0 21.6-7.5c4.9-2 8.4-4 9-4.9.4-1 1-3.7 1-4.7s-1-2.4-1.4-2.7q-.4-.5-.1-1.6c0-.6-.3-2.5-1-3.3-.8-.8-.7-1.1-.6-3.5.2-5-3.4-11.4-8.4-13.4 0 0-.2-.6-.6-1l-1-.6v-3.5q0-.7.6-.4c.3.2.9.9 1.7 1.1q1.2.2 1.5-1.3c.2-1 .8-2.8 1.2-3.7s-.1-1-.5-1.2l-2.2-.4q-.8-.1-.4-.5l1-2c.8-1 .1-1.1-.6-1.4l-4.9-1.3c-.9-.2-1 .6-1 1v2.6c0 .6-.5.4-.9.3l-1.7-1.2q-1-.5-1.3.7l-1.3 4.3q-.3 1.4.2 1.6c.3.2 2 0 3 0s.3.6.3.6l-1.3 2.3q-.6 1-1.8.8h-2s-5.3.2-9.2 3-5 5.3-5.6 6.7-1.3 1.1-1.9 1.6-2.3 2.3-2.3 3.4.4 1.7-1.3 2.8-3 5.9-.8 8.3 3.2 5 4 6.2c.6 1.2 0 1.7-.7 1.7s-1.8-1-2.9-1.8l-8.5-6.5c-2.3-1.7-.6-1.5-.6-1.5s.6 0 1.9-.5q2-1 .2-1.7a17 17 0 0 1-4.6-2.6c-.7-.7-1-1.4.3-2.1s4.2-2.6 2-3.2l-7.3-1.8c-2.2-.6-2.4-1.2-2.4-1.2l1.5-2.1s1.1-1.7-.2-1.9-4.8-.6-7.8-2a19 19 0 0 1-11.3-12.5v-.1c1.2 2.2 3.8 6.4 7.8 6.5 5.5.2 6.1-1.5 4.9-3.3-1.3-1.8-2.7-3.4-3-4-.4-.5-.5-1.2 1 .2 1.4 1.3 4 5.9 12.3 5.4 8.2-.6 8.2-2.2 8.2-2.6 0-1.6-1.7-1.9-2.7-2.9-.5-.5-.8-1.2.9-.6s5.7 1.4 11.3.2c2.1-.5 8-3 8.5-6 0 0-3.7-.2-6.3-1.3-2.5-1-4-2-1.3-1.4 2.7.5 8 1.6 12.7 0 2.7-.9 6.2-3 6.2-7.1 0 0-5-1-6.9-1.8q-2.7-1-2.5-1.2c.2-.2 7.3 2.3 13.8-1s6.9-7.9 6.9-9q-.1-1.4-.2-1.3a50 50 0 0 1-16.3 1s12.5-.4 18.8-4.2 6.7-11.5 6.7-11.5-7.1 2.6-11.6 3.1-7.2.5-8.3.4-1.8-.4.7-.5a49 49 0 0 0 17.2-4.8c5.3-3.1 8.6-9.7 8.9-12.8s0-2.6-2.4-1c-2.3 1.4-11 5.9-16.7 7.2l-6.8 1.4s-2.2-.1.7-.9zm-225.2 14.4-2.5 1.4-1.3-2.7q-.3-.8.2-.8l2.3-.4h.3zm76.8 45a20 20 0 0 1-8.8 7c-3 1.4-6.3 1.8-7.7 2s-.2 2-.2 2l1.4 2s-.2.6-2.4 1.3c-2.2.6-5 1-7.2 1.7s.6 2.5 2 3.2q1.6 1.1.2 2.1c-.7.7-3.2 2.2-4.6 2.6q-1.8.7.2 1.7c1.4.5 5 1.2 5 1.2l-2.3 1.8a19 19 0 0 1-8.7 3q-3.9.3-11.7 0l-5.8-.3-.5-4.3a22 22 0 0 0-3-7.8l-3.7-5 .2-1.5q.3-1-.5-3.3c-.6-1.5-3.6-3.8-3.6-3.8l-.2-3.2c0-1.6-1-7.7-2-10.6s-5.7-10.5-7.8-14a39 39 0 0 1-4.3-19.8l.5-1.3a13 13 0 0 0 3.5 3.2c6.3 3.8 18.8 4.2 18.8 4.2s-1.4.4-5.9.4-10.4-1.4-10.4-1.4-.2.3-.2 1.4.3 5.6 6.9 9c6.5 3.2 13.8 1 13.8 1s-.6.5-2.5 1.1-7 1.8-7 1.8c0 4 3.6 6.2 6.3 7.2 4.7 1.5 10 .4 12.7-.1 2.8-.6 1.2.3-1.3 1.4-2.6 1.1-6.3 1.3-6.3 1.3.6 3 6.4 5.5 8.6 6 5.5 1.2 9.6.4 11.2-.2 1.7-.6 1.4.1.9.6-1 1-2.7 1.3-2.7 2.9 0 .4 0 2 8.2 2.6 8.2.5 11-4 12.4-5.4s1.3-.7 1-.1-1.8 2.1-3 4c-1.3 1.7-.7 3.4 4.8 3.2 4 0 6.6-4.4 7.8-6.6v.1l.3.3-2.4 5.3zm66.4-178.2-1.1-2s3 1.4 5 3.5c1.8 2 1.7 3.2 2 4.2s0 2.9-.3 4.7q-.5 2.5.1 3.4l.7 1-2.7.8c-1.3.6-3 1-4 .2q-1.4-1.1-.5-1.8c.6-.5 2.8-1.2 3-5s-1.5-7.6-2.2-9m-17 10.3c.8-1.8 1-3.5.5-7.2-.4-3.1-1-5.7-1.2-9 0 0 2.3.4 5.6 3.4s4 6.1 4 7.6-.7 3.4-.9 4.8c0 1.5.4 2.8.4 2.8s-1.1.5-2.2 1.3c-1.1.7-1.9 1.2-3.5 1-1.7 0-2.7-.7-3.7-1.2l-1.5-.6s1.9-1.1 2.6-3zm-16-12.8a14 14 0 0 1 5.6-3.5c-.1 3.4-.7 6-1.2 9-.5 3.8-.3 5.5.5 7.3.7 1.8 2.6 2.9 2.6 2.9s-.6 0-1.6.6-2 1.2-3.6 1.3c-1.7 0-2.4-.4-3.5-1.1L306 130s.5-1.3.4-2.7-1-3.3-1-4.8c.1-1.6.8-4.6 4.1-7.7m-11.8 18.3c-1 .8-2.7.4-4-.2l-2.6-.8s.3-.3.6-1q.6-.9.1-3.4c-.3-1.8-.5-3.7-.3-4.7s.3-2.2 2.1-4.2c1.9-2.1 5-3.6 5-3.6l-1.2 2.1c-.7 1.4-2.5 5.3-2.2 9s2.5 4.5 3 5q.9.7-.6 1.8zm43.8 31.7c-3.2 1.7-5 1.3-5 2.7.2 1.3 3.1 2.3 3.1 2.3s-3 3.2-5.3 4.6c-2.3 1.5-5 2.4-5 2.4s-1 .2-.4 1.6a5 5 0 0 0 2.2 2.9l1.1.5s-4 4.3-5.8 5.7a15 15 0 0 1-4.3 2.5c-1.4.6-.7 3-.4 4 .4 1 1.6 2.5 2.4 2.7s1 .8 0 2.2c-.7 1.1-3 4-4 5.6h-.1l-4.2-5.6c-.9-1.4-.6-2 0-2.2.8-.2 2-1.6 2.4-2.7.3-1 1-3.4-.4-4a15 15 0 0 1-4.2-2.5 80 80 0 0 1-5.8-5.7l1-.5a5 5 0 0 0 2.3-2.9c.5-1.4-.4-1.6-.4-1.6s-2.7-1-5-2.4c-2.4-1.4-5.4-4.6-5.4-4.6s3-1 3-2.3c.2-1.4-1.6-1-4.9-2.7-3.2-1.8-4.3-4.1-4.3-4.1s3.8-1.3 5.7-5a7 7 0 0 0 .7-3.6h.1c6 2 13.1 2.8 19.4 2.8a63 63 0 0 0 19.3-2.8h.2a7 7 0 0 0 .7 3.6c1.9 3.7 5.6 5 5.6 5s-1 2.3-4.3 4z"/>
  <path fill="#d4af3a" d="M361.2 237.8c0-10.2 4.7-16.7 4.7-16.7l-12.7-14.6c-12.2 4.7-23.3 5-33.2 0-9.9 5-21 4.7-33.1 0L274 221.1s4.7 6.5 4.7 16.6-2 17.8-3.1 22.7c-1.2 5-2.1 14.1.5 20.7a26 26 0 0 0 16.7 17c11.3 4.8 17.3 7.3 21.2 10.6 4 3.2 5.9 5.9 5.9 5.9s2-2.7 6-6c3.9-3.2 9.8-5.7 21-10.4a26 26 0 0 0 16.8-17.1c2.7-6.6 1.7-15.8.5-20.7-1.1-5-3-12.5-3-22.6"/>
  <path fill="#b96b29" d="M357.2 242c-1.6-9.8 4-18.3 4-18.3l-10.9-12.8c-8.4 4.7-20.1 4.1-30.3-.6-10.1 4.7-21.8 5.3-30.2.6l-11 12.8s5.7 8.5 4 18.3c-1.5 9.7-5 25-4.1 31.3s5.3 13.6 9.8 17.4a58 58 0 0 0 16.2 8.7 47 47 0 0 1 15.3 10s1.5-1.5 3.7-3.2 7-5 11.7-6.8a59 59 0 0 0 16.1-8.7c4.6-3.8 9-11.1 9.9-17.4.8-6.3-2.6-21.7-4.2-31.4z"/>
  <path fill="#1d5e91" d="M356.1 243.1a33 33 0 0 1 3.2-19l-9.8-11c-8.4 4.4-18.5 3.3-29.5-.6-11 3.9-21.1 5-29.4.7l-9.9 11s4.7 8.4 3.2 18.9-4 22.4-3.6 29.4l.2 1.4h9s.5-.6 1.5-1 1.3-.7 1.3-.7.2-1.8 1.2-2.2q1.5-.5 2-.4.7 0 1.3-.6c.5-.6 2-1.8 2.6-3.6s1-2.6 1-3.8.4-3 .4-3-.2-.6-1.1-.3-1-.6-1.2-1.5c0-.9 0-2.7.5-3.6l.7-1.1-.4-1.5s-5.7 1.2-6.7-3.3-1.1-6.5-1.3-7q0-.7-1-.7c-.8 0-2.4-.4-3.6-2.7-1-2.3-1.2-3.3-.8-4.2s.9-.5 1-.3c.3.3 1.8 2.5 2.4 1.9s.3-.6-.6-2.3c-.8-1.8-.5-2.3-.4-3.2l-.3-2.5q.1-.8 1-.6.9.4 1.3 1c.2.2.3.6.8.4.5-.3.2-1.9.2-2.4q.1-1 1.3-.5a2 2 0 0 1 1.2 1.8q0 1 .3 1.1c.3.1.6-.9.7-1.4 0-.6.4-1.5.9-.7q.8 1.1.5 2.8c-.2 1.1.2.5-.2 2.4-.4 2-.6 2.8-.5 4.2s0 2.3.8 4c.7 1.8 1.3 3.8 2.6 3.9h1.7s1.5-2.8 2.6-3.5q2-.7 4-.9 1.5-.2 1.5-.8c0-.2-.3-.3-1.7-.5s-2.5-.5-2.6-1.6c0-1 .3-2-.6-2-1 0-3.2-.8-4-2.2s-.6-1.8-.5-2.7c0-.8 1.1-2.4 1.8-.9.7 1.6 1.1 1.8 1.7 2 .5.4 1.3.5 1-.5q-.7-1.4-.6-2.5.2-1.1 1.2-1.2l3.4-1 1-.2s.1-.7 1.4-1a9 9 0 0 1 3-.5q1 .2 2.7-.4a6 6 0 0 1 2.9-.7 4 4 0 0 1 1.9.8q.6.6.4 1.4t.8.8q1.3 0 2.3.3c.8.3 1.8.7 1.2 1.5s-.7 1.7-1.2 1.7q-.5.1-.5.7-.5.4.1.8c.5.3.5.6 1.2 1.2s1.6 1.3.6 2.3-2.7 1.8-2.7 1.8-1 .5.1 1.1 1.7 2 2.1 2.3l1.2.8c.3.1.2 1 .2 1l-1.5.8q-1.2.7-2.5.8c-1.3.1-1.3 0-1 .7l1.1 2 .3 1.2s1.4.3 2.6.3l4.3-.2c2.6-.3 3.4-.4 5.9-.1 2.5.2 2.9.2 3.5.4l1.4.6s3.5 0 5.5-.5 2.4-1.7 2.1-2.4-.2-1.6-3.6-2c-3.5-.6-4.8-.4-7.5-.9s-7-1.9-7.7-5.3 2-4.8 3.3-5.5l5.8-2.3c1.4-.5 3.9-1 6.5-.7 2.7.4 4.2 1 5.3.5 1-.7 1.9-.2 1.7.8s-1.3 2.9-4.3 3.8-6.6 1-8.5.5-3.4-1.3-4.6-.9-2.5 1.9-1.3 3.7c1.3 1.7 7.9 2.3 9.6 2.4 1.8.2 8.3-.2 10.2 3s.3 6.9-1.8 7.7a29 29 0 0 1-5.7 1.5l-1.7.3s.8 1.7.8 2.4-.1 2 .7 2.6q1.3.9 3.3.7c1.4-.1 3 .8 3.1 2l.6 5.5c.2 2.5 0 4.5 0 4.5s0 1-.4 1.9c-.3 1-2 4.4-2 4.4h9.5l.2-1.4c.4-7.1-2-19-3.6-29.5z"/>
  <path fill="#6d8c3e" d="M281.6 278.6a27 27 0 0 0 11.6 14.3c8.2 5 11.8 4.3 19.5 9.3s7.2 5.8 7.3 5.8-.4-.8 7.3-5.8 11.3-4.4 19.5-9.3a27 27 0 0 0 11.6-14.3h-76.7z"/>
  <path fill="#d4af3a" d="M288.3 237.2c.9 1 1.5 1.2 2.9 1q1.8.2 1.9 2c.2 1 .2 3.5 1.2 5.8s4.2 2.5 4.2 2.5q.1-1.8 1-3.9c0-.2.5-1.2-.7-1.2s-1.1-.5-1.8-1.6c-.7-1-2-4-2.4-6a16 16 0 0 1 .6-5.7q.6-1.6 0-1.9h-1s.2 1-.1 1q-.5.1-.8-1c-.3-.7-.5-.6-1-.6s-.5.5-.1 1c.3.4.1 1.3.1 1.3l-1.4-1c-.5-.2-1.4.2-1.5.8-.1.5.3 2 1.2 2.7s1 2.2.6 3c-.2.6-1.5.5-1.8.2a1 1 0 0 0-1.2 0c-.4.5-.8.7.1 1.6m-.5-2.5-.7-.6-.5-.7-.1.7c0 .5.6 1.2.6 1.2zm2-6.4q.7 0 .4-.7-.5-.9-1-1-.5-.2-.6-.1l.5 1.3q0 .8.6.5zm2.4-2q-.1.8.4.5t.3-1l-.6-.7-.3-.2s.2 1 .1 1.5zm3.4.6-.1-1s0 .6-.3 1c-.2.3-.1.2 0 .5q.4.3.4-.5m5.4 23.5c.7 1.6 2.4-.9 4-2.9s1.5-.4 1.3 1.2a8 8 0 0 0 1 4.5c.7 1 1.2.4 1.5-.4.2-.7.5-2.4 1-3.2.5-.7 1 0 1 .6.1.7 1 2.2 1.7 3.1.8 1 1.2-.3 1.5-1.4l.7-3.5c.2-.6 1 0 1 0l1.6 1.5c1 1 1.1-.6 1.2-1.4s-.1-2.5.2-2.8 1.2.4 2.5 1 1.3-.6 1.2-1.3a7 7 0 0 0-2-3.4q-1.6-1.6-1-2.5c.4-.5 1.7 0 2.6-.1l1.8-.3c.7-.2.7-.8.7-.8s-.5-.8-1.4-1.6-1.4-1.4-2.5-1.6-2.6 0-2.6 0l-.2-.4q-.2-.4-.6 0l-1.2 1.1q-.6.6-1 .5c-.2-.2.3-.6.3-.6s.5-.4 1-1.4q.9-1.6.3-2.6c-.4-.4-1.5 0-2.2 0-.6 0-1 .2-1-.2 0-.3.6-.1 1.4-.2s1.3-1 1.5-1.9.5-.6 1-.2q.7.7 1 0l1-1.8q.9-1.4.3-2.6c-.6-.8-2-.7-2.6-.2q-1 .6-1.1 2.1c-.2 1.2-.5.5-.5.2 0-.4-.4-1-.2-1.5q.2-.8 0-1c-.2-.2-.1-1-1.2-1.1a9 9 0 0 0-3.5.3c-1 .2-.9 1.2-.9 1.2l-1.7.1-2.8.7q-1.2.2-1.1.7l.1 1.1s.7 0 1 .3.2.5-.2.7q-.6.1-.6.7 0 .8.7.7t2.3.4c1.6.5 1.3 1.4 1.2 2 0 .5-1.5 1.2-2.3 1.2s-1 .1-1 .6 1 .4 1 .4l2.6.3c1.7.2 2 .6 2.8 1.2s.2.9-.2 1q-.7.6-1.5 1t-1.5.7c-.5.1-1.8 0-4.2 1s-3.3 4.1-3.3 4.1l1.4-.7q1.8-.8 3.8-2c1.2-.7 1.2.4.6 1.5s.6.9 1 .6l2-1.3c1.2-.6.8.4.8.4s-.4.7-.5 2.5c-.1 1.7 1.7 0 2.5-1 .9-1.1 1.2 0 .6 1.2-.6 1.3-1.8 2.3-2.5 2.3s-1.2-.8-1.3-1.2c0-.4.3-1.7-.1-2s-1.7 0-2.6.6-1 .1-1.3-.4c-.2-.4.3-.6.1-1q-.4-.2-1 .2l-2.8 1.5c-1.7.9-1.6 1.3-1.6 2.5s.3 1.5 1 3"/>
  <path fill="#d4af3a" d="m316.7 224.2 1-.5 1.5-.3q.9-.2.4-.8 0-.5-1.4-.5c-.9 0-1.5.5-2 .7l-1.1.4.4.6q.7.7 1.2.4m3.8 3.7.8-.2 1.3-.6q.8-.1 1.2-1c.4-.8-.4-.8-1.5-1q-1.5-.3-1.7.5c-.1.4 0 .8-.5 1.6s0 .7.4.7m-.3 1c-1 0-2.3 1.5-2.7 1.8q-.4.5-.2.6l.4 1.2c.2.7.2 1.7.2 1.7h.8q.8 0 1.6-.7a4 4 0 0 1 1.8-.7c.9-.2 1.3-.3 2.2-.8s-.5-1.4-1.5-2.2a4 4 0 0 0-2.6-1zm-14 3.6q1.2-.2 1.2-1 0-1.1-1.5-.9c-2.6.3-5.1-.7-5.6-3.2 0 0-.8 1.6.8 3.4s4.3 1.8 5.1 1.7m-8.9 41 .5.4h4q.9-.4.7-1.2 0-.7 1-4.7c.5-2.6 1.5-4.5 1.9-5.6s-.4-1.4-.7-2l-.8-2.5c-.1-.6-1-.5-1.6-.5-.5 0-.6.9-.7 1.7l-.8 5.1c-.4 2-2.7 4.7-3.3 5.3q-1 .9-1.6.8c-.4 0-1.4 0-1.8.3a2 2 0 0 0-1 1.6c0 .6.9 1 .9 1l1-.8q.6-.5 1.5-.6t.5.4c-.2.3-.1.4.3 1.2zm-6-.2q-.6.1-.7.6h2.6l-.3-.7q-.6-.3-1.7 0z"/>
  <path fill="#d4af3a" d="m294.8 273.2-1 .7h2.9q.1-.4-.2-.9c-.7-.5-1.3 0-1.7.2M319 272q-.4 0-1 .6t-.7 1.2v.1h1.3v-.1q0-.5.7-1.1c.5-.5 0-.7-.3-.7m2.3 1.3q0-.6-.4-.7l-1 .8-.5.5h1.7z"/>
  <path fill="#d4af3a" d="M332.3 260.4c.8-.6.7-.8.7-1.5q0-.8-.3-1a6 6 0 0 0-2.8-.8c-1.1 0-3.4.3-4.2.8s-1.3 2.7-1.3 3.8q0 1.3.5 1.2c.5-.1.8-.8.8-.8l1.8 2.5c.7 1 .4 1.4 0 2.2-.2.8-1.4 2.9-2.2 3.3-1 .5-1.6 0-2.6-.1q-1.5-.2-2.3.7c-.8.9 0 1.1.4 1.1q.5-.1 1.2.5c.3.3.1 1.2 0 1.6h5.2c.9-.4 1.5-1.6 1.7-2.3.3-.7 1.4-1.7 2-2.2.5-.5.5-.8.5-2s-.2-1.7-.6-2.5c-.5-.8-.8-2-.6-2.6 0-.7 1.2-1.4 2-2z"/>
  <path fill="#d4af3a" d="M323.7 247.4c.6.9.3 1-.4 1.2a9 9 0 0 1-2.8.2c-1.1-.1-1.1 0-1.1.6a5 5 0 0 1-.8 2.7c-.7 1-1.6.6-2 .2q-.9-.5-1 .4l-1.2 2.1c-.5 1-.9 1-1.3.9s-.7-.7-1.1-.7q-.6-.2-1.6-1.8c-.6-.9-.9.1-1.3 1q-.4 1.3-1.5 1.2c-.7 0-1.6-1.5-2-2.3s-.7-1.6-1.3-1.6-1.7 1.4-2.4 1.7q-1 .6-1.3-.2-.5-.4-1.1 1.2-.4 1.8.6 2.3c.6.3 1.7-.5 2.5-1s1.1-.5 2-.5.7 1.4 1 3.3c.4 2 1.5 2.2 1.5 2.2s.4.3 1.3-1.1 1-3 1.8-3 1 .2 1.8 1.4 1.5 2 2 1.1.9-2.1 1.5-2.6 1-.6.4.3-.8 1.7.4 1.4 5.7-2.2 7.6-2.6l4.7-.5 4-.3c1 0 1 0 1.1-.7 0-.7-.5-.5-2.3-.5q-2.5 0-4.3.4-2 .3-1.6-.2.1-.4 2-.7l6-.5c1.6 0 1 .5 1 1.5-.2 1 0 2.6.2 3.5 0 1 .1 1.3 1 2.7s3.7 2.2 4.5 2.6c.9.5.7 0 .7-.8s.7-.8 1.4-.3 2 .7 2.9 1q1.1.2 1 .8l.2 2.4c0 1 0 1.2-.4 1.8l-2 2.3s-.8 0-2.3.4c-1.6.3-2.1 1.1-2.3 1.7-.1.7.3.9.4 1.1v.8h.4l.5-.8c.6-.7 2-.9 2.9-.5q.8.7.5 1.3h3.6l2-3.9a6 6 0 0 0 .6-2.6c0-1.2.2-5.8 0-6s0-1.1 0-2.4c-.1-1.3 0-2.3-2.4-2.5s-3.2-1.2-4-2-.6-2.7-1.2-5-2.3-2.6-5-3.1a23 23 0 0 0-7-.5c-2.2.2-4.8.5-6.2.4-1.5-.2-1.2.2-.7 1z"/>
  <path fill="#d4af3a" d="m337.3 273.4-.5.5h2.4l-.2-.7q-.6-.5-1.7.2m4.4-.2-.8.7h2.5v-.3c-.1-.4-.9-.8-1.7-.4m-61 1.6.5 2.3h77.6l.6-2.3h-78.8zm52.3-37.1c2.4 1.6 10.2 1.7 13.9 2.4 3.6.8 3.4 3.6 2.3 5-1.2 1.5-6.3 1.7-7.2 1.8.5.3 1.2 1.4 1.2 1.4l2.1-.2a11 11 0 0 0 6.1-2c1.9-1.6 1.8-4 .1-5.8-1.6-1.6-4.3-1.8-7-2.1s-5-.5-8-1q-4.7-.9-4.7-3.6c0-2.7 1.7-2.8 2.9-3.1s3.1-.9 4.9-.2c1.7.6 3.7.7 7.1.3 3.4-.5 4.2-2.8 4.2-2.8s-.4.2-2.2.2c-1.7 0-3-.7-6-.7-3.2 0-4.3 1-5.8 1.6-1.5.5-5.4.9-6.5 3.4-1.2 2.5.1 3.7 2.6 5.4"/>
  <ellipse cx="312.6" cy="226" fill="#b96b29" rx="1.5" ry="1.4"/>
  <path fill="#b96b29" d="M344 228.4c-2-.2-4.5.4-4.5.4s.5.4 1.2.3l3.7.3c1.9.3 3.2-.6 3.2-.6z"/>
  <path fill="#1d5e91" d="M325.6 264.6c-.5-.8-.6-.7-1.2-.2s-1-1.2-1.1-2.2l.4-4.1s-2.6.5-4 1l-4 .9q-1.6.4-2.4.4c-.6-.2-1.9-.2-2.9-.2s-1 .2-2 1.2-1.3 1.5-2 3.4a20 20 0 0 0-1.4 6l-.7 3.1h12.2l.5-1.2a3 3 0 0 1 1.4-1.4c.5-.2 1-.2 1.2-.8q.4-.8 1.4-1.2 1.2-.4 2.8.1c1 .3 1.4-.4 1.7-.8l1-1.6c.5-.7 0-1.3 0-1.3l-1-1.1zm19.5.3c-.1-.7 0-.8-.5-.9q-.7 0-1.7-.5c-.6-.2-.5 1.4-.5 1.4s-1.5.2-3.1 0-3.5-1.7-4.2-2.2l-1.4-1.5-1 .7q-.7.6-1 2.4c0 1 1.3 2.2 1.4 3.2s-1.2 3.1-1.8 4a9 9 0 0 0-1.2 2.4h5.9l.6-1c.6-.6 1.6-.7 1.6-.7l.2-.8q.3-.8 2.3-1.8c1.5-.5 3.3-.6 3.3-.6s.7-.6 1.2-1.4 0-2 0-2.7z"/>
  <path fill="#d4af3a" d="M296.2 329.6c1.1.4 3.2-.4 4.2-1.6s1.4-3.2 2.1-4.3l1.3-1.9s-.2 1.8-1.2 4.3a16 16 0 0 0-.8 6.8c.4 2.7 2.2 3.1 3.2 2.7q1.4-.4 3-3.2l1-2c.6-1.3 1.2-3.5 1.5-3.4.7.1.3 1.6 0 2.6-.5 2-1.5 5-1.6 7 0 1.7.2 5 2 5.2 1.8.1 2.8-1.5 3.8-5.2s1.2-5 1.7-5 .4 2.6.4 3.7a18 18 0 0 0 1.6 7.4c.9.8 1.6.7 1.6.7s.7.1 1.6-.7 1.6-6.3 1.6-7.4c0-1 0-3.6.5-3.6s.6 1.2 1.6 4.9 2 5.3 3.8 5.2c1.9-.2 2-3.5 2-5.3s-1.1-4.8-1.6-6.9q-.6-3.1 1.6.8l1.3 2.5q1.6 2.4 2.6 2.7c1 .4 2.8 0 3.2-2.7s-1.6-10.5-1.6-10.5l1 1.3c.7 1.1 1 3 2 4.3s3.1 2 4.2 1.7q1.5-.6.4-6.1c-1.1-5.5-4-5.7-6.4-8.6a32 32 0 0 1-4-8.2 27 27 0 0 0-7.9 5.6l-5.9 6.3s-1-1.3-5.8-6.3a27 27 0 0 0-8-5.6c-.2.6-2.2 5.2-4.4 7.9-1 1.3-2.5 2.3-3.6 3.6a12 12 0 0 0-2.4 5.3q-1.2 5.5.5 6z"/>
  <path fill="#d4af3a" d="m296 342 2.2-2c0-.1 1-.8.8.9-.3 1.6-.8 5-.5 6.4s.5 2.7 2.3 1.6c1.8-1 2.3-1.7 3.1-2.6s1.8-1.3 1.6.1c-.3 1.4-.9 3.6-.6 6.4q.6 4.5 3.6.9a32 32 0 0 0 3.5-5.9c.5-1.2 1.6-2.2 1.6 0 0 4.8 1.1 11.8 6.4 13.6 5.3-1.8 6.4-8.8 6.4-13.6 0-2.2 1.1-1.2 1.7 0a32 32 0 0 0 3.5 5.9q2.9 3.5 3.5-.9c.3-2.8-.3-5-.5-6.4s.6-1 1.5-.1 1.3 1.5 3 2.6c1.9 1 2-.2 2.4-1.6s-.2-4.8-.5-6.4.8-.8.8-.8l2.1 2a6 6 0 0 0 3.4 1.2s.9-5-1.2-8c-2-3-2.9-4-2.9-4s-1.1 0-2-.4c-1-.3-1.8-1-1.8-1v2.8l3.1 3.1c.6.8 1.8 2 0 .8l-3.1-2.4s-.4 2.5-1.1 3.2c-.7.6-1.8.7-2.2.5l-.4-.1-.2 1s1.6 3 1.8 4.1q.4 1.8-.8-.5c-.7-1.5-2.2-3.5-2.8-4.5-.6-1.1-1.6-1.8-1.5-.5s-.5 3.9-1 4.8q-.6 1.3-.7 1.2l1.1 4c.1.7 0 1.5-.5.6l-2.1-4.2s-2.1 0-2.7-.7-1.6-2.9-1.6-2.9-.8 3-1.5 4-2.4 1.8-2.4 1.8l-.2 6q-.1 1.4-.6 1.3t-.5-1.3l-.3-6s-1.6-1-2.3-1.9c-.7-1-1.6-3.9-1.6-3.9s-1 2.3-1.5 3c-.6.5-2.7.6-2.7.6s-1.6 3.4-2.2 4.2c-.5.9-.6.1-.5-.5l1.1-4.1s-.3-.3-.7-1.2c-.5-1-1-3.4-1-4.8.1-1.3-.8-.6-1.5.5s-2 3-2.8 4.5-1 1.7-.8.5 1.8-4.1 1.8-4.1l-.1-1-.5.1q-.8.4-2.2-.5c-.7-.6-1-3.2-1-3.2l-3.2 2.4c-1.8 1.2-.6 0 0-.8l3.2-3.1v-2.8s-1 .7-1.8 1c-1 .4-2.1.4-2.1.4l-2.9 4c-2 3-1.2 8-1.2 8s2 0 3.4-1.3zm25.8 33.5L320 373s-.4.8-1.8 2.4a43 43 0 0 1-4.5 4s.3 4.2 1.8 6.5c1.3 1.9 2.5 3.6 4.5 5q2.9-2.1 4.5-5c1.6-2.3 1.9-6.5 1.9-6.5s-3.2-2.4-4.6-4z"/>
  <path fill="#b96b29" d="M319.4 380.6c0 1 0 3.4.6 3.4s.5-2.4.6-3.4l.2-3.3h-1.6s0 2.3.2 3.3"/>
  <path fill="#d4af3a" d="M320 151.3c-5.7.1-12.3-.7-16-2l-3.8.8a52 52 0 0 0 19.8 3.3c8.8-.1 13.8-1 19.8-3.3l-4-.8a51 51 0 0 1-15.8 2m20.5-4.7c-.4-.4-3-2.2-3.7-2.5-.6-.4-.1-1.3 0-1.6s3-1.2 4.6-1.7 1.4-.7 1.4-.7-1-1.1-6.8-1.7c-5.8-.7-16-.5-16-.5s-10.2-.2-16 .5-6.8 1.7-6.8 1.7-.2.3 1.4.7a19 19 0 0 1 4.6 1.6c.1.4.6 1.3 0 1.6l-3.7 2.6q-.8.8.2 1c1 .2.7 0 2.7-.4a94 94 0 0 1 35.2 0c2 .4 2 .4 2.7.4q1-.2.2-1"/>
  <path fill="#d4af3a" d="M333.9 149c-4-.4-6.5-1-13.9-.9s-10 .5-13.9 1c2.5 1 6.6 1.5 13.9 1.5s11.4-.5 13.9-1.5zm-15-57.5-.1 2.8 3-.2-.3-2.7 3.3.5.1-2.6-3.4.3.6-2.9h-3.8l.7 2.9-3.3-.3v2.6zm6.5 7.1h-4v-3.4l-1.3-.2-1 .1v3.5h-4.3a5 5 0 0 0-.2 2h11v-.6z"/>
  <path fill="#1d5e91" d="M320.1 105a6 6 0 0 0 5.2-3.4H315a6 6 0 0 0 5.2 3.5zm2.3-9.5v2.4h2.7a5 5 0 0 0-2.7-2.4m-4.5 0a5 5 0 0 0-2.8 2.4h2.8z"/>
  <path fill="#b96b29" d="m323.3 140-3.3-1.5-3.3 1.7c-1.2.5-1 .4-1.4 1.2q-.4 1.2.6 1.4l4.1 2 4.6-2q1-.5.4-1.5-.2-.7-1.7-1.3"/>
  <path fill="#d4af3a" d="m320 139.3-3.5 1.7 3.6 1.9 3.5-1.9zm0-12.3s-.3 1.2-.7 1.8q-.7.7-.6 1.7c0 .6.8 1 1.3 1s1.2-.4 1.3-1q0-1-.6-1.7c-.4-.6-.7-1.8-.7-1.8"/>
  <circle cx="320" cy="132.8" r=".7" fill="#d4af3a"/>
  <path fill="#d4af3a" d="M317.6 129.4s1.1-1.3 1.6-2.2l.8-1.5.8 1.5c.4.9 1.6 2.2 1.6 2.2s1.6-1 2.6-4c1-3.2-.3-6.6-.7-10.1l-.8-9.8a7 7 0 0 1-3.5 1 7 7 0 0 1-3.6-1s-.3 6.2-.8 9.8-1.6 6.9-.6 10c1 3.2 2.6 4 2.6 4z"/>
  <ellipse cx="320" cy="122.3" fill="#b96b29" rx="2.8" ry="2.7"/>
  <ellipse cx="320" cy="115.8" fill="#b96b29" rx="2.7" ry="2.6"/>
  <ellipse cx="320" cy="109.7" fill="#b96b29" rx="2.6" ry="2.5"/>
  <ellipse cx="320" cy="121.8" fill="#d4af3a" rx="1.5" ry="1.4"/>
  <circle cx="320" cy="115.4" r="1.4" fill="#d4af3a"/>
  <ellipse cx="320" cy="109.2" fill="#d4af3a" rx="1.3" ry="1.2"/>
  <path fill="#b96b29" d="M319.9 336q.3.1.2-1.2l.4-4c.2-1.2-.3-1.1-.6-1-.3 0-.5.9-.5 1.4l.1 4.2q0 .7.4.7z"/>
  <path fill="#d4af3a" d="m290.4 359.1 5.2-3.6a12 12 0 0 0 4-4h-1q-1-.1-1.1-1.5l.2-4.1c.2-1.8-.3-3.3-.3-3.3s-1.2 1.1-3 2c-2 1-2.7.6-2.7.6l-.4-1.9-2 3.7c-1.1 2-4.2 4.2-6.4 5.8a29 29 0 0 1-6.4 4c-1.8.7-.7 1.5-.7 1.5s1.8 1.8 6.5 2.7c4.6.8 6.9-1 8.1-1.9"/>
  <path fill="#d4af3a" d="M306.8 357.3q-2.6-.1-3-2.6c-.2-1.2 0-5.7 0-5.7l-1.1 1.2c-.7.8-2 1-2 1l-1 1.6a9 9 0 0 1-3 3.2l-4.6 3.2a28 28 0 0 1-4.3 3.1 7 7 0 0 0-3.6 4.7c-.5 2.4 0 3.1 1.8 3s2 0 5-.7c3-.8 7.3-4.1 10.4-6 3-2 5.4-6 5.4-6"/>
  <path fill="#d4af3a" d="M315 360s-1.2-1.6-1.7-3.4l-1.3-5.4-1.5 3.3c-1 2.1-2.7 2.7-2.7 2.7s0 .9-1.5 2.7a21 21 0 0 1-5.7 4.8c-2.1 1.2-5 3-6.4 5.1-1.5 2.2-1.7 4.4-1 5.4.8 1 1.8-.1 3.2-.9 1.4-.7 5.5-1.3 11.2-4.4 5.6-3 7.4-9.9 7.4-9.9"/>
  <path fill="#d4af3a" d="M317.5 372.7c1.5-2.4 1.8-8 1.8-8l-1.3-1c-.8-.7-2.2-2.9-2.2-2.9l-2 3.8c-1 1.8-1.5 2.4-3.6 4.3-2.1 2-5 3.9-6.2 6-1.2 2-.5 6.1.3 7.5s2 1 3-.1l3.7-3.3c2.1-1.8 5-4 6.5-6.3"/>
  <path fill="#b96b29" d="M299 325.3c.8-1.7 1.7-3.7 2.5-4.8l1.3-2.2s-2 1.8-2.8 3.1q-1.2 2-1.7 4-.6 2.3.7 0zm8 1.5.5-1.9s.3-1 .1-1.1q-.5-.2-1.6 2.5c-.5 1.8-1.4 4.5-1.2 4.6s1.8-3 2.2-4.1m6.3 5 .3-.8s.7-2 .7-2.5-.2-1-.8.1-.6 2.2-.7 2.6c0 .5-.7 2.1-.5 2.3s.6-.9 1-1.7M293.7 351l-.8-.5-1.3 1.5q-1.1.8-2 1.7a8 8 0 0 1-2.7 2.3q-2 1-1.6 1.1c.3.2 1.2-.3 1.2-.3s.3 0 1.9-1 2-1.4 3-2.3 2.3-2.5 2.3-2.5m6.8 8.1c.6-.6 1.3-1 1-1.4q-.6-.5-1.4.2l-2.8 2.6-2 1.5c-.7.6-2.3 1.4-3 1.8s-.1.5-.1.5l1.2-.5 2.5-1s.7-.3 1.6-1 2.4-2 3-2.7m7.9 5.5c.5-1 0-.8-.9-.4-.8.3-2.7 2.4-3.8 3.1q-1.6 1-3 1.6c-.9.4-.9.7-.8.9q.1.3.8 0l1.6-.9 1-.2q.8 0 2.4-1.6c1.2-1 2.2-1.5 2.7-2.5m3.7 7.2c-1.4.8-3.8 2.7-4.5 4q-1 1.9-.8 2.3c.2.2.9-.2 1.2-.7l.9-1.2s2.4-2.4 3.3-3a8 8 0 0 0 2.6-3c.4-1 .1-1.4.1-1.4s-1.5 2.1-2.8 3"/>
  <path fill="#c52126" d="M275 170a22 22 0 0 0-8.3-2.6c-3.7-.3-6.5.2-9.5 1q-3.2.9-5.7.3c-2.6-.7-4.6-3-5.3-6 0 0-2.4 3.1 0 6.5a7 7 0 0 0 4.4 2.9c5 1 10-2 14.3-2.4 4-.2 7.3 2.4 7.3 2.4s1 .8 2.3 0q2.3-1.1.5-2.2z"/>
  <path fill="#d4af3a" d="m260.3 317.5-1.2-.2c-.7 0-2.2-.6-2.7-.8q-.7-.4-1.6.3c-.4.5-4 2.7-4 2.7h6c2 0 3.5-2 3.5-2"/>
  <path fill="#d4af3a" d="M277.4 316.4v-.5l-.8-1.8s-1 .6-1.9 1.5c-1.2 1.3-2.4 3-3 3.7-1 1.3-2.4 2.5-1.2.5s1.6-3 2.6-4.4l1.5-2-3.4-.5c-2.5-.3-4.1-1.3-5.3-2l-3.3-1.9s-4.3 1.9-5.9 2.3-2.6.6-1 1.4 2.9 1 3.7 1.5a11 11 0 0 0 4.6 1.2c1.4 0 3.9 0 3 1q-1.5 1.6-3.2 6a20 20 0 0 0-1 7v2.5s1.8-2 6.6-5 6.6-4 7.5-4.4 1.3-.4 1.1-1.5z"/>
  <path fill="#d4af3a" d="m295.6 302-.9-.4h-.2a15 15 0 0 0-4.6 4.2c-1.2 1.9-2.4 2-1.1 0a18 18 0 0 1 3.2-4.2l1-.8a53 53 0 0 1-7.3-4.2l-1.6 2.5c-1 1-3.3 2-3.3 2s1.8-2 2.4-3.3l.8-2.5a32 32 0 0 1-4.8-4.6 18 18 0 0 1-4.1 7.4c-3.8 4.2-11.3 6.3-11.3 6.3s-2.6.3-.5.9c2.2.5 3.7 1.5 7.8.8l5-1.1c.6-.2 2 0 0 .7-2 .8-6.9 1.5-8.7 1.4-1.9-.2-4.4-.6-1.8.8s3.8 2 5.4 2 2.3.5 3.9.5 2-.3 3-.5q1.9-.3 2 .6c0 .4-1.6 1.7-1.5 4.7q.1 4.7.5 6c.3 1 1 2.4 1.4 3.2.5.8.7 1.7 1.1-.1s1.5-4.4 1.9-6.1.6-1.8.7-2.7c.2-.9 1.2-1.6.7 0l-1.3 5.2c-.3 1.5-1.1 4.2.2 2 1.4-2 6.4-7.7 7.3-8.8l2-2.8c.7-.8 2.4-1.9 3.3-3.1a29 29 0 0 1 3.9-4zm-69.5-129.2c0 3.1 3.5 9 5.5 12.2q2.7 4.5 2 4.6c-.2.2-1-1.4-2.1-2.8s-3.2-4.7-5-7.2c-1.6-2.5-4.2-8.4-4.5-8.9-.4-.5-.5-.9-1.4-.2s-2.5 7.2-.5 11.6 5 7.6 6.3 9.2 3 4 2.7 4.1c-.3.2-.8-.4-2.3-2L221 187a52 52 0 0 1-3.8-6q-.4-.6-.8-.2c-.5.6-1.4 1.9-1 5.4a17 17 0 0 0 5.3 10.2c2.3 2.4 4.6 4.5 4.2 4.9-.3.3-2.7-1.8-4.3-3.3-1.6-1.6-5.5-5.4-6.4-6.5s-2.1-.5-2 3.7c0 4.3 4.7 8.5 6.6 10.9 2 2.3 4.4 3.7 4.2 4.2s-2.2-.7-3.4-1.6l-7-4.6c-1-.7-1.4.6-.2 4.6s4.7 7.2 6.8 8.7 5.4 3.3 5.2 3.8q-.4.4-3.6-1.1a39 39 0 0 0-6-2.3c-1.6-.5-1.6.7-1.6.7s-.3 3.5 2.2 6.2a13 13 0 0 0 8 4.3c2.6.5 3 .6 3 1q-.1.5-1 .5l-5.4.2q-3.3 0-3.4 1.6c-.1 1.6-.1 2.3 3.3 4.6s7.2 2.6 8.8 3 1.7.4 1.4.9-1.1.4-3.6.7c-2.6.2-4.1 1.2-4.5 2-.3.6.2 2.6 2.3 4q2.9 2 8.8 1.6c4-.3 5-.3 5.1.3.2.7-1.2 1-3.2 1.2-2 .4-3.5.4-4.7 1.3-1.1 1-.2 2.9 1.7 4.3 2 1.4 6.8 1.4 8.8 1.3 2-.2 5-.9 5.3-.4s-1.5 1.4-3.6 2.1c-2 .8-2.7 1.2-3 2.1-.5.9-.1 1.7 2.3 2.6 2.5 1 6.1 1 8 0q2.8-1.2 3.2-.8.4.5-.4 1.1c-.4.5-2 1.8-4 2.3-2.1.6-2.3.6-3 2.2q-1 2.7 4.8 3.2c3.8.1 8.8-1.4 10.4-2.3q2.2-1.4 2.5-.8.4.3-.6 1.1c-.8.6-3.4 2.5-4.7 2.8-1.2.3-1.4 1.3-1.4 2.1 0 1-.3 2.6 3 3.5q5.3 1.4 11-2.4a8 8 0 0 0 2.2-2 28 28 0 0 1 .2-8q-1.2 0-3.4-.9c-2-.8-2.8-2.6-3.3-3.6q-.6-1.3-2-.8-1 .5-2.6.6a8 8 0 0 1-5.3-2.8c-1.8-2-1.4-4-1.5-5 0-1-1.7-.3-2.5-.3s-3.1-.4-5.3-1.9c-2.1-1.4-2.1-3.4-2.3-4.3q-.5-1.2-1.7-1.6c-.7-.2-1.8-.5-3.3-1.7a7 7 0 0 1-2-4.4c-.1-.8-1-.8-4-2.4s-2.7-4.7-2.6-6 1.5-2.3 1.5-2.8-1-.6-2-1.2-3.5-1.6-3.6-5.4c0-3.7 2.4-4.1 2.4-4.1l-1.4-.8c-1-.6-3.8-2.5-3.8-4.7s1-3.2 1.8-3.8 2.7-1 2.7-1-1.3-.9-1.8-2.6-.7-3.9.5-5.4c1.3-1.6 3.4-1.6 4.6-1.6s2.1.6 2.5.3q.7-.3 0-1.5a7 7 0 0 1 0-3.7c.3-.8.4-2.2 3.2-3.2s6 1 6.9 1.6c.9.5.5-.8.5-1.7 0-1-2-3.3-4.2-6.6a73 73 0 0 1-5.6-10.2 66 66 0 0 1-4.5-13.4c-.3-1.6-1-.8-1-.8s-.6.2-2.2 4.1a25 25 0 0 0-1.6 10.5"/>
  <path fill="#d4af3a" d="M276.5 241.4c-1.7-.1-4-1-5.7-3.6-1.7-2.5-4.3-3-8.8-3-4.4.1-6.5-2-7.6-5.2-1.1-3 .1-6.6 4.7-8.9 4.6-2.2 6.7-4.7 6.8-8.6.2-3.9-4.5-8.7-9.3-14.1-4.7-5.5-8.4-13.2-8.4-13.2s-1.4 1.8-1.4 3.7c0 1.8.7 3.7 0 4.2s-1-.8-3.7-2-5-1.4-6.7.6 0 5.4 1.5 7c1.6 1.7 2.9 3 2.4 3.5s-2.7-.9-3.5-1.4-2.6-2.5-5.3-2.3-3.6 1-3.8 3.3c-.3 2.3 2.4 4.2 4.1 5.1q2.6 1.4 2 2-.6.3-1.7-.3a8 8 0 0 0-4.3 0c-1.4.6-3.6 2.5-1.5 4.8s6.4 3.2 7.2 3.3c.9.2 1.3 0 1.4.6s-1.8.7-4.1.8c-2.4.1-3 2.4-2.7 4 .3 1.8 4.2 3.7 6.4 4 2.1.4 2.9 0 3 .7q.3.8-1.4 1.2c-1.2.3-3.5.6-4 2.5s-.5 2.7 1.3 4.4c1.8 1.6 4.8 1.4 5.6 1.2.9-.2 2-1.1 2.8-.3.9.9-.8 1.6-2.3 2.6s-1.3 3 1.2 4.4 5 .9 6 .5c1-.3 2.4-2 3.1-1 .7 1.1-2.2 1.5-3.4 3-1.2 1.4-.7 3.8 1.7 5.3s6.4.4 7-.2q1.2-1 2.1-.3c.9.7-.2 1.9-.8 3-.5 1.3-1.4 4.8 2.2 6.2s6.9-1.7 7.5-2.3q1-.8 1.7-.5.6.5-.1 1.4c-.5.6-1.4 3.2 1.2 5a6 6 0 0 0 4.7 1l2-7.2h-.6q-.4.2-.4.7t-.2.4q-.3 0-.8.5-.8.6-1.1.5c-.3-.2 1-.8 1.2-1.2.3-.4 1-1 1-1.4q0-.5.9-1.1l.4-.6a101 101 0 0 0 1.7-12.7zM203 187.6a37 37 0 0 0 9.3 12.1l-1-3.2c-.4-1.4-.2-2.9-.2-2.9s-1.3-1.7-3.8-5.6c-2.6-3.9-3.9-9.6-3.9-9.6s2.4 5.7 4.2 8.8c1.8 3 4 5.5 4 5.5s.6-2.7 1.2-2.8q.7-.2 1.3.8.8.8.9.6l-1.6-2.8-1.5-2.2c-1.5-2.3-4.6-6.6-6.1-10.9-1.6-4.3-5.1-15.1-5.7-18.3s-1.2-1.4-1.8.9a28 28 0 0 0-1 10.7 54 54 0 0 0 5.7 18.9m5 21 3.5 2.5-.6-1.7-.3-2.9-2.8-2.5a42 42 0 0 1-5.6-6c-3-3.6-.6-1.4 1.8 1.2s7 6.3 7 6.3v-.8a3 3 0 0 1 .7-1.9c.4-.6.2-.6-2.4-2.6a75 75 0 0 1-17.6-24.4s-1.4 9 4 18.7c5.4 9.9 10.8 13 12.2 14.1zm28.5 56.3c3-1.2 2.1-4.1 2.1-4.1s-1.8.5-3.5 1.2-5.8 1.8-7.4 1.8-1.7-.2-1.7-.4 1.2 0 3.6-.4a29 29 0 0 0 7.2-3.1q1-.7-.4-.7a5 5 0 0 1-2.4-.9c-.4-.3-1.5.1-4.2.8a51 51 0 0 1-21.5.7c-.6-.2-1.3.2.7 3.7 2.1 3.5 9.4 5.3 14.4 5.3s10.1-2.8 13-3.9zm-13.4-7.2c5.2 0 7.1-1.5 7.1-1.5l-.7-1.3c-.7-1-.6-2.9-.6-2.9l-3.4.6c-2.1.3-4.6.6-7.4.1s-1.6-.8.6-.5c2.2.2 6.4-.6 7.8-1s.8-1-.1-1.3-3.5-1.9-3.5-1.9-6.3.8-12.1.2c-6-.7-9.6-2.2-10.8-2.4s-1.2.3-1.2.3-.3.6 1.8 3.7c2 3.2 6 5.3 9.3 6.3q5.3 1.6 13.2 1.6m-1.4-12.2-.5-1.3c-.3-1 .6-1.9.6-1.9s-1.2-.3-5.1-.8-4.1-.8-6.5-1.3-4-1.3-4-1.5q.2-.4 2.3.6c1.4.5 7.4 1.2 9.9 1.5q3.7.6 4.3.4c.5-.3 2-.7 2-.7l-2.4-.5a8 8 0 0 1-3.2-1.3c-.7-.5-.9-.6-4-1-3.3-.3-5.8-1.3-11.5-3.4s-10-4.6-11.1-5.5c-1.2-1-1-.3-.8 1 .3 1.1.3 2.6 3.2 6 2.8 3.3 4.2 4.8 11.5 7.4s15.3 2.3 15.3 2.3M200.2 228a41 41 0 0 0 15.5 6.4c.4-.4-.4-2 0-2.8.4-1.1 1-1.1 2.6-1.2s.5-.4.2-.4l-3-.7c-2.6-.7-5.2-1.1-8.7-2.4-3.5-1.4-4.6-2.3-4.5-2.6s1.6.8 5 2c3.2 1.3 7 1.8 9 2.3 2.1.4.3-.5-.7-1s-2.3-2.8-2.3-2.8-2.3-.4-6-1.5a49 49 0 0 1-10-4.2q-1.7-1-3.3-2.2l-5.1-3.7c-1.3-1-1-.2-.8.4s1 3.2 3 6.1c2 3 2.7 3.8 9.1 8.3m-1-12.7c6.3 5 11.7 6.6 12.6 7s.9-.2.7-.7-.3-2.2-.3-2.2l-4.8-2.8a80 80 0 0 1-7.1-4.7c-1.9-1.3-.8-1.2-.2-.7s3.1 2 5.7 3.6l6.4 3.9s.1-.9.7-1.4 1.8-.4 1.8-.4l-1-1.3c-.4-.6-2.5-1.3-4.9-2.4a58 58 0 0 1-9.6-6.8c-3-2.6-9-9.1-9.5-9.7q-.6-.7-.7.3c0 .6-.2 1 .4 4s3.5 9.4 9.8 14.3m22.3-47.2q1.1 2.2 2 3.6l1.4 2.4s.2-.5 0-1.4q-.2-1.2 0-3.5l.3-2.3-.5-1.9-1.5-7c-.5-2.7-1-6.4-.9-9.7s.5-1.6.5 0a62 62 0 0 0 2.8 17.2s0-.9.5-2.1q.8-2 2-4.2c.5-1.6.3-1.9.3-1.9s-2.2-10.6-2.8-15.6-1.5-18.1-1.5-18.1c-3.3 3.2-5.7 11.8-6 20-.4 6 .6 11.7.9 14q.7 6.8 2.5 10.5m-7.2 16.8c.1-2.4.7-4.3 2.2-4.8 0 0-1.3-2.4-2.5-5.8a46 46 0 0 1-1.9-7.7c-.8-5.6-1.5-11.5.2-2 1.7 9.7 3.7 13 3.7 13l2.5 4a17 17 0 0 1-.4-4.9c.1-1.9.4-4.5 1-6.5 0 0-3-6-4.9-13a82 82 0 0 1-3.2-22.7s-3 2.3-4 13.9a69 69 0 0 0 7.3 36.5m33.3 88.6-2-1.3c-1.4-.9-1-3.7-1-3.7l-1.4 1a19 19 0 0 1-3.7 2.2c-1.5.6-2.2 1-3 1.2q-1.4.4 0-.5c.8-.4 1-.7 3-1.4 1.9-.8 5.7-4.2 5.7-4.2l-2.5-.1c-1.6 0-3.6-.9-3.6-.9s-1.6 1.4-8 4.2a50 50 0 0 1-11.8 3.5s.7 3.2 3.8 4.3c2.5 1.1 6 1.8 12.9.2a44 44 0 0 0 11.6-4.5m8.4 6.5c.5-2.7-1-4.6-1-4.6l-1.3 1.1c-1 .9-2.4 2.5-5 3.9-2.8 1.3-3.7 1.2-1.1-.2s6.4-5.3 6.4-5.3l-1-.4c-1-.4-2.8.3-10 4.6s-11.4 4.5-11.4 4.5 3.2 3.9 12 3.6c8.7-.3 11.8-4.5 12.4-7.2m16.5-3.1s-1 1.3-2.3 2.2-4.7 1.4-4.7 1.4l-.8 1.2c-.7 1-2.2 3-3.7 4-1.6 1.2-4 2-4.1 1.6s1.4-.8 2.9-1.8 2.8-2.6 3.8-3.7-.4-1-.4-1h-3.5c-1.7-.2-1.4 0-1.9.7l-2.4 3-4.4 5.1c-1 1.2-.2 1.5-.2 1.5s.4.7 4.3 1.2c2.4.2 5 0 7.8-1.6a23 23 0 0 0 5.2-4.5c4.6-5.1 4.4-9.3 4.4-9.3m2 10.5-1.4 1.8 1.2-3q.5-.9 1-1.4-1.1-2.1-1.6-4.7c-.5 1.4-1.8 5.5-3.4 8.1-2 3.2-3.8 4.4-2.7 5.3q2 1.4 6-.2c2.4-1.2 3.1-3.3 3.5-5l-1.2-2.1-1.3 1.2z"/>
  <ellipse cx="274" cy="158.6" fill="#d4af3a" rx="1.8" ry="1.6"/>
  <path fill="#d4af3a" d="M270.3 155.5c1.6 0 2.4-.8 4.2-.6q3.3.4 8.6 3.3a15 15 0 0 0 9.8.9q1.5-.6 2.9-1.4c4.2-2.4 3.2-7.1 3.2-7.1a17 17 0 0 1-10.7 3.2l1 .8c.5.6 1.7 1.4 1.3 1.7s-2-1.2-3.2-2.2a19 19 0 0 0-6.5-3.2c-3.3-1-7-1-9.5.4s-2.7 3-2.3 3.7q.3.6 1.1.5zm46.2 34.7c-.8-.2-2.1-.4-3.8-2a71 71 0 0 1-6.3-7q-.8-1.2.9-2c1.1-.5 2-2 2-2s-2.6-1-4.3-2.2a44 44 0 0 1-6.2-5.7c-.6-1-.3-1 .5-1.3q1.1-.6 1-.8c-.1-.2-1.8-1.2-3.5-2.6l-4-3.6c-2.6 1-6.7.6-8.9.2-3.8-.7-6.6-2.3-6.6-2.3l-.6 1.8c-.5 1.2-2.3 1.8-4 .7s-1.4-3.7-1.4-3.7-1.5-1-4.4-2q-4.3-1.7-7.8-.2c-2.4 1.1-3.6 4.4-3.6 7 0 2.4 1.4 1.3 1.6 1s.9-2.1 3.9-2.6 5.7 1 9.2 3.8 4.1 3 5.9 4.8c1.7 1.8.3 2.7-2.6 3.7-3 1-6.8-1-6.9-.9-.6.3 1.3 3 3.8 4 2.6 1 5.8.3 8.3-.8 1.7-.6 2 0 2.6.6a15 15 0 0 1 4 9 4 4 0 0 0 2.6-3c0-.6.2-1.8 1.2-1 1 1 1.7 6 1.7 8.2s-.7 5.3-.7 5.3h.7l2.3-1.2c1.1-.7 1.2 0 1.2 1.3s.4 3.6 2 7.8 4.1 5.5 4.1 5.5.5-.8 1-2.5.8-4.8.8-7.7c0-2.8-.8-8.8-.8-8.8s3.5 4.2 7 5.2c3.6 1 7.2.4 8.7-1.3s.1-2.5-.6-2.7"/>
  <path fill="#d4af3a" d="M293 201s-1 2.5-1.7 3.3l-.8 1s1 1 2.6 1.4l3 .8s-1.8-2.4-2.4-4.1l-.7-2.3zm21.4-1.3-.8-2.1a15 15 0 0 1-8.2-1.7s1.7 3.3 3.3 4.5l1.9 1.2s-1.7.3-3.9-2c-2.2-2-3.1-4.6-3.1-4.6s.5 5.8-.4 9.3l-1.1 4s4.6.9 9.8-.6c5.2-1.4 5.6-1.9 5.6-1.9s.6-.1-.2-1.2a28 28 0 0 1-2.9-5z"/>
  <path fill="#b96b29" d="m305 187-1.8-2.3s-.5.5 0 1.3a15 15 0 0 0 4.3 3.7 11 11 0 0 0 3 1.2v-.4s-3.9-1.7-5.5-3.5m-6.3 12-.4-8.3c0-1-.7-.8-.7-.8l-.8.3 1.6 10.6c.1 1.2.7 1 1 1-.6-.3-.7-2.5-.7-2.8m-9.8-31.4c-.6-.6-2-1-.7.4s3 3.2 3.5 4.7c.5 1.4.8 3.3 0 2.9s-1.5-.4-2.4-1.2a15 15 0 0 0-3.2-2.1c-.7-.2-2 0-1 1a25 25 0 0 0 4 3.6l4 2.6 1.9 1.3s-.9-6-2.5-8.5a26 26 0 0 0-3.6-4.7m-32 99.2a7 7 0 0 1-2.8 1.3s-.8 0-.8.2 1 0 1.8-.1a8 8 0 0 0 2.6-1.4c.5-.4 1.2-.8 1-1.4-.3-.6-.6.5-1.8 1.4m10.3 5.5-2.2 1.8-1.3.7q-1 .4-.9.6 0 .3.9 0c.9-.3 2.7-1.7 3.4-2.3q1.1-.7.7-1t-.6.2M225.3 198c.4.4.8 1 1 .9q.3-.3-.5-1l-.8-.9-1.1-1.5c-.4-.4-1-.7-.3.3zm-3.2 7 1.4 1.3c.5.5.8 1.1 1.1.8s-.7-.9-1.2-1.5l-1.4-1.4-1.2-.8zm1.2 11.2c.8.9 2 1.1 2.1.8q.3-.5-.7-1l-2.3-1.4-1.4-1.1q-.7-.7-1-.6c-.1.1 1.1 1.5 1.5 1.7q.6.3 1.8 1.6m2.3 9q.2-.5-.6-.5l-1.6-.2s-1.3-.5-1.3-.2c-.1.3 1 .8 1.5.8l1.4.4q.5.2.6-.3m1 9.8c-1.4 0-2.6-.3-2.7 0-.1.1.6.5 1.3.7q1.4.4 3 .4c1 0 1-.2 1-.6 0-.5-1.2-.5-2.6-.5m11 10.8q-.3-.2-1.5 0-1.4.5-2.8.5l-2.4-.1-.9.2q.2.2 3 .4c1.7.2 2.9-.2 3.7-.3q1.2-.3 1-.7zm4.6 7.6a6 6 0 0 1-2.2.4l-2.2.3s-.8 0-.6.4c0 .3.3 0 1-.1h2.3l2.5-.5c.7-.1 1.5-.5 1.2-1s-1.2.2-2 .5m8.9 5.8-2.4 1.8-1.2.6q-.9.6-.6.8c.2.2.6-.3 1-.5.5-.1 1.8-1 2.5-1.6s1.6-1 1.5-1.5q-.2-.5-.8.4m-14.8-74.8 1.7 2.3c1.6 1.9.7.1.3-.4l-3.4-4.5c-.8-.9-.9-.5-.5 0zm-3.2 9.8c.2-.2-.3-.4-1.2-1.5l-2.6-3.3s-.5-1-.7-1c-.1.1.6 1.8 1.3 2.5s1.7 2 2.2 2.7q.6 1 1 .6m4.2 18.5c0-.5-1.7-.5-2.5-.6l-2.2-.5s-1.6-.3-1.7 0q0 .2 1.2.5l3.4.8c1 .1 1.8.3 1.8-.2m-4.2-10q1.6 1.4 2.5 1.7.8.8 1.4.5.3-.6-1.3-1.1-1.5-.8-1.4-.9l-1-.5c-.6-.3-1.4-.6-.2.3m9.9-6.5-1.4-1s-.8-.8-1-.5 1 1 1.5 1.6c.6.5 1.6 1.9 2 1.6.6-.3-.4-1.1-1.1-1.7m-6.5 25.7-1.6.4q-1.1.3.5.4c1.1 0 1.5-.3 2.7-.5q1.6-.2 1.3-.7t-1.2 0zm1.7 9.3c0 .2.8 0 1.4-.2s1.8-.9 2.5-1q.9-.3.7-.8c-.2-.5-.8 0-1.7.2s-2 1.2-2 1.2-.8.4-.9.6m12 5.6q1.3-.7.7-1-.3-.5-1.2.2l-2 1.5-1 .5q-1.1.4-1 1c.1.1 1.2 0 1.7-.6s2-1 2.8-1.6m5.7 7.5c.3-.3 1.3-.6 1.8-1 .4-.3.7-1.3.3-1.4q-.3 0-1.3 1l-3.5 2.4-.7.3c-.8.2-.4.5.2.4q.8 0 1.8-.7zm8.3 7.1a10 10 0 0 0 2.3-1.7c.5-.4 1.1-1 .7-1.3q-.4-.3-1.3.6l-2.1 2.2s-.3 0-1 .7c-1 .7 0 .5.2.3z"/>
  <path fill="#d4af3a" d="m295.2 143.5 3.2 1.4 3.4-2.4-4-1z"/>
  <ellipse cx="309.2" cy="142.1" fill="#b96b29" rx="3.2" ry="3.1"/>
  <circle cx="309.2" cy="141.4" r="1.9" fill="#d4af3a"/>
  <path fill="#d4af3a" d="M302.4 131.4c.9.3 2 .2 2 .2s.3-1.4-.5-2.1l-2-1.7-.5-.6-.1 2c0 .8.3 1.9 1.2 2.2z"/>
  <circle cx="304.2" cy="133" r=".6" fill="#d4af3a"/>
  <path fill="#d4af3a" d="m299.8 132.4-.8.9s.6 0 1.2.4q.8.7 1.8.6c.7 0 1-.7.8-1q0-.8-1.5-1.3c-1-.4-1.3 0-1.5.4m2.2 3.7c-2 .2-4.7-2-4.7-2q-.4 2.6-3 3l.1.1s1.6.8 3.5 1.1a7 7 0 0 0 2.5-.2c1-.2 2.3-.5 3-1 1.2-.7.8-2.6.8-2.6s-.2 1.5-2.2 1.6m-7.9-2c-.8-.3-2-.9-2.6-1-.5 0-1.2 0-1.1.9s1.1 1.4 2 1.4q1.3 0 2.1-.6 1-.4-.4-.7m-6.3-3.4q-1.5-1-1.7-.9c-.2.1-.6 1.6-.3 2.6q.5 1.3 2 1.2c.8 0 2-.5 1.7-1.2a5 5 0 0 0-1.7-1.7"/>
  <ellipse cx="288.6" cy="135.1" fill="#d4af3a" rx=".7" ry=".5"/>
  <path fill="#d4af3a" d="M290.6 127.3a11 11 0 0 1 2-9.3c2.5-3.6 7-5.1 7-5.1l1.5-1.8c1.4-1.5 4.2-3.4 4.2-3.4l-5.2 1.5a2.3 2.3 0 0 1-2.2 2.4q-.8 0-1.3-.4c-1 .1-4.4 2.2-5.3 2.9l.3 1.2a2.3 2.3 0 0 1-2.2 2.3q-.6 0-1-.2l-.3.5-1.7 3.7q1 .6 1 2-.2 2.1-2 2.3v1.5c.1.7.4 1.2 1.7 1.6 1.3.3 3.1 2.6 3.1 2.6.1 0 1-1.6.4-4.3"/>
  <path fill="#d4af3a" d="M298.6 110.3q.8-.7.2-1.4-.7-.5-1.5.1-1 .8-.2 1.4.6.5 1.5-.1m-8.5 5.7q.9-1 .3-1.7-.8-.6-1.8.1c-1 .7-.6 1.3-.2 1.7q.7.6 1.8-.1z"/>
  <circle cx="285.1" cy="123.2" r="1.3" fill="#d4af3a"/>
  <path fill="#d4af3a" d="M313.3 105q-1 .2-3.8 1.6 2.1.1 2.3 1.9c0 1-1.1 2.2-2.4 2.2a2 2 0 0 1-2.2-2.2l.1-.7-1.7 1.2a18 18 0 0 0-7.2 8c-2 3.8-2.8 8-2 10.4 1 2.5 4.2 3 4.3 3q-.2 0-.5-.8l.3-1.6v-2.1s.8-.1 1.2.4l1.4 1.7 1.6 1.5s.6-1 .6-2.1-.7-2.3-.9-4.3c-.1-2 1-5.5 2.8-8 2-2.6 5.5-5 6.6-5.5a2 2 0 0 0 1.3-1.7l.3-2c0-1.2-1-1.1-2-.9z"/>
  <path fill="#d4af3a" d="M309.2 109.5c.7 0 1.4-.7 1.4-1.3q-.1-1-1.3-1-1.3 0-1.4 1c-.1 1 .6 1.3 1.3 1.3m6.2 24.4q1.7.4 2.6-.2c.6-.4.7-1.3.1-1.8a2 2 0 0 0-2.1-.2l-2 1.3s.4.5 1.4.9"/>
  <path fill="#d4af3a" d="M318.6 135c-.4.6-.7.9-1.8 1-1 0-2.3 0-3-.8l-1.3-1.7h-1.2s-.4 1.7-1 2.1-2.5.6-3.3 0c-.9-.7-1.6-1.4-1.8-1.3q-.3.2.9 1.4c1.2 1.2 1.5 1.3 2.9 1.3h8s1.6 0 2-1q.7-1.4.3-1.7t-.7.7"/>
  <path fill="#d4af3a" d="M306.4 133.7c1.2.6 1.9.2 2.3-.3l.6-.8-1.7-.7q-.8-.7-1.5-.6l-.6.1s-.3 1.6 1 2.2z"/>
  <ellipse cx="300.7" cy="121.9" fill="#b96b29" rx="2.7" ry="2.6"/>
  <path fill="#b96b29" d="M305.3 112.7c-1-.7-2.6-.4-3.5.6-.9 1.1-.7 2.6.4 3.3 1 .7 2.6.4 3.5-.6.8-1.1.7-2.6-.4-3.3"/>
  <ellipse cx="300.6" cy="121.5" fill="#d4af3a" rx="1.6" ry="1.5"/>
  <path fill="#d4af3a" d="M304.2 113a2 2 0 0 0-2 .8q-.4 1 1 1.4c1.7.3 2.5-1.8 1-2.2m-40.7 206s-4.1 2-5.4 2.3l-1.6.4s-2.8 2.5-4.9 3.8a18 18 0 0 1-7.1 2.4c-3.2.4-12 .3-16 .1s-6.4.8-8.1 2.7-2.1 4.7 0 6.8c2.2 2.1 4.6 1 5.4-.2.8-1.3.4-3 0-3.7-.3-.8.7-1 1.8-1.1a24 24 0 0 1 10.7 2.3c1.3.7.6.8-.3.7q-1.4-.2-3.5-1.1-2.4-1-4-1c-1.6 0-.7.5-.5.9l1 1.6c.1.4-.3 1.9-.3 1.9l.5 1 .8-1.5c.2-.5-.1-1.5.1-2q.5-.7 1.7.4a7 7 0 0 1 1.8 3.5c.3 2-.3 3.3-.3 3.3s.8.7 1 1.1l-.3 2.3s.6.3 1-.7c.6-1 1.2-3 1.3-3.6s.6-1.9 1.4-1q1.3 1.6 1.5 2.6l.2 1s1.8-1.7 2.4-2.8a17 17 0 0 1 3.6-3.9c1.7-1.4 4.6-4.2 6-5.2s5.2-3 6.4-3.6c1.1-.7 1.3-.8 1.5-2.7s1.2-3.8 1.6-5.1zm-65.8-73.7c0-.4-.7-1.5-.8-2.1s-.8-.3-.8-.3-1.3.8-2.3 1c-1 .3-1 0-1.2-.6l-.5-3.2c-.2-1-.4-1-.8-.8l-2.4 1c-.9.3-.6.7-.3 1.2l1.6 3.1c.5.7 0 1-.4 1.3l-2.3.6q-1.3.5-.8 1c0 .3.8 1.7 1.1 2.3s.7.2.7.2 1.1-1 2-1.4 1-.3 1.2.4l1.5 4.8q.3.9 1 .4l1.6-.4c.5-.2.7-1.3.7-1.3l-2.5-4.4c-.5-1 0-1.1.4-1.2s1.6-.2 2.6-.5.7-.8.7-1.2zm22.3 96.5c-.1-.8 0-1.7-.6-2.3a8 8 0 0 1-1.8-3c-.3-1 .3-1.6.2-2.2s-1-.6-1.7 0c-.8.7-1.9 1.3-1.9 3.2s.7 4.2 3.4 5c2.6.8 2.6.2 2.4-.6zm2.7-.9s-.5-.3-.8.2c-.2.5-.2.7.5 1.9.7 1 1.2 1.3 2 1.8s.2-.5.1-.8l-.2-1c-.2-.5-.3-.5-.3-1.3s-1.3-.8-1.3-.8"/>
  <path fill="#d4af3a" d="M226 350c.5-.8 1-1 2.1-1.5a15 15 0 0 1 4.2-1c.7 0 2.5-1.4 2.2-3-.3-1.4-1.4-2-2.3-2.2q-1.6-.5-2.1.2-.4.8-2 1.4c-1.6.6-1.1.7-1.8 1-.6.1-.1.5-.7 1s-1.3 0-2.1-.3-1-.4-1.9-.4l-3.4-.2h-.7c-.6 0-.6 0-.9.6s.1 2.1.7 2.9 2.6 1 3.9 1.5l3 .8c1.2.1 1.3 0 1.8-.8m12.2 1.2c1-.7.4-2 .2-2.7s-1.7-.9-2.5-.9q-1-.1-1.5.4t-2 1.2c-1.2.3-2 .7-3.6 1.3-1.5.6-2 1.6-2.6 2s-1.9 0-1.9 0-.9-.2-1.2 0q-.4.5.6 1.5c.6.6 1.8.6 3 1 1.4.4 1.6 0 2.1-.3s1-1 1.8-1.6c1-.6 3-.7 3.9-.8 1-.1 2.6-.4 3.7-1.1m0-4.6c.4.4 1 1 1.3.3s1-2 .6-2.8q-.8-1.4-1-1.5l-1 3q-.6.6 0 1zm-4-7c0-1.2-1-2.8-1-2.8s-.3 1.2-.9 2.2l-1 1.6 1.7.4c.5 0 1.1 0 1.1-1.3zm-7.6 2.8q2-.4 2.7-1.3c.6-.5 1-1.9.6-2.6s-1.4-1.4-1.8-1.4h-.8s-.4 1.3-1 2q-1 .7-1 1.9c0 .8-.1 1.7 1.3 1.4m2.8-6.3a2 2 0 0 0-.6-1.9l-.8-.7-.2 1.6-.1.6.7.6c.4.1 1 .4 1-.2m-17.3-35.7 1-6a39 39 0 0 0-6.3-15.4c-2.4-3.8-5-10-6-13.2a37 37 0 0 1-2-10c0-2.3 1-3.5 1-3.5s.5-.6.1-1-1 0-1.7.6a8 8 0 0 0-1.5 2.6l-.3 1.1s-1.2-.3-3.3-.1q-3 .2-3 .8-.2.5 1.7 1.4c1.5.6 2.4.9 3.1 1.7.8.9 2.6 5.2 3.2 7.3s1.8 7.8 2.3 12.2a49 49 0 0 0 4 14.4c.8 1.5 4.5 8.5 7.7 7zm3.7 10.4c-1.4.8-1.3 6.4-.7 9.3s3.4 6.5 4.3 7.5 1 1 1.5.7l.7-.2s1.2-.5 2.1-1.2.6-2.5.4-4c-.1-1.6-1.4-4.8-3.6-8.5-2.2-3.6-3.3-4.4-4.7-3.6m1.5-4.5c0-1.9-1.6-3.2-3.4-3.2q-1.4 0-2.1.6c-1.9 1.7-.7 5.8 2 5.8q1.5.1 2.7-.8 1-1 .8-2.4m26.5 52.7a7 7 0 0 1-2.2-1.2 10 10 0 0 1-3.1-3c-.3-.7-.3-.7-1.4-.4-1 .4-2.5.3-3.6.4-1 0 .2 1.3 1 2.4.7 1.2.4 5.1.4 5.1l-.1.9q-.2 1 .2 1 .3.4 1.3-1c.8-.9 2.2-3.2 2.2-3.2l1.4.3c1.2.3 3.1.1 4.1-.2s.6-1-.2-1.1"/>
  <path fill="#d4af3a" d="M239.2 362q-.7-.1-1 .2l-.6 1.4q-.1.4.2.9l.8.5s.4.5.8.7.5-.4.5-.9l.3-1.9q0-.8-1-.9"/>
  <path fill="#1d5e91" d="M435 324.2q-2-.6-1.9-.8 0-.3-1 .7c-.3.8-2 1.8-2 1.8s-2.2.6-2.5 2.2c-.3 1.5.8 2 1.8 1.9 1.1-.2 3.7-.7 4.9-2.1 1.1-1.4 1.3-2.2 1.5-2.7s.4-.7-.9-1zm3.5-12.4a15 15 0 0 0-7.4-9.9l-2.1 7.5c-.5 1.8-.5 1.7.9 2l6.7 1.6c.9.3 2.4 1 1.9-1.2m-20.6-3.2c1 .1 1-.3 1.3-1.7l2.1-8.2s-4.5-.1-8.5 1.8c-3.9 1.9-5.6 5.4-5.6 5.4s1 .4 3.7 1 6 1.5 7 1.6zm-10.5 9.3-2.2-.4s1 3.8 2.7 6 3.5 3.2 7 3.3 6-1.9 6.5-3.4 1.1-2.6 1.1-2.6-6.2-.8-8.8-1.4z"/>
  <path fill="#d4af3a" d="m406.3 315.5 15.5 3q1.7.6 2.2.2c.3-.3.5-.5 1.6-.9s1.1-1.5 1.1-1.5l.4-2.2c.2-1 .8-1.4 2-.1 1.3 1.3 1.5 3.2 1.7 5 .3 2 3.2 2.4 4.4 2.6q1.5.3 2.3-1.3c.7-1 1-3.2 1.2-4.6s0-1.2-1.4-1.6l-9.3-2.2c-1.2-.2-1-1-.7-1.9.1-.8 2.8-9.2 2.8-9.2a19 19 0 0 0-7.7-2.3l-2.3 10c-.3 1.3-1.2 1.3-2.5 1-1.4-.2-11.3-2.5-11.3-2.5l-.8 1.8a16 16 0 0 0-1.1 5.2c0 1.2.4 1.2 1.9 1.5"/>
  <path fill="#d4af3a" d="M440.3 323.3c-1.3-.9-2.3-1.1-3 .5s-.7 4-2.4 5.6c-1.8 1.7-4.2 3.4-6.6 3.2s-3.7-.7-3.2-3.5 4.3-3.6 5.1-5q1.4-2.4-.6-4.2c-1.3-1.1-3.1-1.3-3.6-1a8 8 0 0 0-2.8 3.7c-.7 2-1.2 3.7-2.8 5a12 12 0 0 1-9 2c-3.1-.8-4.3-1.8-5.5-5-1.2-3.1-2.6-8.3-3.2-9-.7-.5-1.5-1-2.8 0-1.4 1-1.5 2.4-1.7 3.6q-.5 1.7 1.4 4.1c1.4 1.7 2.8 3.3 3.3 5s2 4.4-.1 4.5c-2.2.2-3.2.2-4.8-1.4-1.7-1.6-8.2-6-10-7.4l-2.5-2q-4.5 0-9-3.3s1.8 4.4 2.1 6.1l.3 2.6 9.1 4.6a168 168 0 0 1 10.3 5.8c2.5 1.5 4.7 4 9.1 3 4.5-.9 13.5-3.6 16.5-4.5 2.9-.9 11-2.9 14-5 3-2 3.2-1.9 3.7-4q.7-2.8-1.3-4m-17.2-31 2.2-.3c1.5-.1 1 1.3.7 1.9l-1.4 2.7c-.6 1 .2 1.2.6 1.4l2.3.6c1.3.3 1-.6 1-1l.3-3.8c.1-.9 1-.6 1.2-.5l1.7 1q1 .3 1-.4l.8-2c.2-1-.4-.8-1-.8h-2.4c-1 0-.4-1-.4-1l1.3-2.1c.6-.9.4-1-.2-1.2l-2.8-.7q-.7-.1-.7.3l-.1 2.7c0 .7 0 1-1 1q-1 0-2-1.1c-.7-.8-1-.5-1-.2l-.8 3c-.2.7.1.6.6.6zm4.8 21.8s-.1 1.7-.3 2.3c-.2.7-.6 1.6.1 1.8q1.2.4 1.8.4c.5-.1.3-1 0-1.7a6 6 0 0 0-1.1-2.2zm10.5 7q.4.7 1 .7.8.3 1-.5.3-1.2-.5-2.2c-.5-.8-.8-1.3-1.1-.2q-.7 1.4-.4 2.2m-36.7-7 1.4.4s0-1.7.3-2.8c.2-1.2.7-2 .3-2q-.6 0-1 .9c-.3.5-1.1.6-1.4 2s.1 1.4.4 1.4z"/>
  <circle cx="408.9" cy="311.2" r="2.3" fill="#b96b29"/>
  <circle cx="415.5" cy="312.8" r="2.4" fill="#b96b29"/>
  <circle cx="434.6" cy="316.9" r="2.4" fill="#b96b29"/>
  <circle cx="422.1" cy="314.4" r="2.4" fill="#b96b29"/>
  <circle cx="423.8" cy="308.6" r="2.4" fill="#b96b29"/>
  <circle cx="425.5" cy="302.9" r="2.4" fill="#b96b29"/>
  <circle cx="409.1" cy="310.9" r="1.2" fill="#d4af3a"/>
  <circle cx="415.6" cy="312.6" r="1.2" fill="#d4af3a"/>
  <circle cx="434.8" cy="316.6" r="1.2" fill="#d4af3a"/>
  <circle cx="422.2" cy="314.1" r="1.2" fill="#d4af3a"/>
  <circle cx="424" cy="308.4" r="1.2" fill="#d4af3a"/>
  <circle cx="425.7" cy="302.6" r="1.2" fill="#d4af3a"/>
  <path fill="#d4af3a" d="m349.5 359.1-5.2-3.6a12 12 0 0 1-3.9-4h1q1-.1 1-1.5.1-1.3-.2-4.1c-.2-1.8.3-3.3.3-3.3s1.3 1.1 3.1 2c1.9 1 2.6.6 2.6.6l.5-1.9 2 3.7c1 2 4.1 4.2 6.3 5.8 2.2 1.7 4.6 3.4 6.4 4s.8 1.5.8 1.5-1.8 1.8-6.5 2.7c-4.7.8-7-1-8.2-1.9"/>
  <path fill="#d4af3a" d="M333.2 357.3q2.6-.1 3-2.6c.2-1.2-.1-5.7-.1-5.7l1.2 1.2c.6.8 2 1 2 1s.2.6.9 1.6a9 9 0 0 0 3 3.2c1.6 1 3.5 2.2 4.7 3.2a28 28 0 0 0 4.2 3.1 7 7 0 0 1 3.6 4.7c.6 2.4.1 3.1-1.7 3s-2 0-5-.7c-3-.8-7.3-4.1-10.4-6s-5.4-6-5.4-6"/>
  <path fill="#d4af3a" d="M325 360s1.2-1.6 1.6-3.4l1.4-5.4 1.4 3.3a5 5 0 0 0 2.8 2.7s0 .9 1.5 2.7a21 21 0 0 0 5.6 4.8c2.2 1.2 5 3 6.5 5.1 1.5 2.2 1.6 4.4 1 5.4-.8 1-1.8-.1-3.2-.9-1.5-.7-5.6-1.3-11.2-4.4-5.6-3-7.5-9.9-7.5-9.9z"/>
  <path fill="#d4af3a" d="M322.5 372.7c-1.6-2.4-1.8-8-1.8-8l1.3-1c.7-.7 2.2-2.9 2.2-2.9l2 3.8c1 1.8 1.4 2.4 3.6 4.3 2 2 5 3.9 6.1 6 1.3 2 .6 6.1-.2 7.5s-2 1-3.1-.1L329 379c-2.1-1.7-5-4-6.5-6.3"/>
  <path fill="#b96b29" d="M341 325.3c-.8-1.7-1.8-3.7-2.5-4.8l-1.3-2.2s2 1.8 2.8 3.1q1.2 2 1.6 4 .6 2.3-.6 0zm-8 1.5-.5-1.9s-.3-1-.2-1.1q.5-.2 1.6 2.5c.6 1.8 1.5 4.5 1.3 4.6s-1.9-3-2.2-4.1m-6.3 5-.4-.8s-.6-2-.6-2.5.2-1 .7.1.6 2.2.7 2.6c.1.5.7 2.1.5 2.3s-.5-.9-1-1.7zm19.5 19.2.9-.5 1.2 1.5q1.2.8 2 1.7a8 8 0 0 0 2.8 2.3q2 1 1.5 1.1c-.2.2-1.1-.3-1.1-.3s-.4 0-2-1c-1.5-.9-1.9-1.4-2.9-2.3zm-6.8 8.1c-.6-.6-1.2-1-.9-1.4q.6-.5 1.3.2l2.9 2.6 2 1.5c.7.6 2.3 1.4 3 1.8s0 .5 0 .5l-1.2-.5-2.4-1-1.7-1c-1-.7-2.4-2-3-2.7m-7.8 5.5c-.5-1 0-.8.8-.4.9.3 2.8 2.4 3.9 3.1q1.5 1 3 1.6c.8.4.8.7.8.9q-.1.3-.8 0l-1.7-.9-1-.2q-.8 0-2.4-1.6c-1.1-1-2.1-1.5-2.6-2.5m-3.7 7.2c1.4.8 3.8 2.7 4.4 4q1 1.9.9 2.3c-.3.2-1-.2-1.2-.7l-1-1.2s-2.4-2.4-3.2-3a8 8 0 0 1-2.7-3c-.3-1 0-1.4 0-1.4s1.4 2.1 2.8 3"/>
  <path fill="#c52126" d="M365 170a22 22 0 0 1 8.3-2.6c3.6-.3 6.4.2 9.5 1q3.1.9 5.6.3c2.6-.7 4.6-3 5.3-6 0 0 2.4 3.1 0 6.5a7 7 0 0 1-4.3 2.9c-5.1 1-10.1-2-14.3-2.4-4.1-.2-7.3 2.4-7.3 2.4s-1 .8-2.4 0q-2.1-1.1-.4-2.2z"/>
  <path fill="#d4af3a" d="m379.6 317.5 1.2-.2c.7 0 2.2-.6 2.7-.8q.9-.4 1.6.3c.5.5 4.1 2.7 4.1 2.7h-6c-2.1 0-3.5-2-3.5-2z"/>
  <path fill="#d4af3a" d="M362.6 316.4v-.5l.8-1.8s1 .6 1.8 1.5c1.2 1.3 2.5 3 3 3.7 1 1.3 2.5 2.5 1.3.5s-1.6-3-2.6-4.4l-1.6-2 3.4-.5c2.5-.3 4.2-1.3 5.3-2l3.3-1.9s4.3 1.9 6 2.3c1.6.4 2.5.6 1 1.4-1.6.8-3 1-3.7 1.5a12 12 0 0 1-4.6 1.2c-1.5 0-4 0-3 1a22 22 0 0 1 4.2 13l-.1 2.5s-1.8-2-6.6-5a71 71 0 0 0-7.4-4.4c-.9-.4-1.3-.4-1.2-1.5z"/>
  <path fill="#d4af3a" d="m344.4 302 .8-.4h.3c.5.3 3.4 2.3 4.6 4.2s2.4 2 1 0a18 18 0 0 0-3.2-4.2l-1-.8a53 53 0 0 0 7.3-4.2q.6 1.1 1.7 2.5c1 1 3.2 2 3.2 2s-1.8-2-2.4-3.3l-.8-2.5a32 32 0 0 0 4.8-4.6c.3 1.3 1.3 4.2 4.2 7.4 3.7 4.2 11.2 6.3 11.2 6.3s2.6.3.5.9c-2.1.5-3.6 1.5-7.8.8l-5-1.1c-.5-.2-2 0 0 .7 2.1.8 7 1.5 8.8 1.4s4.4-.6 1.7.8c-2.6 1.4-3.7 2-5.3 2s-2.3.5-4 .5c-1.5 0-2-.3-3-.5q-1.8-.3-1.9.6c0 .4 1.5 1.7 1.5 4.7q0 4.7-.6 6c-.3 1-1 2.4-1.4 3.2s-.6 1.7-1-.1-1.5-4.4-1.9-6.1l-.8-2.7c-.1-.9-1.1-1.6-.6 0l1.2 5.2c.4 1.5 1.1 4.2-.2 2-1.3-2-6.4-7.7-7.2-8.8l-2.1-2.8c-.7-.8-2.4-1.9-3.2-3.1a29 29 0 0 0-4-4zm69.5-129.2c-.1 3.1-3.5 9-5.5 12.2q-2.9 4.5-2.1 4.6c.3.2 1.1-1.4 2.2-2.8l4.9-7.2c1.7-2.5 4.2-8.4 4.6-8.9s.4-.9 1.3-.2 2.6 7.2.5 11.6c-2 4.4-5 7.6-6.2 9.2s-3 4-2.7 4.1c.3.2.7-.4 2.3-2a47 47 0 0 0 9.6-12.5q.3-.5.8 0c.5.5 1.4 1.8 1 5.3a17 17 0 0 1-5.3 10.2c-2.3 2.4-4.6 4.5-4.3 4.9.4.3 2.7-1.8 4.3-3.3 1.6-1.6 5.6-5.4 6.4-6.5 1-1 2.2-.5 2.1 3.7 0 4.3-4.7 8.5-6.7 10.9-2 2.3-4.3 3.7-4.1 4.2s2.1-.7 3.4-1.6l7-4.6c.9-.7 1.3.6.1 4.6s-4.6 7.2-6.7 8.7c-2 1.5-5.4 3.3-5.2 3.8q.5.4 3.5-1.1c2-1 4.3-1.8 6-2.3 1.6-.5 1.6.7 1.6.7s.4 3.5-2.1 6.2a13 13 0 0 1-8 4.3c-2.6.5-3 .6-3 1s.4.5 1 .5l5.3.2q3.5 0 3.5 1.6c0 1.6 0 2.3-3.3 4.6-3.5 2.3-7.3 2.6-8.9 3s-1.6.4-1.3.9 1 .4 3.6.7c2.5.2 4 1.2 4.4 2 .3.6-.2 2.6-2.3 4q-2.9 2-8.7 1.6c-4-.3-5-.3-5.2.3q0 1 3.2 1.2c2 .4 3.6.4 4.7 1.3s.3 2.9-1.7 4.3c-1.9 1.4-6.7 1.4-8.7 1.3-2-.2-5.1-.9-5.3-.4s1.5 1.4 3.5 2.1c2.1.8 2.7 1.2 3.1 2.1s0 1.7-2.4 2.6a12 12 0 0 1-8 0q-2.7-1.2-3.2-.8-.3.5.4 1.1c.4.5 2 1.8 4.1 2.3 2 .6 2.3.6 3 2.2s-1.1 3-4.9 3.2c-3.7.1-8.7-1.4-10.3-2.3q-2.2-1.4-2.5-.8-.5.3.6 1.1c.8.6 3.3 2.5 4.6 2.8s1.4 1.3 1.4 2.1c0 1 .4 2.6-3 3.5-3.3.8-7.3.2-10.9-2.4a8 8 0 0 1-2.2-2 28 28 0 0 0-.3-8q1.2 0 3.4-.9c2-.8 2.8-2.6 3.3-3.6s1.2-1 2-.8q1.1.5 2.7.6a8 8 0 0 0 5.3-2.8c1.7-2 1.4-4 1.5-5 0-1 1.6-.3 2.4-.3s3.2-.4 5.3-1.9c2.2-1.4 2.2-3.4 2.4-4.3q.5-1.2 1.7-1.6c.7-.2 1.7-.5 3.2-1.7s2-3.5 2-4.4c.2-.8 1-.8 4-2.4s2.8-4.7 2.6-6c0-1.3-1.5-2.3-1.5-2.8s1-.6 2-1.2 3.6-1.6 3.6-5.4c0-3.7-2.4-4.1-2.4-4.1l1.5-.8c1-.6 3.7-2.5 3.7-4.7s-1-3.2-1.7-3.8-2.7-1-2.7-1 1.2-.9 1.8-2.6c.5-1.7.7-3.9-.6-5.4s-3.4-1.6-4.5-1.6-2.2.6-2.6.3q-.6-.3 0-1.5c.4-.8.4-3 .1-3.7s-.4-2.2-3.3-3.2-5.9 1-6.8 1.6c-1 .5-.5-.8-.5-1.7 0-1 1.9-3.3 4.1-6.6 2.2-3.4 3.2-5.1 5.7-10.2A66 66 0 0 0 409 159c.4-1.6 1-.8 1-.8s.7.2 2.2 4.1a25 25 0 0 1 1.7 10.5"/>
  <path fill="#d4af3a" d="M363.4 241.4c1.7-.1 4-1 5.7-3.6 1.7-2.5 4.3-3 8.8-3 4.5.1 6.6-2 7.7-5.2 1-3-.2-6.6-4.8-8.9-4.5-2.2-6.6-4.7-6.8-8.6-.1-3.9 4.6-8.7 9.3-14.1s8.5-13.2 8.5-13.2 1.4 1.8 1.4 3.7c0 1.8-.7 3.7 0 4.2s.9-.8 3.7-2c2.7-1.2 5-1.4 6.7.6s0 5.4-1.6 7c-1.5 1.7-2.8 3-2.4 3.5s2.8-.9 3.5-1.4 2.6-2.5 5.3-2.3 3.6 1 3.9 3.3-2.4 4.2-4.2 5.1q-2.6 1.4-2 2 .7.3 1.7-.3a8 8 0 0 1 4.3 0c1.4.6 3.6 2.5 1.6 4.8-2.1 2.3-6.4 3.2-7.3 3.3-.8.2-1.3 0-1.4.6s1.8.7 4.2.8c2.3.1 3 2.4 2.7 4-.4 1.8-4.3 3.7-6.4 4-2.2.4-3 0-3.1.7q-.3.8 1.4 1.2c1.2.3 3.6.6 4 2.5s.5 2.7-1.3 4.4c-1.8 1.6-4.7 1.4-5.6 1.2s-1.9-1.1-2.8-.3.8 1.6 2.3 2.6 1.4 3-1.1 4.4-5 .9-6 .5c-1-.3-2.5-2-3.2-1-.7 1.1 2.2 1.5 3.4 3 1.2 1.4.8 3.8-1.6 5.3s-6.4.4-7.1-.2q-1.2-1-2-.3c-.6.5.2 1.9.7 3 .5 1.3 1.5 4.8-2.2 6.2s-6.9-1.7-7.5-2.3q-1-.8-1.7-.5-.6.5.2 1.4c.4.6 1.4 3.2-1.2 5a6 6 0 0 1-4.7 1q-1-2.9-2-7.2h.5q.5.2.5.7-.1.4.2.4c.3 0 .3.2.8.5q.6.6 1 .5c.3-.2-.9-.8-1.2-1.2s-1-1-1-1.4q0-.5-.8-1.1l-.5-.6-1.2-7.2-.4-5.5zm73.7-53.8c-3.9 7.8-9.3 12.1-9.3 12.1l1-3.2c.3-1.4.1-2.9.1-2.9s1.4-1.7 3.9-5.6 3.8-9.6 3.8-9.6-2.3 5.7-4.1 8.8c-1.9 3-4 5.5-4 5.5s-.7-2.7-1.2-2.8q-.8-.2-1.4.8-.7.7-.8.6l1.5-2.8 1.6-2.2c1.4-2.3 4.5-6.6 6-10.9a169 169 0 0 0 5.7-18.3c.7-3.2 1.3-1.4 1.9.9s1.4 5.7.9 10.7a54 54 0 0 1-5.6 18.9m-5 21-3.5 2.5.5-1.7.3-2.9 2.9-2.5a42 42 0 0 0 5.6-6c2.9-3.6.5-1.4-1.9 1.2-2.3 2.6-6.9 6.3-6.9 6.3v-.8a3 3 0 0 0-.7-1.9c-.4-.6-.2-.6 2.3-2.6a74 74 0 0 0 17.6-24.4s1.5 9-4 18.7c-5.4 9.9-10.8 13-12.2 14.1m-28.5 56.3c-3-1.2-2.2-4.1-2.2-4.1s1.8.5 3.5 1.2a36 36 0 0 0 7.5 1.8c1.6 0 1.6-.2 1.7-.4s-1.3 0-3.7-.4a29 29 0 0 1-7.2-3.1q-1.1-.7.5-.7a5 5 0 0 0 2.3-.9c.4-.3 1.5.1 4.2.8a51 51 0 0 0 21.5.7c.7-.2 1.4.2-.7 3.7s-9.3 5.3-14.4 5.3-10-2.8-13-3.9m13.4-7.2c-5.2 0-7.2-1.5-7.2-1.5l.7-1.3c.7-1.1.6-2.9.6-2.9l3.4.6q3.3.6 7.5.1c4.2-.5 1.6-.8-.6-.5a29 29 0 0 1-7.8-1c-1.4-.5-.9-1 0-1.3s3.5-1.9 3.5-1.9 6.3.8 12.2.2 9.6-2.2 10.8-2.4c1.1-.2 1.1.3 1.1.3s.3.6-1.7 3.7c-2 3.2-6 5.3-9.4 6.3a50 50 0 0 1-13.1 1.6m1.3-12.2.6-1.3c.3-1-.6-1.9-.6-1.9s1.2-.3 5-.8c4-.5 4.2-.8 6.5-1.3q3.8-1 4-1.5 0-.4-2.2.6a94 94 0 0 1-14.3 1.9c-.4-.3-2-.7-2-.7l2.4-.5a8 8 0 0 0 3.2-1.3c.7-.5 1-.6 4.1-1 3.2-.3 5.8-1.3 11.5-3.4 5.6-2 10-4.6 11-5.5 1.2-1 1.1-.3.8 1-.3 1.1-.2 2.6-3.1 6-2.9 3.3-4.3 4.8-11.5 7.4s-15.4 2.3-15.4 2.3m21.4-17.6a41 41 0 0 1-15.5 6.4c-.3-.4.4-2 0-2.8-.3-1.1-1-1.1-2.6-1.2-1.5-.1-.5-.4-.1-.4l3-.7c2.5-.7 5.1-1.1 8.6-2.4 3.6-1.4 4.6-2.3 4.5-2.6s-1.6.8-4.9 2c-3.2 1.3-7 1.8-9 2.3-2.2.4-.4-.5.6-1s2.4-2.8 2.4-2.8 2.3-.4 6-1.5a49 49 0 0 0 10-4.2l3.2-2.2 5.2-3.7c1.3-1 .9-.2.7.4s-1 3.2-3 6.1c-2 3-2.7 3.8-9 8.3zm1-12.7c-6.2 5-11.7 6.6-12.6 7s-.8-.2-.7-.7l.3-2.2 4.8-2.8c2.5-1.4 5.3-3.4 7.2-4.7 1.8-1.3.7-1.2.1-.7s-3.1 2-5.7 3.6l-6.4 3.9s0-.9-.6-1.4-1.9-.4-1.9-.4l1-1.3c.5-.6 2.6-1.3 4.9-2.4s6.5-4.2 9.6-6.8 9.1-9.1 9.5-9.7q.6-.8.7.3c0 .6.3 1-.4 4s-3.4 9.4-9.7 14.3zM418.5 168q-1.1 2.2-2 3.6L415 174v-1.4q.3-1.2 0-3.5l-.2-2.3q.1-1.1.4-1.9l1.6-7c.4-2.7.9-6.4.8-9.7s-.5-1.6-.5 0-.1 4-.6 7.8-2.1 9.4-2.1 9.4-.1-.9-.6-2.1l-1.9-4.2c-.6-1.6-.4-1.9-.4-1.9s2.3-10.6 2.8-15.6l1.6-18.1c3.2 3.2 5.6 11.8 6 20 .4 6-.6 11.7-1 14q-.7 6.8-2.5 10.5zm7.2 16.8c0-2.4-.6-4.3-2.2-4.8 0 0 1.4-2.4 2.6-5.8a45 45 0 0 0 1.8-7.7c.9-5.6 1.6-11.5-.1-2-1.7 9.7-3.8 13-3.8 13l-2.4 4c.3-1.7.4-3 .3-4.9 0-1.9-.3-4.5-1-6.5 0 0 3-6 5-13a81 81 0 0 0 3.1-22.7s3 2.3 4 13.9a68 68 0 0 1-7.3 36.5m-33.2 88.6 1.9-1.3c1.5-.9 1-3.7 1-3.7l5.2 3.2c1.4.6 2.1 1 3 1.2 1 .3.7 0 0-.5-.8-.4-1-.7-3-1.4-2-.8-5.8-4.2-5.8-4.2l2.5-.1c1.6 0 3.6-.9 3.6-.9s1.6 1.4 8 4.2a50 50 0 0 0 11.8 3.5s-.6 3.2-3.7 4.3c-2.6 1.1-6 1.8-13 .2a44 44 0 0 1-11.5-4.5m-8.4 6.5c-.6-2.7 1-4.6 1-4.6l1.3 1.1c1 .9 2.3 2.5 5 3.9s3.7 1.2 1-.2a39 39 0 0 1-6.3-5.3l1-.4c1-.4 2.7.3 10 4.6 7.1 4.3 11.4 4.5 11.4 4.5s-3.2 3.9-12 3.6c-8.7-.3-11.9-4.5-12.4-7.2m-16.6-3.1s1 1.3 2.3 2.2 4.8 1.4 4.8 1.4l.8 1.2c.6 1 2.1 3 3.7 4 1.5 1.2 4 2 4 1.6.2-.3-1.3-.8-2.8-1.8s-2.9-2.6-3.9-3.7.5-1 .5-1h3.5c1.7-.2 1.3 0 1.8.7l2.4 3 4.4 5.1c1 1.2.3 1.5.3 1.5s-.5.7-4.4 1.2c-2.4.2-5 0-7.7-1.6a23 23 0 0 1-5.2-4.5c-4.7-5.1-4.5-9.3-4.5-9.3m-2 10.5 1.5 1.8s-.7-2-1.3-3l-.9-1.4q1-2.1 1.6-4.7c.4 1.4 1.7 5.5 3.4 8.1 2 3.2 3.8 4.4 2.6 5.3s-3.4 1-6-.2c-2.4-1.2-3-3.3-3.4-5l1.2-2.1q.5.2 1.3 1.2"/>
  <ellipse cx="-365.9" cy="158.6" fill="#d4af3a" rx="1.8" ry="1.6" transform="scale(-1 1)"/>
  <path fill="#d4af3a" d="M369.7 155.5c-1.6 0-2.5-.8-4.3-.6a26 26 0 0 0-8.5 3.3 15 15 0 0 1-9.8.9q-1.5-.6-2.9-1.4c-4.3-2.4-3.2-7.1-3.2-7.1a17 17 0 0 0 10.6 3.2l-.9.8c-.6.6-1.7 1.4-1.4 1.7s2-1.2 3.3-2.2 3.2-2.2 6.5-3.2 7-1 9.4.4 2.7 3 2.4 3.7q-.4.6-1.2.5m-46.2 34.7c.8-.2 2-.4 3.8-2a69 69 0 0 0 6.3-7q.8-1.2-1-2c-1-.5-1.9-2-1.9-2s2.5-1 4.3-2.2 5.6-4.8 6.2-5.7c.5-1 .3-1-.5-1.3q-1.2-.6-1-.8c.2-.2 1.8-1.2 3.5-2.6l4-3.6c2.6 1 6.6.6 8.8.2 3.8-.7 6.7-2.3 6.7-2.3l.6 1.8c.5 1.2 2.2 1.8 4 .7s1.4-3.7 1.4-3.7 1.4-1 4.4-2q4.3-1.7 7.7-.2c2.4 1.1 3.6 4.4 3.6 7 0 2.4-1.3 1.3-1.6 1s-.8-2.1-3.8-2.6-5.8 1-9.2 3.8-4.2 3-6 4.8c-1.6 1.8-.3 2.7 2.7 3.7s6.7-1 6.9-.9c.5.3-1.3 3-3.9 4s-5.8.3-8.3-.8c-1.7-.6-2 0-2.5.6a15 15 0 0 0-4 9 4 4 0 0 1-2.6-3c-.1-.6-.3-1.8-1.2-1-1 1-1.8 6-1.8 8.2s.7 5.3.7 5.3h-.7l-2.3-1.2q-1.3-.8-1.2 1.3c.1 2.1-.4 3.6-2 7.8s-4 5.5-4 5.5-.5-.8-1-2.5a33 33 0 0 1-.8-7.7c0-2.8.7-8.8.7-8.8s-3.4 4.2-7 5.2-7.1.4-8.6-1.3-.2-2.5.6-2.7"/>
  <path fill="#d4af3a" d="M347 201s1 2.5 1.6 3.3q.9 1.2.9 1c0-.2-1.1 1-2.7 1.4l-3 .8s1.8-2.4 2.4-4.1l.7-2.3zm-21.5-1.3.9-2.1a15 15 0 0 0 8.1-1.7s-1.6 3.3-3.3 4.5l-1.8 1.2s1.6.3 3.8-2c2.2-2 3.2-4.6 3.2-4.6s-.5 5.8.4 9.3l1 4s-4.6.9-9.8-.6c-5.2-1.4-5.6-1.9-5.6-1.9s-.6-.1.2-1.2a28 28 0 0 0 3-5z"/>
  <path fill="#b96b29" d="m335 187 1.7-2.3s.6.5 0 1.3a16 16 0 0 1-4.2 3.7c-1.6.9-3.1 1.2-3.1 1.2v-.4s4-1.7 5.5-3.5zm6.3 12 .4-8.3c0-1 .6-.8.6-.8l.8.3-1.5 10.6c-.2 1.2-.7 1-1 1 .5-.3.6-2.5.7-2.8m9.8-31.4c.6-.6 1.9-1 .6.4s-3 3.2-3.4 4.7c-.5 1.4-.8 3.3 0 2.9s1.4-.4 2.3-1.2c1-.7 2.6-2 3.3-2.1s2 0 1 1a25 25 0 0 1-4 3.6l-4 2.6-2 1.3s1-6 2.6-8.5a26 26 0 0 1 3.6-4.7m32 99.2c1.2 1 2.8 1.3 2.8 1.3s.7 0 .7.2-.9 0-1.8-.1a8 8 0 0 1-2.6-1.4c-.4-.4-1.1-.8-.9-1.4s.6.5 1.8 1.4m-10.4 5.5 2.3 1.8 1.3.7q.9.4.8.6 0 .3-.8 0c-.7-.2-2.8-1.7-3.5-2.3q-1-.7-.7-1 .4-.2.6.2m42-74.4c-.4.4-.9 1-1 .9q-.3-.3.4-1l.8-.9 1.1-1.5c.4-.4 1-.7.3.3zm3.1 7-1.3 1.3c-.5.5-.9 1.1-1.2.8s.7-.9 1.2-1.5l1.4-1.4 1.3-.8zm-1.2 11.2c-.8.9-2 1.1-2 .8q-.3-.5.7-1a24 24 0 0 0 4.6-3c.2 0-1 1.4-1.4 1.6q-.6.3-1.9 1.6m-2.2 9q-.2-.5.5-.5l1.6-.2s1.3-.5 1.4-.2-1 .8-1.6.8l-1.4.4q-.5.2-.5-.3m-1 9.8c1.4 0 2.6-.3 2.7 0q-.2.3-1.4.7c-.7.3-2 .3-3 .4q-1.2 0-1-.6c0-.5 1.3-.5 2.7-.5m-11 10.8h1.4c.8.3 2.1.5 2.8.5l2.4-.1 1 .2c0 .2-1.3.2-3 .4-1.8.2-3-.2-3.8-.3q-1.1-.4-.9-.7zm-4.6 7.6 2.1.4 2.3.3s.7 0 .6.4c-.1.3-.4 0-1-.1h-2.4q-1.6-.2-2.5-.5c-.7-.1-1.5-.5-1.1-1s1.1.2 2 .5m-9 5.8 2.5 1.8 1.1.6c.8.4.7.6.6.8s-.6-.3-1-.5l-2.5-1.6c-.7-.6-1.6-1-1.4-1.5q.1-.5.8.4zm14.9-74.8-1.7 2.3c-1.6 2-.7.1-.4-.4l3.4-4.5c.8-.9 1-.5.5 0zm3.2 9.8c-.2-.2.3-.4 1.1-1.5l2.7-3.3.6-1c.2.1-.6 1.8-1.3 2.5s-1.6 2-2.1 2.7q-.7 1-1 .6m-4.3 18.5c0-.5 1.8-.5 2.6-.6l2.2-.5s1.6-.3 1.6 0q0 .2-1.2.5l-3.3.8c-1 .1-1.9.3-1.9-.2m4.3-10-2.5 1.7q-1 .8-1.4.5-.4-.6 1.2-1.1l1.5-.9 1-.5c.5-.3 1.3-.6.2.3m-10-6.5 1.4-1s.9-.8 1-.5c.2.3-1 1-1.5 1.6-.5.5-1.5 1.9-2 1.6s.5-1.1 1.2-1.7zm6.6 25.7 1.5.4q1.2.3-.4.4c-1.6.1-1.6-.3-2.7-.5s-1.5-.3-1.3-.7q.3-.4 1.2 0zm-1.8 9.3c.1.2-.8 0-1.4-.2s-1.7-.9-2.4-1q-.9-.3-.7-.8c.2-.5.7 0 1.6.2s2 1.2 2 1.2l1 .6zm-12 5.6q-1.2-.7-.7-1 .4-.5 1.2.2l2 1.5 1.1.5c.5.2 1.2.7 1 1-.2.1-1.2 0-1.7-.6s-2-1-2.9-1.6m-5.6 7.5c-.4-.3-1.4-.6-1.8-1-.5-.3-.8-1.3-.4-1.4q.4 0 1.4 1l3.5 2.4.7.3q.9.4-.2.4c-.7-.1-1-.1-1.8-.7zm-8.4 7.1a9 9 0 0 1-2.2-1.7c-.5-.4-1.2-1-.8-1.3q.6-.3 1.4.6l2.1 2.2s.2 0 1 .7 0 .5-.3.3z"/>
  <path fill="#d4af3a" d="m338.2 142.5 4-1 2.5 2-3.1 1.4z"/>
  <ellipse cx="-330.8" cy="142.1" fill="#b96b29" rx="3.2" ry="3.1" transform="scale(-1 1)"/>
  <circle cx="-330.8" cy="141.4" r="1.9" fill="#d4af3a" transform="scale(-1 1)"/>
  <path fill="#d4af3a" d="M337.5 131.4c-.8.3-1.9.2-1.9.2s-.3-1.4.5-2.1l2-1.7.5-.6v2c.1.8-.3 1.9-1.1 2.2"/>
  <circle cx="-335.8" cy="133" r=".6" fill="#d4af3a" transform="scale(-1 1)"/>
  <path fill="#d4af3a" d="m340.2 132.4.8.9s-.7 0-1.2.4q-.9.7-1.9.6a1 1 0 0 1-.8-1q.1-.8 1.5-1.3c1-.4 1.3 0 1.6.4m-2.2 3.7c2 .2 4.6-2 4.6-2q.5 2.6 3 3v.1s-1.7.8-3.5 1.1a7 7 0 0 1-2.5-.2 11 11 0 0 1-3-1c-1.2-.7-.9-2.6-.9-2.6s.2 1.5 2.2 1.6zm7.8-2c.8-.3 2-.9 2.6-1 .5 0 1.3 0 1.1.9 0 1-1 1.4-2 1.4s-1.5-.3-2-.6q-.9-.4.3-.7m6.3-3.4q1.6-1 1.7-.9c.1.1.6 1.6.3 2.6s-1 1.2-1.9 1.2-2.1-.5-1.8-1.2q.5-.8 1.7-1.7"/>
  <ellipse cx="-351.3" cy="135.1" fill="#d4af3a" rx=".7" ry=".5" transform="scale(-1 1)"/>
  <path fill="#d4af3a" d="M349.4 127.3c.5-2.7.4-5.6-2-9.3a16 16 0 0 0-7-5.1L339 111c-1.4-1.5-4.3-3.4-4.3-3.4l5.2 1.5a2.3 2.3 0 0 0 2.3 2.4q.6 0 1.3-.4c1 .1 4.4 2.2 5.2 2.9l-.3 1.2a2.3 2.3 0 0 0 2.3 2.3l1-.2.3.5 1.6 3.7q-1 .6-1 2c0 1.3 1 2.3 2 2.3v1.5q.1 1-1.7 1.6c-1.3.3-3 2.6-3 2.6-.2 0-1.1-1.6-.4-4.3z"/>
  <path fill="#d4af3a" d="M341.3 110.3q-.6-.7-.1-1.4.6-.5 1.5.1c.9.6.6 1 .2 1.4q-.6.5-1.6-.1m8.5 5.7q-.8-1-.2-1.7.8-.6 1.7.1 1 1 .2 1.7t-1.7-.1"/>
  <circle cx="-354.8" cy="123.2" r="1.3" fill="#d4af3a" transform="scale(-1 1)"/>
  <path fill="#d4af3a" d="M326.6 105q1 .2 3.8 1.6-2.1.1-2.3 1.9c0 1 1.2 2.2 2.5 2.2s2.2-1.1 2.2-2.2q0-.4-.2-.7l1.8 1.2c4.2 2.8 5.1 4.1 7.2 8 2 3.8 2.8 8 1.9 10.4s-4.2 3-4.2 3 .4-.3.4-.8l-.2-1.6c-.2-1 0-2.1 0-2.1s-.8-.1-1.2.4l-1.5 1.7-1.5 1.5s-.7-1-.7-2.1.8-2.3 1-4.3c0-2-1-5.5-2.9-8a22 22 0 0 0-6.6-5.5 2 2 0 0 1-1.3-1.7l-.2-2c-.1-1.2 1-1.1 2-.9"/>
  <path fill="#d4af3a" d="M330.8 109.5c-.8 0-1.4-.7-1.4-1.3q0-1 1.3-1 1.2 0 1.3 1 0 1.4-1.2 1.3m-6.2 24.4c-1 .4-2.2.1-2.7-.2s-.7-1.3 0-1.8a2 2 0 0 1 2-.2l2 1.3s-.3.5-1.3.9"/>
  <path fill="#d4af3a" d="M321.4 135q.3.9 1.7 1c1.1 0 2.3 0 3-.8l1.3-1.7h1.3s.4 1.7 1 2.1 2.4.6 3.3 0 1.6-1.4 1.7-1.3q.3.2-.8 1.4c-1.1 1.2-1.5 1.3-3 1.3H323s-1.6 0-2-1q-.7-1.4-.3-1.7.2-.3.7.7"/>
  <path fill="#d4af3a" d="M333.5 133.7c-1.2.6-1.9.2-2.3-.3l-.5-.8 1.7-.7q.7-.7 1.5-.6l.6.1s.2 1.6-1 2.2z"/>
  <ellipse cx="-339.3" cy="121.9" fill="#b96b29" rx="2.7" ry="2.6" transform="scale(-1 1)"/>
  <path fill="#b96b29" d="M334.7 112.7c1-.7 2.6-.4 3.5.6.8 1.1.7 2.6-.4 3.3-1 .7-2.6.4-3.5-.6-.9-1.1-.7-2.6.4-3.3"/>
  <ellipse cx="-339.4" cy="121.5" fill="#d4af3a" rx="1.6" ry="1.5" transform="scale(-1 1)"/>
  <path fill="#d4af3a" d="M335.8 113q1.2-.2 1.9.8.5 1-1 1.4c-1.7.3-2.5-1.8-1-2.2z"/>
</svg>
