<svg xmlns="http://www.w3.org/2000/svg" id="flag-icons-ms" viewBox="0 0 640 480">
  <path fill="#012169" d="M0 0h640v480H0z"/>
  <path fill="#fff" d="M384.9 111h205.5l-.3 146.3c1.7 58.7-34.9 95.2-102.3 111.7-47.9-12-103-36.5-103.2-110z"/>
  <path fill="#00a2bd" stroke="#000" stroke-width="1.8" d="M389.4 115.4h196.4l-.2 140.2c1.6 56.3-33.4 91.2-97.8 107-45.8-11.4-98.5-35-98.6-105.4z"/>
  <path fill="#a53d08" d="M584.3 272.2c-7.2 53.7-48.6 77.2-96.5 89.7-42.5-11.4-88.2-29.6-97-89.5z"/>
  <path d="m480 141.5-.3-17.6 14 .1.1 17.5H532l.1 13.7-38.3.2-.3 161.4-13.6.1-.2-161.7-38 .2v-14z"/>
  <path fill="#ff9a08" fill-rule="evenodd" stroke="#000" stroke-width=".8" d="m449 278.8 35 36.3c12.1-13.3 3.7-63-12.2-72.1-1.9 5.9-5.1 13-8.6 15.2-7.5 5.2-26.1 11.2-19.9 15 1.4-1.9 5.1-3.7 6.9.6 2 6.9-7.8 7.3-7.8 7.3s-6.2-.8-7.3-7c-1-6.4 9.3-12.2 10.2-12.6.8-.3 14.3-4 16.6-15.9 2.9-11.8 5.8-10 6.3-10.2 17.7 1.7 29.2 33.3 29.9 55.5s-9 37-10.8 38c-1.7.9-42-47.9-42-47.9z"/>
  <path fill="#ff9a08" stroke="#000" stroke-width=".8" d="m474.6 245 .2 65.5m-4.2-64.2.3 59.4m-4.5-50.8.2 47.2m-3.7-43.9.2 39.1m-3.9-37.3v33m-4-30.4v26.1m-3.5-24v20"/>
  <g fill="none" stroke="#ffdf00" stroke-linecap="round" stroke-width="1.8">
    <path stroke-width=".8" d="m448.5 283 36 41.2"/>
    <path stroke-width="1.4" d="M486.3 257s16.4 35.7 1.2 65m-43.2-46.6s1.2-3.1 2.7-1.8m-5.5-7.3s-6.6 5.7-3 9.5"/>
  </g>
  <path fill="#008021" stroke="#000" stroke-width=".3" d="M494 175.4c2.3-2 3.6-3.3 5.1-3s3.5 0 5-.4a31 31 0 0 1 12-.4c1 .2 2.5.7 4.6 2.5s5.2 5 4.2 13.6-.7 12.3-1.2 17.2c-.8 8.5-2.7 15.5-6 15 4.5 8 5 15 8 20.5s4.8 16.8 3.7 29c-1.2 12.3-4.4 39.7 5.3 58.2-1.6 1.1-5.5 0-9-3.7s-5-3.6-7.8-1.4c-8.8 6.7-17 14.8-29.1 6.7-2.8-1.8-3.6-4-1.6-9.7 5-14 7.5-33.4 6.7-42.4z"/>
  <path fill="#ffe1cf" stroke="#000" stroke-width=".3" d="M502.3 166.8a10 10 0 0 1-.1 6.8 9 9 0 0 0 .5 8.4c2.7-4 6.6-3.2 9-5.4 2.2-2.3 2.7-4.5 4.4-5-1.7-1.5-4.3-3.2-3.8-7.5.6-4.4 6.7-8 1.2-14.6a8 8 0 0 0-13.4 1.2c-.3.8.2 2.4-.7 3.4a8 8 0 0 1-2.1 2q-1 .6-.2 1.6.3.4 1 .4l-.8 1.5q-.4.4.2 1c-.5 1.3.4 1.5-.2 2.5s-1.2 2 .6 3c.6.3 3 .8 4.4.7zm-22.5 23c-3.2.8-8.4-.6-12.3-.2-1.8.2-3.2-.7-3-2.4s.6-4.4.2-6.8a32 32 0 0 1 3.8-14.8 33 33 0 0 0 3.8-11.6c0-1.9.2-3.9 1.8-5 1.2-.7 1.4-1.4 1.8-2 1-1.5 2-1.8 2-1q.2.7-.5 1.6c1-.8 2.8-1.8 3.2-2 .4-.4 2.4-1.8 2.5-.4q1.3-.6 1.6 0 .2.6-.3 1c.6 0 1.2.9 0 1.8.7-.2 1.3.8.2 1.7-1 1-2.4 1.6-2.7 2.4s-3.2 2.9-4.3 3.3c-1.1.5-1.2 1.1-1.2 2.7 0 17.8-2 16.3-2 20.7 0 1-.3 2.1.8 1.8a15 15 0 0 1 4.6-.9v10zm.7 38.2c5.2-2.6 11.2-3.6 14.3-4.4a62 62 0 0 0 10.4-4.4c2.5-1.3 4.5-3 5.9-3.5a7 7 0 0 0 3.8-3.2 50 50 0 0 0 6.9-21.8c0-4-1-8.6-5-5.4a30 30 0 0 0-8.8 13.2c-1.6 6.4-3 7.9-3.3 9.1-.4 1.3-1.6 1.3-3.2 1.6a27 27 0 0 0-13.6 6.4 136 136 0 0 1-14.2 9.2c-3.7 2.1-4.4 2.3-5.2 4q-1.2 2.5-2.2 3.6-1.2 1.2-.8 2.6c.1.8-.2 4.2-.3 5.4s.3 1.4.7 1.5c.4 0 1-.2 1.3-1.6-.2 1.4 1.7 1 1.8-.1 0 1.5 2 .6 2-.8 0 1 1.7.3 1.7 0q.5-2 1.2-3.4c.6-1.4 1.3-3.2 2.7-4 1.5-1.2.8-2.4 3.9-4zm37.4 94.5c.3 1.3 1 2.7 1.2 3.6s-.2 1.1-.4 1.6a33 33 0 0 0-2.8 8.8c0 1.2-1 2.4-1.3 3.2q-.8 1.2.8 2.3c.4.3 2-.2 2.1-1q1.2.9 2.1-.5 1 .7 2-.7c.5.3 1.3-.3 1.6-.8.8.4 1.6 0 1.6-1.6q.1-.7.5-1.3.3-.7.3-1.7c0-.7.3-2 .9-2.8.6-1 1.5-2.5 1.1-4-.4-1.4-1-1.3-1.5-3.2-1.3-1.4-3-3.2-4.8-3.4-1.8 0-2.8 1.1-3.4 1.5zm-32.9 9.9c1.7 1.6 5.3 1.6 7.8-1-.9-.4-3-1.4-3.8-2a12 12 0 0 1-4 3z"/>
  <path fill="#870f00" stroke="#000" stroke-width=".3" d="M501.4 149c.6-4 3.5-4 5.3-3.5.8.1 2.6.3 4.4-.2 3.4-.9 6 .3 5.6 3.6 1 .7 2 2.3 1.7 3.7q-.3 2 1.4 2.1c1.3.2 4 1.8 2.2 4 1.7 1 3 3.7 2.1 5.4s-3.6 2.1-4.8.5c-1.3.6-3.3.7-4.6-.6-.9 1-3 .9-3.5 0q-.6-1.4-1.9-1.7c-.9-.3-1-2.8.4-3.1q-.1-1.3.3-2t-.8-1.8c-.8-.7-1.5-3-.7-4.4-1.4.5-4.4-.9-5-1.8q-1.2-1.4-2.1-.2z"/>
  <g fill="none" stroke="#000" stroke-width=".3">
    <path d="M502.3 166.8c2.2-.3 3-1.6 4.6-1.6m-9.4-4.7.5.3q.7.4 1.4.4m-1.3-3.1 1 .6m4.2-9.7c-1.3-1.3 2.2-3.8 6-.2.8.8 2.5.8 3 .6m-3.8 1.6c1.8-.4 4.3-.4 5.1 1.6s2.3.6 3.5 3c1.2 2.3 3 4.8 5 3m-7.4 5.4a4 4 0 0 1-.4-3.2c-.7-.8-.4-2.5 0-3.3m-4.6 1.7c0 .7 1 2 2.4 2.2m7.2 3.2q-1-1.4-.5-3.2"/>
    <path d="M510.9 153c0 1.1.6 2.5 1.6 3 .3.6 1.4 2.2 3.8 2m.4-9a11 11 0 0 0-5.2-2.6m-8.8 35.6c-2 2.7-3.2 6.4-2.4 11.6 1 5.2 2.4 12.8-1.3 16.2m18.6 10.1c-2.6-.7-6.4-.7-8.5.9-2 1.5-5.6 1.6-7.9.4"/>
    <path d="M512 219.6c-2.3.4-3.3 2.1-3.3 6.4 0 4.2-1 10.4-.2 16.6m-.6-21.1c-1.6.4-3.2.4-2.8 4.5m-5.1 0c.1-2.4 1-4.8 2.6-4.3m14.1 4.9c0-5.6-1.2-7.1-2.8-7 2.2 0 3.7.3 4.7 9.2.6 6.8 2 9 3.7 14.4 4.1 13.6 2 34.5 4.1 42m-12.9-57a71 71 0 0 1-.4 49.3c4.8 13.4 9.6 23.1 10.5 28.6m-23.9-48c.8-2.9-2.2-3.2.4-13.3q1.6-6.4.6-8.4"/>
    <path d="M500.7 242.4c-1 4.4 3.3 12.8 1.2 19m-5.5 1.1c0 4 .9 9 .7 13-.2 3.9 1.4 5.7 3.2 9.4 6.8 13.4 11.2 22.9 10.7 35.5-.2 2.4.6 7.2-1.8 8.6m-12.6 3.4c.7 0 1.4-.4 2.3-2.4a65 65 0 0 0 2.4-23m1.4 9.6c.4 2.6.4 8-1.3 12.4"/>
    <path d="M507.1 308.7c1 5.6 1 10.7.1 14.3m-2.4 0c.2 2.2 1.2 8-.5 8.5m9.2-35.3c4.3 6.7 7.6 23.2 11.2 26.6m-7.6-2.6c0-1.8-.1-4.4-1.2-5.6M471 239.4c.1-1.2-.1-2.4 1.3-4.4m-3.3 5.2c.2-4.4.1-4.8 1.4-6m-3.2 6.1c0-3.2-.3-4.3 1-6.3m14.9-88.8-4.5 3.4m5.8-2.4q-.7.2-5 3.6m5.1-1.8c-1 .4-2.6 2-4.2 3.2m-2.9-3.5-1.6 1.6M517.5 341c-.2-.2-.2-1.3.3-2.4m1.9 1.9c-.4-.3 0-1.7.2-2.6m1.7 1.9q-.7-.4 0-2m1.5 1.2q-.4 0 .1-1.8"/>
  </g>
  <path d="M500.5 152.7c.8 1 1.7 1 1.8 1.6.2.8.3.8.4 1s-.4.2-.6 0h-1.4c-.4 0-.8-.5-.6-.5q.4-.1.2-.4 0-.5.4-.7l-.1-.3c-.2-.3-.3-1-.1-.8zm.5-1.1a6 6 0 0 1 3.4 1.6c.7.8.1.6-.2.6s-1-.2-1.4-.6a5 5 0 0 0-1.9-1.2c-.3 0-.6-.4 0-.4z"/>
  <path fill="#012169" d="M0 0h320v240H0z"/>
  <path fill="#FFF" d="m37.5 0 122 90.5L281 0h39v31l-120 89.5 120 89V240h-40l-120-89.5L40.5 240H0v-30l119.5-89L0 32V0z"/>
  <path fill="#C8102E" d="M212 140.5 320 220v20l-135.5-99.5zm-92 10 3 17.5-96 72H0zM320 0v1.5l-124.5 94 1-22L295 0zM0 0l119.5 88h-30L0 21z"/>
  <path fill="#FFF" d="M120.5 0v240h80V0zM0 80v80h320V80z"/>
  <path fill="#C8102E" d="M0 96.5v48h320v-48zM136.5 0v240h48V0z"/>
</svg>
