<svg xmlns="http://www.w3.org/2000/svg" xmlns:xlink="http://www.w3.org/1999/xlink" id="flag-icons-mt" viewBox="0 0 640 480">
  <path fill="#fff" d="M0 0h640v480H0Z"/>
  <path fill="#cf142b" d="M320 0h320v480H320Z"/>
  <g fill="#fff" stroke="#000" stroke-width="96" transform="translate(161.8 160.6)scale(.0147)">
    <path fill="none" stroke="#cf142b" stroke-width="512" d="M-2048-7168h4096v3890.8A1094 964 45 0 1 3277.2-2048H7168v4096H3277.2A964 1094 45 0 1 2048 3277.2V7168h-4096V3277.2A1094 964 45 0 1-3277.2 2048H-7168v-4096h3890.8A964 1094 45 0 1-2048-3277.2Z"/>
    <path stroke="none" d="M2024-3275.2A1094 964 45 0 1 3275.2-2024v4048A964 1094 45 0 1 2024 3275.2h-4048A1094 964 45 0 1-3275.2 2024v-4048A964 1094 45 0 1-2024-3275.2Z"/>
    <path stroke-width="48" d="M-2024-7144h4048V7144h-4048zm-5120 5120H7144v4048H-7144Z"/>
    <path d="M-1792-6912h3584V6912h-3584zm-5120 5120H6912v3584H-6912Z"/>
    <circle r="3200"/>
    <circle r="2368"/>
    <g id="mt-a" stroke-linejoin="round" stroke-width="48">
      <path d="M3084-2565c-111 85-322 302-450 461l-119-74c163-141 389-350 514-499zm-101-185c-201 59-585 172-749 276l-36-52c69-99 147-506 144-622l125 28c-41 100-81 314-92 453 129-23 435-123 522-186z"/>
      <path d="M3240.8-2291.9h-158.6a600 330 45 1 0-242.3 173.3l112.1-133.7 138.1 138.1-154.5 154.4a1070 940 45 0 1-974.1-1283 1070 940 45 0 1 1279.3 950.9z"/>
    </g>
    <use xlink:href="#mt-a" transform="rotate(90)"/>
    <use xlink:href="#mt-a" transform="scale(-1)"/>
    <use xlink:href="#mt-a" transform="rotate(-90)"/>
  </g>
  <g transform="translate(161.8 160.6)scale(.0147)">
    <path d="M-2541 1790c-72-126-167-287-219-329 32-22 75-54 97-60-1 80 120 246 120 246l178-117c-50-77-94-136-130-159 44-32 91-59 104-62 1 39 24 104 92 184 0 0 166-88 220-156l70 114c-78 15-428 233-532 339m-247-1517c-187 34-282 193-250 372 32 181 194 305 372 275 178-31 279-195 245-385s-180-296-367-262m27 108c150-27 276 46 297 162s-72 231-223 258-271-69-288-166c-18-99 63-227 214-254m366-1100c-62 98-199 188-320 271-17-86-81-141-155-146-79-4-160 59-174 101-20 58-45 307-45 307 156-12 497 15 614 58l14-132c-77 20-251-16-251-16l4-58 180-142c23-18 158-144 162-234 1-28-23-21-29-9m-361 441c-71 2-219-6-260-24 16-143 60-194 136-187 70 7 144 47 124 211m682-1772c-136 11-306 139-302 249 1 58 21 138 98 196 76 58 155 75 218 63 61-11 162-96 161-143 0-46-108-174-176-174l113-121c29 70 145 172 188 185-49 117-110 239-238 298-128 60-261 57-382-57-114-108-70-316 2-397 79-89 226-127 229-196zm638-673 24 454s9 161-28 261l141-99c-55-44-44-179-44-179l228-122s108 69 97 153l194-79c-113-43-253-142-253-142zm73 141 208 138-203 109zm1018-474c-26 111 2 330 43 512 141-13 249-27 297-87l13 150c-139 0-292 16-432 38 2-205-19-474-77-590zm1059 67c-65 94-119 308-147 492 136 40 242 66 309 27l-43 145c-129-50-278-92-416-123 76-189 155-448 144-576zm1071 485-396 225s-140 81-246 93l151 80c15-68 141-119 141-119l212 149s-14 129-94 156l157 138c-11-120 14-291 14-291zm-94 128-31 249-189-133zm304 932-62-117c102-8 409-188 550-280l22 40-132 603c118-47 305-145 356-199l70 133c-131-19-374 101-558 213l-18-32 113-587s-305 138-341 226m930 872c-12-89-14-150-57-170l-5-37 109-18c45 117 96 443 89 527l-112 18-5-31c37-42 0-196 0-196-166 17-455 64-496 121l-26-154c59 20 350-11 503-60M2388 752c62-98 201-187 322-269 17 86 80 142 155 146 79 5 160-56 174-99 21-58 47-306 47-306-156 10-496-19-613-63l-15 132c77-19 251 17 251 17l-4 58-181 141c-24 18-160 143-165 233-1 28 23 20 29 10m365-439c71-1 219 8 260 26-17 143-62 194-138 186-70-8-143-48-122-212m-566 836-93 160c72-11 172 46 253 99 27 72 133 256 125 436l120-206c-53-24-115-50-155-243 158-59 276-78 326-50l106-180c-123 74-412 150-460 134-50-29-192-73-222-150"/>
    <circle cx="1475" cy="2361" r="125"/>
    <circle cx="-1475" cy="2361" r="125"/>
  </g>
  <g transform="translate(161.8 201.5)scale(.0147)">
    <path d="M195 268c-13 9-48-9-56-37 0 9-2 37-19 53-41 39-85 20-120 20s-79 19-120-20c-17-16-19-44-19-53-8 28-43 46-56 37-12-9-6-48 18-64-8 2-36 9-56-2-50-27-45-75-56-108s-43-69-18-120c10-21 36-32 44-35-29 1-56-27-52-41 5-15 44-21 67-3-6-7-20-31-16-54 10-56 57-66 85-87 29-21 53-62 109-54 23 3 41 24 47 31-10-27 8-62 23-62s33 35 23 62c6-7 24-28 47-31 56-8 80 33 109 54 28 21 75 31 85 87 4 23-10 47-16 54 23-18 62-12 67 3 4 14-23 42-52 41 8 3 34 14 44 35 25 51-7 87-18 120s-6 81-56 108c-20 11-48 4-56 2 24 16 30 55 18 64M-93 128c16 12-27 48-10 93 19 53 72 37 103 37s84 16 103-37c17-45-26-81-10-93s38 40 85 39c57-3 58-57 67-87 10-30 42-75-3-110-37-30-86 0-92-19s50-23 64-69c15-55-37-72-62-91-26-18-59-62-106-31-39 27-26 82-46 82s-7-55-46-82c-47-31-80 13-106 31-25 19-77 36-62 91 14 46 70 50 64 69s-55-11-92 19c-45 35-13 80-3 110 9 30 10 84 67 87 47 1 69-51 85-39"/>
    <path d="M0 199c-9 0-20-21-14-38-3 5-14 17-28 19-34 5-48-20-65-32-17-13-45-19-51-52-3-14 6-29 9-33-14 11-37 7-40-2-3-8 14-25 31-25-5-1-20-8-26-20-15-31 4-52 11-72 6-20 3-49 33-65 12-7 29-3 34-1-15-10-18-33-11-39 8-5 29 6 34 22 0-5 1-22 11-31 25-24 51-12 72-12s47-12 72 12c10 9 11 26 11 31 5-16 26-27 34-22 7 6 4 29-11 39 5-2 22-6 34 1 30 16 27 45 33 65 7 20 26 41 11 72-6 12-21 19-26 20 17 0 34 17 31 25-3 9-26 13-40 2 3 4 12 19 9 33-6 33-34 39-51 52-17 12-31 37-65 32-14-2-25-14-28-19 6 17-5 38-14 38M0 85c11 0 4 30 25 44 25 17 43-6 57-16s42-20 33-49c-7-25-37-27-34-38 3-10 29 6 50-10 24-19 7-43 2-59-6-16-6-46-37-47-26-1-37 27-46 21s15-26 6-50c-11-29-39-20-56-20s-45-9-56 20c-9 24 15 44 6 50s-20-22-46-21c-31 1-31 31-37 47-5 16-22 40 2 59 21 16 47 0 50 10 3 11-27 13-34 38-9 29 19 39 33 49s32 33 57 16c21-14 14-44 25-44"/>
    <circle r="48"/>
  </g>
  <g fill="none" stroke="#000" stroke-linecap="round" stroke-linejoin="round" stroke-width="36">
    <path stroke-width=".7" d="M137.9 185.8a588 588 0 0 1 48 0"/>
    <path stroke-width=".4" d="m160 143.3 1.3 1.5m2 19.2q-.1 2 .2 3.2m-3.2-3c.4.5 1 2.3 1 3"/>
    <path fill="#fff" stroke-width=".5" d="M170.2 185.6c-.6.2-1.6.8-1.6 1.3s1.2.6 1.6.7c-.7.2-2.7.6-3.6.2-.6.3-5.2-.7-6.2-.7-.6 0-1.4-.6-1.3-1.7 0-.2.2-.8.7-1-.3-.6 1.1-1.5 2.5-2.4-2 .3-4.7-.5-5.4-1.3-1.6-.6-2.3 0-3 1.4 0 2.4-1.3 3.6-3 3.4-1-.2-1.3.3-1.6.5l3.3 1c2.2 2 1 3.6.5 4s-1.7.1-2.4.1c-.8 0-.8.3-1 .4q-1 .5-1.3.2c0-.3.3-1.7 1.2-1.9.5 0 1.5-.3 1.5-.8s-1.8-.4-3.2-.9c-1.1-.4-1.5-1-1.1-2.9.3-2 2.7-2.3 3.9-2.3-.2-.8 0-2.3 1-3.3 1.6-1.5 4-1 6.1-.8 1.2-.7 3.4-1.7 5.6-1.8 2 0 10.6-2.3 14.5-1.8-1-1.3-.7-4.4.9-5.3 2-1.2 4.2 2 4.8 1.4s-.7-1.4-2.2-3c-.4-.6-.3-.6-.3-.8q0-.8.3-1.2c.2-.1 1.4.3 1.7.8q.7 1 1.3.5c.5-.4-.2-.2-.5-1-.1-.5-.5-.9-.4-1.3a7 7 0 0 1 2.3-1.6l.9 1.3c.7 1.1 1.4.8 1.9 1.6q0 .6.5 1.7a10 10 0 0 0 3.5 3.6q.5.3.6.7 0 .7-.4 1c-.2.2-1 .2-1.6-.1q-1.4-.8-2.1-.7c-1.4.2-2.3 2.4-4.3 2.4-1.8-.2-3-2.9-4.1-2.1s2.5 3 2 4c.4.2.9 1 .7 1.7a6 6 0 0 0 3.9-2.7q1.5-2 2.2-2.2c.6-.3 1.3 0 1.3.5l.9.3q.6.5.2 1l-.6-.4q-.5 0-1.2.6l-1.2 1.7-2 2.2q.3.8.2 1.5l.7.2q.2.1 0 .7c0 .5-2 2.7-2.4 2.6-.8 0-1.4-1-1.3-1.3-.9.4-1.3-.6-1.3-1a7 7 0 0 1-2.2 1.5q-.6.3-.8-.4c-.1.4-1.3.8-1.6.9-1.5.3-3.1 1-4.6 1l-3.8-.1z"/>
    <path fill="#fff" stroke-width=".3" d="M175.5 171.4c0 .6-.9 2 .4 3.2.8.6 2.1 1.1 2.5 2 .4.7-.1 1.3-.3 1.3-.8-.2-1.9 1.2-2.3 2.2-.4-1.4-1.3-1-2.5-.8q.3-2.3-2.6-2.6c.3-.3-.2-.7-.6-1.1s-1.8-.1-2-.4c0-.3.7-1 .3-1.5-.4-.7-2-.3-2.6-.5q.3-1-.2-2c-.5-1-2.2-.5-3.1-.7q1.1-.8.6-2.1c-.4-1-2.4.1-2.4-1 .1-.5 2.4-.8 3.3-.9s3.7.7 6.5 1.3c.6.6 5 1.9 5 3.6"/>
    <path stroke-width=".5" d="M182.8 182.6a20 20 0 0 0 4.1-2.8m-25.6-1c1.2 0 3.9.4 4.7 1.4.7 1 1.2 2.7-4.1 4 1.6 0 4-.3 4.8-.1.8-.2 2.5-.7 3.2-.5-.3.1-1.2.4-1.2 1q0 .5 1.1.8m5.1-3.6c1.9.4 4.6-.2 5 1.8"/>
    <path stroke-width=".4" d="M181.2 166.8c.5.6 2 1.5 2.7 2 1 .8 1.4-.1.7-1.4"/>
    <path stroke-width=".3" d="M168.1 175.2a30 30 0 0 1 6.1-.7m-8.4-1.3c3-.8 6.2-.5 8.2-.5m-.5 6.4 2.6-2.5m-5.4 0c1-.3 2.6-1 4-1.2m-4.2-7.6c1.6-1.5 3.4-1.3 5.2-2.2 1-.6 2-2 3-3.1q.6-.7 2-.7 2.2.3-.1.7c-1.2.2-1.3.7-1.7 1.6-.4.8 0 1.7.2 2.3l-.8 2.2q0 .4.5 1.1m-16.3.8c4-.9 10 .7 11.1.7"/>
    <path stroke-width=".2" d="M187.7 177c1.3-.7 1.3-2 3-2.6m-6.6 9.1c1.7-.8 2-1.5 3-2.2m.9-13.7q-.4 0-.8-.3-.4-.6-.1-.8.1-.3.7.2c.6.5.3.7.2.9m.3 3c-.8.2-1-.5-1.7-.6-.9-.2-1.4.4-1.4.9s.5 1 1 1 1-.3 2.1-.2m-3.8-7.2q1 .2 1.7-.2"/>
    <path fill="#fff" stroke-width=".1" d="M162.7 150.7a.4.2 75 0 1-.2-.7.4.2 76 0 1-.2-.7.4.2 77 0 1-.2-.7.4.2 79 0 1-.1-.7.4.2 80 0 1-.2-.7.2.4-8 0 1-.1-.7.2.4-7 0 1-.1-.8.2.4-5 0 1-.1-.7.2.4-3 0 1-.1-.7.2.4-1 0 1 0-.8.2.4 1 0 1-.1-.7.2.4 4 0 1 0-.8.2.4 6 0 1 0-.8.2.4 9 0 1 .1-.7.2.4 12 0 1 .2-.8.2.4 15 0 1 .1-.7.2.4 19 0 1 .2-.8.2.4 23 0 1 .3-.7.2.4 27 0 1 .3-.7.2.4 31 0 1 .3-.7.2.4 35 0 1 .5-.7.2.4 40 0 1 .5-.7.2.4 45 0 1 .5-.6.2.4 49 0 1 .6-.7"/>
    <path stroke-width=".1" d="m163.6 150.4-.9.3m.7-1-.9.3m.8-1-1 .3m.9-1-1 .3m.9-.9-1.1.2m1-1-1.2.3m1-1-1.1.3m1.1-1-1.2.2m1.2-.8h-1.4m1.4-.7h-1.4m1.4-.7h-1.5m1.5-.7h-1.5m1.6-.7-1.6-.1m1.7-.6-1.6-.2m1.7-.4-1.7-.3m1.9-.4-1.7-.4m1.9-.2-1.8-.5m2-.2-1.8-.6m2 0-1.7-.7m2 .2-1.7-1m2.1.4-1.8-1m2.2.5-1.7-1.2m2.1.7-1.6-1.4m2.1 1-1.6-1.6m2.1 1-1.5-1.7"/>
    <path fill="#fff" stroke-width=".5" d="m173 140.7-2.5.3c-.2.5-.2 1.9-.2 2.4 2.3 2.3 4.6 5.2 4.8 7.9a5 5 0 0 1 1.6 2.3c1.7-.9 3.4-2.3 4.8-2.7 1-.2 2.6-.3 3.5.2l5.6 3.4q1.8 1.2 2.6 2.6c.5.8.6 2.3.4 2.7l-3.4-1q-.2-.8.3-1.7c.2-.6.2-.6-.3-1q-.6-.3-1 0-.7 0-1.2-.6a21 21 0 0 0-4.5-2.2q-1-.2-2.2.6c-.4.6-1.6 2.4-2.5 3.3q-.3.3-.1.8l3.6.1c1.4.2 3 1.6 3.8 2.5 3.5 3.2 4.8 5 5.9 6q.9.7 1 1.8h-3.4q0-1.8-.4-2.8c-.4-.5-1.1-.3-1.4-.3q-.5-.1-1-1c-.5-1-2.3-2.3-3.1-2.8s-1.1-.3-2-.4q-1-.3-2.5 0c-.9.3-3.4 1.1-5.7 1.4-.8.4-3.3.8-6 1.4-2 .4-6.5 1.2-7.4 1.2-.3 2.1-2.6 5.2-3.2 5.5q-1 1.5-.2 2c.5.5 3.9.5 4.7.5l2.9.1c.5.1 1.3.8 2.2 1.3.6.3.7.7 1.1 1.3l.8 1.2h-4q-.1-1.6-1-1.7c-.6.4-1.3.9-2.1.6-3.1-.2-5.1 0-8-.3-.9 0-1.6-1.2-1.3-2.3q.4-1.4 0-2.6c-.3.3-1.5 1.4-2.1 2.2-1 1.1-.4 2.3 0 3 .5.5 3.9 3.7 4.3 4.6.3.6 1.7 1.6 3 2.7q.7 1.3 1.8 2.1h-5l.2-1.3c0-.3-.3-.9-1-.8s-1.2-.7-1.4-1.3-2.5-3.6-3.2-4.2l-3-2.9c-.4-.1-.5-.8 0-1.3a13 13 0 0 0 2-3.8c.3-.9 0-1-.2-1.2a20 20 0 0 1-5.4-6 7 7 0 0 1-4-.3q-1.7-1-2.9.4c-.4.7-.4 1.8.3 2.3q1.5 1.3 3.3 3.4c1 1.3.1 2.3-1.3 3.5.2.5 0 .4.2 1.3.5.7.5 2.4-.1 2.7q-1 .5-2 1.6c-.8.9-1 0-.8-1.4.2-.9-.5-1.6-1.1-2.3s-.3-2.6 0-3.2c.5-.6.8-1.7 0-2.6-.9-.8-2.5-2.6-2.3-5a3.8 3.8 0 0 1 5.2-3.3c3 1.3 4.7 1 5.6.8q1.2-2.2 3.8-3.8c1.7-1 5-2.3 8.3-2.8l8.1-3c1.1-.2 1-1.2 1-1.8-1-5.5-.8-11.3 3.7-14.2.5-.5.3-1.7 1-2.6l1.3 2.2c2 .7 5.4 1.9 6.8 2.6l1.7.5q.7.2 1 1 .3 1-.4 1.5c-.3.1-1.9-.4-2.3 0q0 .5 1.4 1c.3.2-.3 1-.7 1q-.5 0-.9-.3-1.5-.3-3-1"/>
    <path stroke-width=".5" d="M167.3 137.1c0 3.4 1.1 5.1 3 6.3m6.4 10.2a10 10 0 0 1 0 4m-24.7 13c2.5-1.1 4.8-4 4.7-5.8 0-1-.9-2.5-3.1-2.6m3 2.6c.8.3 2.3.1 3.5.3m12.6-8.3c2 .1 4.6 1.3 6 1.2m-7 2.8c1.8.4 1.8 1.2 5.3 1m-6-12.2c1.9 0 3 1 4 1.7"/>
    <path stroke-width=".3" d="M156.3 166.4q2.1.2 3-1.4m8-27.9c0 2.8 1 3.5 3.2 3.9"/>
    <path stroke-width=".2" d="M178 137.6c-.1.7-.2 1.3 1 1.2m-6.1-3.1c-.9 2.2 3.6 2.5 3.7 4m-25 14.7c2.2 1 2 5.3 2 7.8"/>
    <path fill="#fff" stroke-width=".2" d="M175.6 139.7c-.7 1.4-2.3 3.5-3.8 4.6q-3.5 2.6-8.1 3.7-.7.3-1.6.1-1 0-1.7-1.4c-.2-.4-.1-2.6.7-2.9a6 6 0 0 1 2.4-.4q.9 0 1 .8-.1.8-1 .7c-.6-.2-1.5-.6-2-.2-.4.2-.7 1.2-.4 1.7q.5 1 1.1 1l1.3-.1q4.4-1.2 7.8-3.6c1.5-1 3-3.4 3.6-4.4zm-12 4.3c-.9-.2-2.4 0-2.5.4q1-.5 2.5 0 .5-.1 0-.4m6-7.5.3-.7c.1-.1-.2-1.7 1.4-.9 1.7 1 .4 1.7.3 1.8l-.4.7"/>
    <path stroke-width=".4" d="m166.7 135 9.5 5"/>
    <g stroke-width=".3">
      <path fill="#fff" d="M154.7 135.4a28 28 0 0 1-6.4-.5c-.8-.1-3.1 3.2-4.3 3.4-1.2.3-2.4-2.4-4.1-1.8-.9.7 0 4-.5 4.3-.5.5-2-1.6-3-1-1 .8.8 5.1.3 5.6s-2.6-1.9-3.3-1.4.7 7.2 0 7.5c-.6.4-3.7-1.8-4-.9-.5 1 4.3 3.1 5.6 3.2l1.3-.5c.4.2 4.2.5 4.6.5l2.1-2.2c3.3-4.3 7-8.3 11.7-8z"/>
      <path d="m140.2 136.5 6.3-.3m-10.1 3.6 3-1m-6 5 2.9-1.2m-7 8 4-3.6m3 6.2c1.7-3 5-6.2 7.9-7.9m-10.7 6.2c2.4-2.9 9.1-7.6 11.3-8m-5.4-2.7c2.8-1.2 6.8-1.4 10-1.7m-5.5-.8c.4 0 5.2-.6 7.3-.5m-14.5 7.7q5.4-3.3 11.5-5.3"/>
    </g>
    <path fill="#fff" stroke-width=".4" d="M168.2 191.2c.3.1.6.8.6.8s-.6.3-.8.2l-29.5-8.8c-.8-.2-.5-1.6.4-1.3zm-28-41q-.4-1.1-1.2-1.3c-.2 0-.9.7-.8.9 0 .4.9 1 1.2 1zm2.7 1-2.5 2.5c-.3.3.3.8.6.5l2.5-2.4c.3-.3-.3-.9-.6-.6m-1.2 2.4 7.7 7.9 1.5.2-.2-1.6-8-7.6z"/>
    <path stroke-width=".1" d="m149.8 160.6-7.6-7.6"/>
    <path fill="#fff" stroke-width=".5" d="M160 138.6q0-.7.5-1c.5-.3.3-.1.6 0l.8.5q.3.2.4 0 0-.4.3-.8l.2-.2q.3 0 .2-.3t.3-.4c.2 0 .6.3.6 0l.3-1.6c.6.1.4-.6.6-.6.6.2.9-.8.5-1.2q.1-1.1 1.7-1c-.1-.5-.9-.7-1.4-1.4s-2-1.6-3.8-1.6-3.1 1.6-3.8 2.3-2 1-2.3 1l-1-.4H153c-.6 0-.8.4-1.5.3-.4 0-2 0-2.5.2s0 1.2.5 1.3c.2 0 1.5 0 2 .3s2 .4 2.6.1c1.3-.4 2.1.4 3.5.8l.5.1q.1 1.2-.4 1.1h-1.2l-1.3-.6q-.9 0-1.2.2c-1.7.7-7.7 5.4-8.3 6.5-.7 1.2-1.7 1.9-2.6 3.7-.5 1-1.5 2.2-2.1 3.8-1 .5-2.1 1.4-2.3 1.7q0 .4.4.6 0 .3.6.5-.1.4.4.4 0 .5.5.7l2.4-2.5q.2-1.7 1-2.8a41 41 0 0 0 3.4-4.9c.3-.4 3.2-1.5 4-2.2a14 14 0 0 0 0 4.6c.5 2 1.1 3.3 1.5 5s0 2.7 0 3.5q0 .7 1 1c.5.4 2.9 0 3.6.3l3.1.6a5 5 0 0 1 3.5.6c.6.5 1.7 3 2.1 4s2.6 2.1 3 2.7c.5.5.9 2 .8 2.7q-.2 1 .7.8c.5 0 2.5.3 2.8.5.4.2 1.2.9 1.5.9s1.7.2 2.4.1.6-1.1.3-1.2l-2-.4a8 8 0 0 1-2.7-2.1q-.8-1.2-1.3-2.5l-3.1-4.5-1.6-3.8c-.3-.7-.8-.7-1.3-.9-1.8-.5-2.5-.7-4.4-1-1.3-.3-1.6-.4-1.8-1.4 0-.8-.6-2.2-.3-3.2l.4-1.8c0-.5.4-1.3.4-1.7l.2-3zm1.4 8.2c-.2 0-1 .2-1.5 0-.1 0 0-.4 0-.4s-.2-.3 0-.4q-.1-.2 0-.4-.3-.3 0-.5l1.4-.1q.4.9.1 1.8"/>
    <path stroke-width=".5" d="M158.1 135.1c.4.3.4 0 1.1-.2s1.3.4 1 1q-.4 1 .6 1.2c1 .2 1-.7 1.2-1l.7-.7c.2-.8 1-.6 1.5-.5m1-1.9c-.3.2-1.2-.5-1.4-1.1q-.3-1.3-1.8-1.4c-1.5-.1-3 .6-3.3 1.7l-.3 1.7q-.6 0-.7.2l-.1.8m-6.3 6.3 2-1"/>
    <path stroke-width=".3" d="M153.4 140.3c.5 1.3 1 2.6 1.7 3m1.1.5q1.2.6 2.5.2m-5.1 9.5c2.1 0 3 1 4.7 1.6 1.8.5 4.2.2 6.5 1.3m-11.9-9.7q1 .6 2 .6m.9 0q1.8.4 2.3 1.4m-2.8 1.1c1 1 3 1.8 4.2 1.8"/>
    <path stroke-width=".2" d="M157 136c.9 3.2 1 4.4 3.2 5m-4.1-5.1c1 3.1 2 4.8 4.1 5m-5-5.4c1 3.1 2.4 5.3 5 5.4m11.6 24.8q-.6-.4-1-1.3l-.7-1.6-.5.3q-.6 0-.2-.4l.4-.2-.6-1.2q-.3 0 .2-.3t.4 0l.6 1.2.4-.2c.3-.2.5.3.2.4l-.5.2.8 1.6c.4.7.5.9.5 1.5m-.1-3.4-2.4 1.3m-2.2-1.8 3.2-1.6m-3.7 1 3.3-1.6"/>
    <path stroke-width=".1" d="m140.1 153 1.1-1m-1.5.5 1-1m-1.6.5 1.1-1m19.8-4.6h1m-1.1-.8h1m-1 .4h1m1.3-9.2.6.3"/>
  </g>
</svg>
