<svg xmlns="http://www.w3.org/2000/svg" xmlns:xlink="http://www.w3.org/1999/xlink" id="flag-icons-un" viewBox="0 0 640 480">
  <path fill="#4b92db" fill-rule="evenodd" d="M0 0h640v480H0z"/>
  <g transform="translate(-40.6)scale(.6)">
    <path id="un-a" fill="#fff" d="M663.9 587a71 71 0 0 1-9.5 8.6c-21.2-22-46.2-46.2-69.9-46.2-14.7 0-25.2 11.2-37.6 19-17.1 11-40.6 17.2-60.7 9.1a66 66 0 0 1-29.2-20 64 64 0 0 0 57.5 5c19.7-8.2 39.9-19.1 62.4-19.1 33.2 0 64.8 22.5 87 43.6m-245.6-69c22 25 57.9 17 87.2 23.2 4.1 1 8 2.3 12.4 1.6-3.5-2.2-8.2-2.5-12.2-4-22.8-8.6-26.3-33-38.8-49.7 16 10.6 29.1 25 44 38.7a74 74 0 0 0 36.7 16.2c-3.2 1.2-7.4 1-11 1.8-24 6-50.6 15.4-76.2 7a75 75 0 0 1-42-34.8zm-35.2-58c13.7 31.1 48.2 33.6 71 52.6a64 64 0 0 0 13.5 9.2l.3-.2a100 100 0 0 1-15.1-16.5c-13.1-19-8.8-45-18.9-65.2a142 142 0 0 1 23.1 34.9c8.5 20.2 11.4 43.3 30.5 58.7-20.7-6.8-44.5-5.5-63-17.6-19.6-12.8-37.7-33-41.4-55.8zm-14.7-62.8c2 27.4 31 42 45 64.5 3 4.8 6 9.8 10.3 13.6-.7-2.9-3-5.5-4.4-8.3a63 63 0 0 1-5.3-32.3c1.3-14 7.1-27 4.9-41.7 12 25.9 8.1 58.2 15 86.1 1.6 6.2 5.3 11.6 7.6 17.5-11.7-9-27.1-17-40-27a86 86 0 0 1-29-36.5 85 85 0 0 1-4.1-35.9m.8-50.4c1.4-6.1 2.5-12.4 5.1-18-5 25.8 12.2 44.4 18 66.8 2.2 8.4 3 17.3 6.4 25.2q.5 0 .8-.4c-8.5-23.8 4-45.8 16-64.5a55 55 0 0 0 6.2-16.5c1.3 10.8-1 23.2-3 34.3-2.5 14.3-7.4 27.7-11.3 41.5a65 65 0 0 0-.5 27.4l-1.3-1c-9-16.6-26.8-29.6-32.1-47.8a103 103 0 0 1-4.3-47m9.5-27.8a79 79 0 0 1 19-50q.4-.4 1-.4c-12.6 19-1.1 43.2-2.8 64.9l-1.6 22.2c.2.2.2.9.8.6.8-2.5 1-5.1 1.4-7.7 3-18 18.8-30.4 32.1-43a29 29 0 0 0 7-10.4c-1.1 9-3.6 18.1-7.6 26.2-10.3 20.8-30.1 37.6-33.7 61.3-1.7-22.7-15.6-39.6-15.6-63.7m33-65.9a46 46 0 0 1 22-14.6c-16.5 11.3-15.6 31.4-20.6 48.2-1.8 6.1-4.5 11.9-6 18.2l.5.4a54 54 0 0 1 13.5-19.9c11.5-10.8 28.8-17.4 34.5-33.3-.3 22.1-19.1 38.9-36.3 51.9a63 63 0 0 0-18.2 21.8c.6-6 1-11.2.4-17.1-1.8-19.3-3-41 10.3-55.6zm66.5-37.1c-12.1 10.7-20.2 24.4-29.6 36.7-7.7 10.3-18.4 16.6-27.5 25.2 5-10.2 5.8-22 12.1-31.9 10.7-17 28.5-23.6 45-30"/>
    <use xlink:href="#un-a" width="100%" height="100%" transform="matrix(-1 0 0 1 1202.2 0)"/>
  </g>
  <path fill="#fff" d="m409 262-2.1-1.2a97 97 0 0 1-17.9 25.4l-12.5-12.6a79 79 0 0 0 14.7-21.3l-2.1-1.2a77 77 0 0 1-14.4 20.8l-11.4-11.4a60 60 0 0 0 11.6-17.1l-2.1-1.2a58 58 0 0 1-11.2 16.6l-12.5-12.5a40 40 0 0 0 8-12.6l-2.1-1.2a38 38 0 0 1-7.6 12l-11.5-11.4a21 21 0 0 0 5.4-13h16.2a37 37 0 0 1-2.5 12.4l2.1 1.2a40 40 0 0 0 2.8-13.6h17.8a57 57 0 0 1-5 22.1l2.2 1.2a60 60 0 0 0 5.2-23.3h16.2a76 76 0 0 1-7.2 31l2.1 1.2a78 78 0 0 0 7.4-32.2h17.9a96 96 0 0 1-9.6 40.7za99 99 0 0 0 10-43 99 99 0 0 0-7.2-37.1l-2.2 1a96 96 0 0 1 7 34.9h-17.9a79 79 0 0 0-5.5-28l-2.2 1a76 76 0 0 1 5.4 27H380a60 60 0 0 0-4-20.6l-2.2 1a58 58 0 0 1 3.8 19.6H360a40 40 0 0 0-2.4-12.6l-2.2 1a38 38 0 0 1 2.2 11.6h-16.2a21 21 0 0 0-5.4-13l11.5-11.5a37 37 0 0 1 7.9 12.8l2.2-.9a40 40 0 0 0-8.4-13.6l12.6-12.6a58 58 0 0 1 12.2 19.2l2.2-1a60 60 0 0 0-12.8-19.9l11.5-11.4a76 76 0 0 1 16.1 25l2.2-1a79 79 0 0 0-16.7-25.7l12.6-12.6a96 96 0 0 1 20.5 31.3l2.2-1a99 99 0 0 0-21.8-32.8 99 99 0 0 0-33-21.9l-.8 2.3a96 96 0 0 1 31.3 20.4l-12.6 12.6a79 79 0 0 0-25.2-16.4l-1 2.2a76 76 0 0 1 24.5 16l-11.4 11.4a60 60 0 0 0-19-12.4l-.8 2.2a58 58 0 0 1 18 11.8l-12.5 12.6a40 40 0 0 0-12-7.8l-.9 2.3a37 37 0 0 1 11.2 7.2L334.2 203a21 21 0 0 0-13-5.4v-16.2a37 37 0 0 1 13.3 2.9l.9-2.2a40 40 0 0 0-14.2-3.1v-17.8a58 58 0 0 1 20.7 4.2l.9-2.2a60 60 0 0 0-21.6-4.4v-16.2a76 76 0 0 1 27.5 5.6l.8-2.2a79 79 0 0 0-28.3-5.7v-17.9a96 96 0 0 1 34.9 7l.8-2.3a99 99 0 0 0-36.9-7 98 98 0 0 0-44.2 10.4l1 2a96 96 0 0 1 42-10v17.8a78 78 0 0 0-33.7 8.1l1.1 2a76 76 0 0 1 32.6-7.8v16.2a60 60 0 0 0-25 6l1 2.1a58 58 0 0 1 24-5.7V179a40 40 0 0 0-15.7 3.8l1 2a37 37 0 0 1 14.7-3.4v16.2a21 21 0 0 0-7 1.6l1 2a19 19 0 0 1 7.2-1.3 19 19 0 0 1 13.4 5.5A19 19 0 0 1 339 219a19 19 0 0 1-19 19 19 19 0 0 1-13.4-5.6A19 19 0 0 1 301 219a19 19 0 0 1 5.6-13.5 19 19 0 0 1 6.2-4.1l-1.1-2.1a21 21 0 0 0-6 3.8l-11.4-11.5a38 38 0 0 1 9.9-6.7l-1.1-2a40 40 0 0 0-10.5 7L280 177.3a58 58 0 0 1 14.8-10.3l-1-2a60 60 0 0 0-15.4 10.7L266.9 164a76 76 0 0 1 19.3-13.6l-1-2a79 79 0 0 0-20 14l-12.6-12.7a97 97 0 0 1 24.3-17.2l-1.1-2.1a100 100 0 0 0-44.5 44.8l2 1a97 97 0 0 1 17.6-24.8l12.7 12.7a79 79 0 0 0-14.5 20.7l2 1.1a76 76 0 0 1 14.1-20.2l11.5 11.4a60 60 0 0 0-11.3 16.5l2 1.1a58 58 0 0 1 11-15.9l12.6 12.6a40 40 0 0 0-7.8 11.8l2.1 1.2a37 37 0 0 1 7.3-11.3l11.5 11.4a21 21 0 0 0-5.4 13.1h-16.2a38 38 0 0 1 2.8-13.2l-2-1.2a40 40 0 0 0-3.2 14.4h-17.8a58 58 0 0 1 5.2-22.9l-2-1a60 60 0 0 0-5.6 23.9h-16.2a76 76 0 0 1 7.5-31.7l-2.1-1.1a78 78 0 0 0-7.7 32.8h-17.9a96 96 0 0 1 9.9-41.3l-2.1-1.1a98 98 0 0 0-10.2 43.6 99 99 0 0 0 4 27.9l2.3-.6a97 97 0 0 1-3.9-26.1h17.9a79 79 0 0 0 3.3 21.7l2.3-.6a76 76 0 0 1-3.3-21.1H260a60 60 0 0 0 2.8 17.2l2.4-.6a58 58 0 0 1-2.8-16.6H280a40 40 0 0 0 2.3 12.2l2.3-.6a38 38 0 0 1-2.2-11.6h16.2a21 21 0 0 0 5.4 13l-11.5 11.5a37 37 0 0 1-7.9-12.9l-2.3.6a40 40 0 0 0 8.6 14l-12.7 12.6a58 58 0 0 1-13.2-22.2l-2.4.6a60 60 0 0 0 14 23.3L265.2 272a76 76 0 0 1-18.1-30.8l-2.3.6a78 78 0 0 0 18.7 31.9L251 286.3a96 96 0 0 1-23.5-40.1l-2.4.6a98 98 0 0 0 25 42 99 99 0 0 0 27.3 19.4l1.2-2.1a96 96 0 0 1-26-18.1l12.6-12.6a79 79 0 0 0 22.1 15l1.2-2a76 76 0 0 1-21.6-14.7l11.4-11.4a60 60 0 0 0 18.2 12l1.2-2.1a58 58 0 0 1-17.7-11.6l12.6-12.6a40 40 0 0 0 14 8.5l1.1-2.1a37 37 0 0 1-13.4-8.1l11.5-11.5a21 21 0 0 0 13 5.4v16.2a38 38 0 0 1-11-2l-1.3 2a40 40 0 0 0 12.3 2.4v17.8a58 58 0 0 1-21.1-4.4l-1.2 2a60 60 0 0 0 22.3 4.8v16.2a76 76 0 0 1-30.3-6.8l-1.2 2a78 78 0 0 0 31.5 7.2v17.8a96 96 0 0 1-40.2-9.3l-1.2 2a99 99 0 0 0 42.6 9.7c15.8 0 31-3.7 44.6-10.6l-1.2-2.2a96 96 0 0 1-42.2 10.4v-17.9a78 78 0 0 0 34-8.3l-1-2.1a76 76 0 0 1-33 8v-16a60 60 0 0 0 25.6-6.4l-1.1-2.1a57 57 0 0 1-24.5 6v-17.8a40 40 0 0 0 16.3-4l-1-2.2a37 37 0 0 1-15.3 3.8v-16.2a21 21 0 0 0 13-5.4l11.5 11.5a38 38 0 0 1-9.3 6.3l1.1 2.2a40 40 0 0 0 9.9-6.8l12.6 12.5a58 58 0 0 1-14.3 10.1l1 2.1a60 60 0 0 0 15-10.5l11.4 11.4a77 77 0 0 1-19 13.5l1.2 2.1a79 79 0 0 0 19.5-13.9l12.5 12.6a97 97 0 0 1-23.9 17.1l1.2 2.2a99 99 0 0 0 25.3-18.4A99 99 0 0 0 409 262"/>
  <path fill="#fff" d="M325.7 196h-.6v.7h.6zm-1.5-1h.8v.6h-.8zm-1.4-.2.6.1.1-.6h-.7zm-.6-.2h-.7v-.7l.8.1zm-5.8-.8h.8v.6h-.8zm-1.7 1.2.7.1v-.6h-.6zm0 1-.7-.3v-.6l.9.3zm-1.4.7v-.6l.5-.1.1.6zm-78.6 61.6v-.5h-.5v1h.8v1.3h.6v-1.5zm7.5 9-1-1-.9-1.1-.4-1-.7-1.8 1.5.8.5 1.4.7.5.7 1.5zm20.7 27.1-.1-.9-.9-1.2 1.3.2 1.2 1.1.6 1.3-.8.4-.3-.6zm54-91.9h-1l-.3-2.2.6-.4v-1.1h-3.5v-1.1l.4-.3-.8-.3-.6.8-.2.9-1 .2v.5h-.7v1.3l-2.8 2.3-5.6-.2c-.3 1-1.3 0-1.3 0-.3-.7-1.6 0-1.6 0 0 1-2-.6-2-.6l-3.4-2.5c-2-1.8-5 .5-5.1 1 0 1.4-2.3.3-2.3.3s-2-.6-2.3.2-1.6.6-1.6.6l-.2.4-1 .2-.2.6-1.2.2h3c.8-.2-.3 1.7-.8 1.6H280l-.5.6h-1.3l-.6.8-1.9-.1s-1 .9-1 1.2c.1.3-.2 1.2-.5 1.2s-.9 1-.7 1.2c.2.3-.6 1.3-.6 1.3l-.2 1-.6.3v2.7l-1.2.8v1.2l-1.8 2 .2 1.5-1.5 1.7.2 1.6-.9.3-.2.7-.4 2.1 1 .1c.5-.2.4 1.3 0 1.6-.4.2-1.5.6-.9 1s-1.6.3-1.6-.3-1.2-1.2-1.5-1-.8-.9-.8-.9c-1-1-4.4.1-4.4.1l-.5 1.7c-1.1.1-1.8 2-1.8 2-1 .3-1.6 1.4-1.3 1.7s-.5.4-.5.4v2.2l-.5.7v2.5c.7 0 .6 1 .6 1-1 .2-.8 1.5-.8 1.5l-2.1.7-.4.6h-2.6l-.7.6-.7-.7h-5l-.2-.5-1-.2v-1.1h-1.6l-.3.7-1.6.1c.1 1-1.6 2.5-1.8 2.1s-1.3-1.5-.8-1.7l1.8-.4v-.7l-3.7-.1-.4.6-1.5.1v1.6l-.7.2c-.5.3.1 1.4.1 1.4.7.7 0 1.9 0 1.9-.7.6.4 1.7.4 1.7.8.2-.5.8-.5.8.2 1 .8 1.3.8 1.3-.6 1 .4 1.5.4 1.5l.1 1.7.7.4v1.2l.4.7h1.6v-2.6c-1.5-1.6 1.1-2 1.2-1.4s1.2 1 1.2 1c.2 1.5 2 2.4 2.4.8.5-1.5 1-.6 1.2.1.3.8 2.2 2.5 2.2 2.5h1.5l.2 1.4c1.7-.1 2.2 0 2.9 2.4a4 4 0 0 0 2.6 3l1.4-.1c0-1.3 1.4.2 1.4.8s2.7 2.9 2.7 2.9l2.7.6 2.5 2 1.9-.2h.8c.5-1.7 2.9.1 3 .7s1.8 1.7 2 1.2 1.3-.2 1.5 1.3 1 1.2 1 1.2l5.6-.1 2-1.7 5.1-.1c2.6-.1 1-3.7.5-3.7-.9-.7.3-3.6.3-3.6l-7.3-6.8c-1.7 0-.2-2.4-.2-2.4 1.3-.8-.3-2.2-.3-2.2.2-1.2-.7-2.6-.7-2.6-1.8-1.2-1.3-3.5-1.3-3.5V245c-1.5-1.4.6-1.6.6-1.6.7-1.2-.5-2.1-.5-2.1V240l-1.7-.2-.2-4.8-3.6-5.1c-.7-.2-.2-1.5-.2-1.5 1-.5-.2-1.7-.2-1.7v-2.2l2-.2.5-.8h1v-2.6c.4-1.4 1.6-.7 1.6-.7l1.4.1.8-1.5.2-1.2h-1c-1.3-.8-.7-3.4-.7-3.4 2-2.9 4.1-1.2 4.1-1.2l1.4-.1c2.1 1.4.2 4 .2 4-.4.6-.2 2.5-.2 2.5l.5 3.3-1.3 1c-1 .7-1 2.1.1 2.4.8.1.5 2-.7.7-1.8 0 1 1.6.2 1.2 1.8 1 1.4-.8 1.4-.8l2.4-1.9c1-.7 2.5 1.5 2.5 1.8s4 .1 4 .1c1 .7 1.5 2.6 1.5 2.6 1-1.5 3.4-.1 1.7.7 1.6 1 1.6 1.9 1.6 1.9 1.3-.4 1.3.6 1.3.9l.4-1.5c-1.5-1.1 2-1.5 1 .5l-.6.9 1 .8v2.3c2.3-.2 1.7-2.9 1.7-2.9l1-.2c0-1 .7-.4.7-.4-.7-3.4 1.6-4 1.6-4 1.3-.4 1.4-3.1 1.4-3.1-1-.4-.4-1.8.6-.6s-.6-2.4-.6-2.4l-.8-.7-1.1-.1-.1-1.1h-1.8l-.3 1.4-.7.2-.2-.4-.3 1H296l-.1-1.1 1-.3.5-.6.3-1.7h1.3l1.7-.5c0-1.7 1-1.3 1-1.3l.6.5.9.7v.6l-.5.3-.1.8.3 1.2h.7c.3-1.7 2.4-1.7 3-.6l.6-1.5c-1.4-.7 0-1.8.4-1.3s1.3-1.3 1.3-1.3.7 1 0-.3c-.7-1.2.5-1.8.5-1.8-.2-1.2 1.3-1 1.3-1l.1-1.7h-1.4c-.3 1.4-1.5.1-.9-.2s1.2-.9 1.2-.9v-1l.6-.2.1-1h1.5l1.3-.6.3-.5 1.4-.1 2-1.8-.2-.8c-1.2 0 0-1 0-1z"/>
  <path fill="#fff" d="m276.7 222.6-1.8-.2.1.7h.5c.8 1.4.1 4.8.1 4.8s-1.2.1-1.4-.5-.7 1.3-.3 1.7 1.8 0 2 1c0 1.2.8-.6.8-.6z"/>
  <path fill="#fff" d="m276.7 231.2.6-.1.1-.7-1.5 1-1-.6v2.4l1.6 2.1.6-1.4.2-.9-.7-.3zm.8 6.4v-1h-.7v.9zm-.9 4.8v-.7l-.8.1v.7zm1.2-3.1a.4.4 0 0 0 0-.9.4.4 0 0 0-.4.5q0 .3.4.4"/>
  <circle cx="278.5" cy="241" r=".4" fill="#fff"/>
  <circle cx="278.5" cy="229.4" r=".4" fill="#fff"/>
  <path fill="#fff" d="m312.4 214.5-1-.1-.3.5h-.5v.8h.5l.1.6-.4.4-.2.5-.8.2-1.8 1.7v.8l-.6.7-.6 1.6h-2l-.5 1.9.3 1.5 1.8.7.2-1 .6-.3.1-1 .4-.7.6-.7.2-.8 1-.6 1.2-.3.5-.6.2-1.2v-.9l.5-.6 1.2-.5v-2h-.6zm2.8 6.9v-1.5l-.2-1.3-1.5-.7-1 1-.3 1.4v1l-1 .2-.2 2.7-.8.3.1 1-1 .3-1.2.3-.2 1.3-.8.5-.4 1.3-.5 2.9s1 1.7 1.4.9c.5-.8 1.3-1 1.3-1l.3-.6h2.7c.2-1 1.5-.6 1.5-.1s1 0 1 0l.7-1h1.1l.1-1.3.5-.3V227c1.6-.5 1.4-2 1.4-2l.4-.5-.2-.7c-.8-.3-.4-1 .1-.8s-.7-1-.7-1c-.6.6-1-.5-1-.5zm1.6 12.2c0 1.2-1.6 1.6-1.6 1.6l-1-.3-.7-.5V233l.8-.1.2.6zm5.4-6.5c.2 1 .2-1.4.6-1.3s.1-1.4.1-1.4l-1.8 1.3c.9.1 1 1 1.1 1.4m5.3-5.2c.4.9.3 2.2 1.8 3.2.5.3-.3 1-.8.7l-2-2.5V222c.4-.8.8-.5 1-.1m.3 31 .3.5.7-1-.6-.3-.7.5zM325 251v1.2m14.4-2.6.8-.5-.3-.6-.8.5zm28.9 21 .9.5v1.7c1.3 1.2 5.2.2 5.2-.1l-.2-3.8-.5-.5-.1-2.5c.4-1.3-2-3.2-2.1-2.8s-1.5 0-1.5.5-.8 2.4-.4 3.1-.3.7-.4 1.4-1.1 2-1 2.6zm-2.2-4c-.2.8-1 1.2-1.3 1-.4-.4.5.4.7.8q.5.6 1 0c.2-.4 0-1.3.3-1.7s-.6-.5-.7 0zm-4.7-18.6h.7v2h-.7zm10.4-19.4c-.5-.6 2-1.7 2.4-.4s0 1-.4.9-1.4.3-2-.5m2.1-13.6v.6l1 .2.1-.6zm-4.5 1.6.8.5h.3l.6-.4v.2l.6-.2-.2-.5v-.3l-.4.1-.7.5-.7-.5zM375 192h-1.5s.5.2-1-1.1c-1.3-1.3-2.2.3-2.2.3l-1.6.2v1.6l-.8.3v1h1.2s0 1.1.3.6 2.8.1 2.6 1.4c-.1.5 2.5 1.8 2.2 3.4 1.3.2 1 1.5 1 1.5l1.7.2.5-1 .5.1v-.6l-1.1-.3-.2-3.3-.7-.5.2-.8-.8-.3.4-1.3zm4.3 10.3h-.8l-1.8.2-1 2s.5.3 1 1c.3.7.5 4.8-.7 5.5s.1.3.1.3l-.2 2.3c.3 1 .8.5 1.1 0s.6-.6 1-1.1 1-1.5 1.1-2.2.6-1.8.3-2.1.3-1.7.3-1.7.4-.8 0-1.6.1-1.8.4-2.2zm1.2 4.2.1-.8h.6v.8zm0 2.8-.5-.3.3-.6.5.3zm-.9-8-.4-1s0-.8.2-1.2-.4-.8-.7-1c-.3 0-.2-.8-.3-1.2s-.8-.7-.8-.7l-.2-1.9c0-.3-.9-.7-.6-1l.8-.9c.3-.2-.3-1.6.2-1.3q.6.5.7 1.2c.2.4 0 1.8.4 2.1s0 1.4.7 1.4c.8 0 .3 1.9.3 1.9s-.2 1.4.3 1.5.2 2.5.2 2.5zm-6.4-16.5c.3.4.9.7.9 1.1s-.2.7.4.8q.9 0 1.2.4c.2.5.2 1.4 0 1.8q0 .8.7 1c.7.2.6 0 .6.4 0 .3.6-1.1.6-1.1-.5-.4-1-1.3-1-1.3l-.4-1.7c0-.2-.7-.4-1-.5s-.8-1-.8-1zm1-.9q-.4-.6-1-.9t-1.1-.4a.7.7 0 0 1-.6-1c.2-.4-.3-.6-.3-1s.3-.4.8-.1.4.4.8.9.6 1 1 .9.7.9 1 .6c.5-.3.4.7.4.7zm-11.7 11.4c.5.6-3 .4-3 0s.3-1.8 1.2-1.5 1-1.8 1-1.8-.8.1-.1-.3 0-1-.3-1.3l-.6-.8h1.4c.6-.4.8-2.3.8-2.3 1.2.4 1.8-.5 1.8-.5l.6 1.2c.4.5-1 .7-.5 1s.7 1.2.5 1.5-1.3 0-1.3-.3-.4.5 0 1-.5 1.2-.7 1.2-1.5.2-.4.8c1 .6 2.3.3 2.3.3s.9 0 1.2.4q.3.7-.6.6l-3-.2s-.6.7-.3 1m-6.4 1c.5-.1 1.7-.2 2 0 .1.4-.8.8-.8.8l-1.2.2q-.7-.9 0-1m12.9-8.5c.8-.4 2.5-.4 2.4-1s1-.9 1-.9l.3 1.2.9.7v1l-.7.2c-1.1.3-.4.8-.4.8H370l-.3-1-.8-1zm-4-5.5c.7 0-.1 2.3 1.5 2.1s0 .7 1.3.8c1.2.1.9-.9 1.3-1.6q.6-1-.5-1.3c-.7-.2-.7-.2-1-1-.1-.8-1-1-1-1l-.2-1.2-1.3.8-1.3 1.7c0 1.3.7.7 1.3.7zm2.7 8.5.3-.6.6.3-.3.6zm-1-1h.6v.8h-.6zm.5-13.4v.9h-.5l-.1-.8zm-1.7 9.4h.6v.5h-.6zm-1.6 0v-.6h1v.5zm-8.2 9.8-.6-.3.3-.7.6.3zm-3.2-1.9v-.6h1v.5zm-17.3-.2-2.2.1v.6h2.3zm-3.6.9-.2-.9.6-.1.2.9zm-.4.6-.2-.5.3-.1.2.5zm5-1.7-.1.7 1 .1s.5.4.5.7.7.6 1.1.6 1.5-.8 1.5-.8.5-1.4.1-1.3-1.2.7-1.3.1c0-.6-1.3-.3-1.3-.3zm5-1c0 .2-.3.6.3.7s1.7-.4 1.8.2.1 1 1 1.3l1.8.4 2-.2s1.3.3 1.6.5q1.6 1.8 2.1 1c.3-.5 0-1.7-.2-2 0-.5-1.5-2.4-2-2s-.6 0-1.5.3-2.8.1-2.9-.3c0-.4-1.5-.6-1.5-1s-1-1-.9-.3-.7.9-.9.7-.8.6-.8.6zm22.9-13 .7-2.3c-1-.2-.8-1.3-.8-1.3-.1-1-1.5-2-2-1.6s-.3-2.1-.3-2.1.9-.6 1.3-.3-3.4-5.1-4.2-4.6-2.6-.5-2.5-1.4c.1-1-3.6-4-3.6-4s-1.2-.8-1.4-.2-.6 1 0 1.4.5-.5 1.2.2 2 1.6 1.5 2.2l-1 .8.6.8h1.1l.2 1.7s1.2.6 1.5 1.3q.4 1 0 1.6c-.3.4-.9 1-.8 1.8.1.7 1 1 1 1h.7l.6.4v1.3c.8-.2 2.1 1 2 1.6 0 .7.2.3 1.2 1s.7.8 1.4 1.4q1.1.7 1.6-.8z"/>
  <path fill="#fff" d="M347.5 165.6c0-.4-.3-1.8.3-1.7.6 0 .2 0 1 .3s.7-.5.7-.5h1.1l1.4 1-.2 1h-1c-.5-.7-1.5-.4-1.3.3s-.5 2-.9 2.1-1.7.1-1.6-.5zm-.8-2.7v-.9s0-.8-.6-.8-1.4-.6-1.2-1-1.7-.8-1.7-.8-1.7-1.6-1-1.4c.5.2.2-.7.2-.7s-1.2.2-1.5 0c-.3 0-.2-1-.2-1s-1.2-.2-1.2 0 .4.4.6 1 .1 1.6 1 1.8 1.1.4 1.2.8 1.2.5 1.2.5l.8.4zM336 152.5l-.3-.8-.8-.2v1zm-.3-4.2c-1-.8 1.4.6 1.4.6.8 0 1.3.6 1.3.9s1 .2 1 .2l.1-.7-.8-1-.7-.5s-1-.1-1-.4-1 1.2-1.4.9zm18.3.6c-.3.9-.4 2.1-.9 2.1s-.3 1.3-.3 1.3l1.7.1c.4.1.4 1.1.4 1.1 1.5 0 2.1 2 2 2.5-.3.5.5.5.5.5s0 1.6-.2 2 1.3.7 1.7 1.3-.2 2.6-.5 2.7.8.5.7 1 .3 0 .4.8l.3 2.5 1.4.1c.2-1.3 2.8-1.4 3.2-1.2 1.7.6 3 3.2 3 3.8s-1.1.7-1.1.7l.2 3c1.7.5 3 3 2.9 3.3-.2.4 1.2.3 1.2.3.2-1.8 1.9-1.2 2-.6 0 .6.4 2 .4 2l.5.8.7.7h1l.4.6 1.2.2s1.1 1.2 1.2 1.5 1.6.2 2 .3q.8 0 1.1.9c.1.5.7 1.3.7 1.3s1.2.3 1.3.7l.6 1.3 1 .8.1 1h1.1l.3 1.3 1.8-.1 1-.7a6 6 0 0 0 2.3-2c.1-.5.3-2 1.3-1.7s.3-2.2.3-2.2-1.4-1-1.3-1.5-1.4-1.5-1.3-2c.1-.3-1.3-1.2-1.2-1.6s-.7-1.5-.7-1.5L387 175l-.2-1h-1.2l-2.4-3 .1-.8h-.7V169l-.7-.4h-1l-2.3-2.5-.2-1.1h-1l.2-2.1c.7-1 .3-2.7.3-2.7s-1.4.7-2.1.4.3-1 .3-1v-.8l-.6-.6s-1.7.2-1.8-.1l-.4-1.6-.1-1.7-.7-.3-.1-.7-1.1.1v-1.2l-.6-.2-.6-.3-.1-1.2-2.2-.1-.7-1-.8-1.2-2.5-.2-.6-.6-1-.2-.7-.3-.3.5h-2v.7c-1 .5-5 0-5 .4zm10.5-2.7c-.2-.7 2-1.5 2.5-.9s1.9.7 2 3.8c.1 1-1.7-1.1-1.7-1.1l-1.5-.5q-1.2-.4-1.3-1.2zm-29.3 1.3-.5-.3.4-.9.5.3zm-5.1-10-1.3-1.3v-1l-.4-.5-.4-1.4-1.3-.4-1.3.5-1.4.9-1.5.2-.8 1 3.2.2.6 1 2.3.2 1.5 1.5c1.3.5 1.6-.2.8-.9m-.2-5c-.2-.8-1.5 1.2-.2 1.6s2.6 0 2.6 0l.3-.6 5 .1c.4-.4.6-1 .6-1s1.2-.4 1.7-.2 0-1.4-.4-1.2-1.5 0-1.5 0h-1.8c-.1-.6-1.7-.3-1.8 0-.1.5-.7.6-.7.6l-2.3.2c-.2.6-1.4 1-1.5.6zm-9.9 17.2c1.5.5 2.1 0 2.2-.3q0-.5.8-.6c.6-.1-.1-1.3-.7-1.2q-1 0-1.3-.7c-.1-.6-1.1-1.9-1.2-.9s-.7 1-.6 1.8c.1.7.4 1.7.8 1.9m-11.5 1.1c0-.4 2-.4 2.3-.1s.1.8 1 .8.5.6.4 1c0 .2-1 .1-1.2-.2 0-.3-1.6-.4-1.6-.4s-.8-.6-.9-1.1m34-21.7-.8.6-.5-.5-.5.5.7.7.2.2.2-.2 1-.8zm-5.5-1.8-.7-.4-.3.5.8.5h.3l1.1-.7-.3-.5zm-3.3 20.8-1-.1v.6h.8l.6 1 .5-.3-.7-1zm-33 28.2.1 1.1h1.5c.6 0-.5-.7-.5-.7s-1.2.1-1-.4zm2 0 .3-.4.6.5-.4.4zm-18.2-18.9.4-.4.6.6-.4.4zm29 130.3-1-.5-.3.5.6.3-.2.2.4.5.5-.5.3-.3zm-7.8-7.3-.4-.5-.6.5-.3.3.4.2.7.5.3-.5-.4-.3zm74.2-19.2c-.1-.5-.7-.7-.8-.8l-.2.6.2.1.1.5-.1.2.4.4q.6-.5.4-1m1-2h-1v-.9l1 .2zm23-7.8c.5-.3 1-.8 1 .4-.1 1.1-.6.7-1 1.1-.3.4-.6-1.1 0-1.5m5.1-4.3-.2-.7-.5.3.1.4q0 .3.2.5.1.2.4 0l-.1-.5zm-1.3.5.4 1.2.5-.2-.3-1.2zm-2.2 2.4h-.6c0 .4 0 1 .5 1l.2-.5zm-2.6-12-.4-.5q-.7-.2-1.5.4l.3.5q.7-.4 1-.4zm-27.7-32.4c-.4.4-1.3.6-1.3.6l-.3 1-.4.5v1c0 .7-1 1.1-1 1.1l-.4.5h-2.7c-1-.4-.3-1.6.3-1.5s-.1-1.7-.1-1.7l.8-.1s0-1.8.4-1.8q.3-.2-.5-1c-.4-.3-1-1.3-1.3-1.2h-2l-.3.6-1.1.2-.1 1c-.6.8-3 2.3-2-.2l.4-.7v-.9h-1.8s-1-.4-1-.8v-.9l-2.1-2.3-2.5-.3-.2-.5-1.5-.2c-1.8-1-3.4-.1-3 1.4.2 1.5.7 2.1-.3 2.1s-1.2-.8-1.2-.8-.8-.3-.8.1-.3 1.2 0 1.6-.4 1-.7.7-1-1.2-.9-1.5c.2-.3-1.4-2.2.2-2.5s0-1.2.5-1.4l.8-.4h.8l.5-.4-1.3-.2-.8-.1-1.5-.1a4 4 0 0 0-1.8 2.2c-.8 1.5-2.7-.6-2-1.4s-2.2-.1-2.7.3-2 .2-2 .2c-.3.9-1.7-.1-1.3-.7l.4-1-.5-.2-.6 1.2c-1.3 0-1.7.8-1.5 1.3.3.5-.4-.1-.6.6s.2.7.7 1c.6.3-.3.3.1.8s1.6 0 1 .7c-.8.7-2.1.4-2.1.4-.1 1-2 .7-2.2.4l-1.7-2.1-2-.1c-.1-1.4 1-.7 1.4-1.8s.6-3 .6-3-1.6 0-1.7.4-1.1.9-1.1.9-.8.3-.5.7-.6.6-.6.6.1.6-.1.9c-.8.8-2.8 0-3.1-.2l-1.2-.5-1.2-.8-1.4.6-.4.4h-1.5l-.1 1.2 2.7.3.2 2.5-1.1-.4h-.7l-.3-.6h-.6v2.1l.6.5.5.5 1 .1.2 1.3h2.5l.3.6h1.5l2.9 3-.2 1-.5.2c.2.7-1.3.3-1.3.3v.6l.7.1.7.4 1-1.7c1-.7 1.6.3 1.7 1 0 .5-.5.4-.5.4v1.5l.6.2c1 1.2-.4 1.9-.4 1.9l-.3 1c-.3.9-1.4.7-1.4.7l-.4.6-1.2.3 2.4.3q.5-1.2 1-.6c.4.4.4 1.1.4 1.1l.6.1-.1 1.1.6.2v3.3l.7.8c1.2-.5 1.2.3.6.7s-.2 2.2-.2 2.2l-.5.5v.8l-.6.4v1.2c-1-.5-2.2-.3-2.5 0-1-.6-2.8-.4-2.8 0 .6.9-.7 1-.7 1l-.7.9c.5 1-.5 1.1-.5 1.1v2l-1.2 1v2.7c0 .7 1.6.8 1.9.4s1.5.8 1.5.8h.9l.2-1.8-.6-.3v-3l1-1c1.2-.5.8 2.5.8 2.8 0 1.2.6 1 1 .8 1-.4.3 1.2-.5 1-.8 0-.3 1-.3 1l.5.3-1 .7-.7.9-1-.3-1.2-.1-.4-.7-.7-.1-.1 1.4-.5.6-1.2 1.2c1.6 0-.2 1.1-.6 1.1.9.3-.1 1.2-2.4.5v.7l-.8.1.7.9h.8l-.3 1.8c0 1.3-3.3.4-3.6 0v2h-.7l.1 1.2v1.7l1-.2v.7l2.7.1 3.9-4.1 2.3-.5c.2-1 1.2.2 1.2.2 1-.1 1.2.6 1.2.6l1.3.2c1 .3.4.4.5.8 0 .6.6.4.6.4l.2-1.3.6.1-.6-.7-1.1-.5-1.2-.5c-.8-1.1.2-1 1-.8h1.3s1.5 2 1.5 2.5.7.6.7.6h.9l.3.6h.9l.3.6h1.8v-.9l-1.6-.3-.1-1-1.2-.3c-.4-1.7.3-2.2.8-1.4h.6l-.2-1.4.7-.2-.2-2.2-.6-.2v-.7l2.5.1v-1.9h.8v.5l3.1.3 2.2-2.5c-.1-.2.2-.3 0-.5-.4-.3-.8 0-1.3-.3s0-2 0-2.5c-.2-.4 1.6-1 1.3 0-.3.8 0 1.3 0 1.3 1.3-1.3 2.4 0 2.3.4 0 .3.7.6 1.2.3s1.1.9 1 1.5c-.3.6-2 .5-2.2-.1q-.1-.7-.6-.1t-1.6.2l-.1-.2-2.2 2.5h.1c1.2.7.6 1.6.2 1.8s-1 .2-1 .2l-.3.4-2.6.2-.2 1c-1.2-.1-1.7 1.3-1.4 2s0 1.3 0 1.3l1 .5 1.5-.4c.2-1 1-1.2 1.8-1.8s2.1 1 1.7 1.9l-.4 1.1.1 1-1 .3-.8.4v.5h-2.8l-.4.5-1.3.1-.4.7h-1s-1.4.8-.8 1.6-2.5.7-3.2-.4c-.2 1-1.3 0-1.3 0l-1.1-.2-.1-1.5c-.2-1-2.1-1-2-.3 0 .7-3.6.3-3.6.3l-1.2.5-1.1.7-.1.5-1.8.2-.8.4-.3-.6h-.8l-.8 1c-2 .2-4 1.4-3.9 2 .2.4-.8 1-.8 1l-.9.2-.6 1-1.2.3-.2 2.2-.6.4v.9l-.7.2v.5h-1l.6 1.6.8.4c1.4.2.8 2 .8 2h.8l.4 1.1.8 1.7c.3 1.2 1.2.9 1.6.8s.8 1.2.8 1.2l4 .1s-.2.4.5.6 5.3.4 5.5.1c-.2-.9 2.5-1.1 3.6-.3 1 .8 2.6.3 2.6.3l1.5 1.8 1 2.3 1.7.5 1.2.3.4 1.7h.9l.3 1.2c1 .8-.3 2.5-.3 2.5v2.3l.8.4-.1.8 1.3 1.3h1.5l3.7 4.1 3 1 .5 1.6.8-.1.6-.5 2.4-.1 1.2-1.2 1.3-.2 11-9.4-1-.6v-2.2c1.9-1.3 2-3.7.3-3.9-1.3-.1-.7-1.5.5-1.7l.7-.3v-.9l2.3-2.1v-1.6l-5-4.2c-2.2-.8 0-5.7 1.5-5.6s-.1-7.4-.1-7.4l-.8-.4.2-2.5h-1.1l-1.8 2.4-.5 1.6c-.2 2.1-6.4 1.7-6.7 1.4s-2.4-1.2-2.4-1.2-1.6-1.3-1.9-1c-.3.5-1.7-.4-1.7-.1s-1.3-.8-1.3-.8l-2-.7 1.5-.3-.3-1.2 2.6 1.3c.3.4 1.6.3 1.6.3l.4.5s.8 0 1.3.5c.5.7 3.1.2 3.1.2l.7.6 1.1.4h3.1l.1-1.9.6-.6v-1.2l.6-.6v-1l.6-.2.1-2.2.5-.1v-4.9l-1.5-1.4c-.1.5-1.7.5-1.7.5s-.4.7-.7.7.4 1 .2 1.5-1 .6-1 .6l-1.5.4-.4.5h-1.6l-.2-1.3 1.8-.5 1-.5.5-1c.1-1 1.3-.9 1.3-.9s2.3-2 2.4-2.8c.1-1 .9-3.5 2.3-3.5h2.6c1-.4.7-1.7.7-1.7l1.3-.2.2.7s1.8.2 2 0c.2-.4.6-1 1-.8.6.3 2.2-.7 2.2-.7 0-.7 2.6-.4 2.6-.4l.3-1s-1.7-2.3-2-2.3-2-1.4-2.1-.9c-1.6-.4-1.5-2.6-1.5-2.6l-.6-1.4c0-.8-1.5-2.5-1.8-2.3a1.5 1.5 0 0 1 0-2.6c.4 0 1.4-1.5 1.4-1.5l.5-1.4 1.7-.5.2-1.3-1-.1s1-1.9 1.6-1.9 3.8 0 4-.2c.4-.2 1-1.8 1-2 0-.4.8-.5 1-.6.4 0 1-.9 1.3-1.3.2-.4-.5-3-1-2.5"/>
  <path fill="#fff" d="M320 242c.1 0 .3.5.6.4s.5.6.1.6q-.2.1-.2.5 0 .3-.3.8-.3.2-.7-.1-.4-.2-.9-.2c-.3 0 0 .6 0 .6s-1.6 0-1.3-.3q.6-.3.4-.4t0-.6c.1-.4.7-.2.5-.4s0-1.1.4-.6l.2-.5c-.2-.3 0-.3-.5-.5s-.1-1-.1-1v-.7c.2-.7 1.7-.8 1.8-.1v1.1l.5.2s-.1.4-.5.4 0 .2-.2.5l.2.4zm-5 .8c.3-.4.8-2.4 1.4-1.8s1 0 1 0 .3.3.1 1q-.2.9-.6 1.2l-1.2.4c-.4 0-.6-.8-.6-.8z"/>
</svg>
