<svg xmlns="http://www.w3.org/2000/svg" id="flag-icons-xk" viewBox="0 0 640 480">
  <path fill="#244AA5" d="M0 0h640v480H0z"/>
  <path fill="#D0A650" d="M253 224.8s1.2-.8 1.6-.9l2-.6s1-.5 1.5-.5 1.6.6 2 1.1 2 1.4 2 1.4 1.2.4 1.5 0q.4-.6 1.3-.7.7-.2.6-.9c-.1-.7.2-.9.6-1.4.5-.5 1.3-.8 1.3-.8s1.2-.5 1.3-1.2 1.3-1.2 2-1.3c.7 0 0-.4 1.8-.2 1.7.2 2-.4 2-.9.1-.5 0-1 1.1-1q1.6.4 1.6-.4c0-.6 1-1-.7-1.4-1.8-.5-1.6-.1-1.8-1 0-.7 0-.6-1.1-.7s-.6-.7-.7-1.3q-.2-.9-.6-1.3c-.3-.4-.9-.4-.9-1s-.1-1-.7-1q-1 .1-1-.5 0-1 .8-1 1-.2 1-1.2c-.2-.6-.2-1.9-.2-1.9l.9-1s2.6-2.1 2.8-2.5 1.1-.7 1.5.1.6 1 1 1.4c.3.4 1.3.1 1.5-.3s.3-1.9.9-2.7q1-.9 1.1-1.8.2-1.3 1.2-1.2c.6 0 1-.9 1-1.4q0-.8 1.2-1.2c.8-.1 1.3-.6 1.6.2s.6.7 1.1 1q1 .6 1.8.3c.5-.4.7-1 1.3-.7q.9.5 1.2-.7l.3-1.9s.1-.5 1.1-.5.3-.6.8-1 .6-.8 1.3-.6 1.8-.3 1.3-1-1.8-1.6-1.1-2.4 1-2 .3-2.2c-.7-.1-1.8.1-1.9-.6-.1-.8-.4-1.4.5-1.5s2.2-.1 2.7-.5 1.8-.7 1.8-1.8.4-1.3.6-2 .1-2-.5-2.6-1.4-1.6-1.5-2q-.3-.7-1.6-1.3c-.8-.2-1.6-.4-1.6-1s.6.1.6-1.6-1.1-2-1.1-2l-1.7-1s-3-.8-3.8-.8-1.8-.8-.9-1.4 1.2-1.5.9-2.2c-.4-.7-.6-1.3-1.9-1.6q-2-.3-1-1.4c.5-.7.7-1.3 1.4-.7.6.5 1.8.7 2.7.3s1.3-.8 1.8-.3 1 .8 1.7.2 2-.8 2.6-.5c.5.4 2 .3 2.4 0s1.4-1 1.4-1.3.6-1.2 1.1-1.5 1.3-1.4 1.9-1.4.8-.7.8-1c0-.5.5-1.4.6-1.7s1.2-.8 2 0c.9.5 2 .8 2 .8s1 .2 1.7 0a2 2 0 0 1 2.1 0c.9.6 2 .6 2 .6l.3-1.3c0-.4.2-1.2-.3-1.5s-1-.7-.1-1.4 1-.5 1.9-.5l2.2.1c.7 0 1.8.7 1.8 1.3q.1.8 1 1.4c.6.3 1.3.6 1 1.2q-.3 1 .6.8 1 0 .9.9-.1.7 1 1 1 .4 1 1.2c0 .8-.2.9 0 1.4l1 1.4s1.3 1.5-.4.7c-1.6-.7-2-1-2.5-1l-1 .5-1.3.2c-.6 0-1.2 1.2-.2 1.4q1.3.2 1.2 1.2c-.1 1-.3.5-.8 1s-.8.2-1.6.2-1 .7-1 1.3.3.6.6 1q.6 1 1.6.2c.5-.5 1-.9 1.3.1s.9 1 1.5 1q.9.1 1.6-.4 1-.5 1.3.9.4 1 1.3 1.3t1 1q.3 1 1.1.5 1.1-.7 1.9-.1l.9 1.2v1.1l2.3.8.2 1q0 .6 1 .4h1.6s.8-.3.8-1q0-.9 1-.8c.5 0 1.8.5 2.1-.2s1.4-.8 2.2-.5l3 1.2s-.3 0 .4 1.1 2 1.1 2 1.1 0 1 .3 1.4 1.3.6 1.8.2q1-.8 2.1-1c1.1-.2 1.2 0 1.2-.4s-.7-.7-.7-1.4.7-.6.8-1.3c.1-.6.8 0 1.3.4s1 .8 1 1.2c0 .5 1 2 1.5 2.2s2.1.3 2.6-.2 1.6-.8 1.5.5-.4 1.4.4 1.8 1 2 .3 2.4-1 .5-1 1.2-.2 1.6.4 2q1 .7 1 1.2c0 .5.6 2.4.6 2.4s.4 1.9.2 2.3c0 .5-.3 1.2.7 1.1q1.4-.3 1.3.7c-.1 1 .4 1.2-.2 1.5s-1 1.4-.4 1.6q.9.3 1.2 1c.1.4 1 1.2 1.6.7s.7-.6 1.2-.7.8-.4.3-1q-.7-.8-.1-1.4c.5-.3.7-1.3.7-1.3s.7-1 1.5 0 1 .6 1.5.6.8.5.8 1 1.2.5 1.2 1.3l.2 3s0 1.1.7 1.5q1 .6.2 1-.3 1-.2 2c.1 1 .2.5-.3 1q-1 .7-.5 1.6c.3.6.2 1 1.1 1.8 1 .7.9 1 .9 1.6 0 .5.9 1.3.9 1.8s.7 1.2 1.3 1.3 1.2 1 1.2 1.6l.1 1.9s0 .3.6.3 1.2.8 1.4 0c.2-1 1-1 1.4-1.3s1.4-.6 1.9-.3 1 .3 1.5.3l2.6.1s.6 0 1 .8c.3.8 1.3 1.8.8 2.2s-.6 1.3 0 1.3 1.5 0 1.5.5q-.2 1 .7.7.8-.5 1.1 0t1.3.7q.8.4 1.2-.3c.3-.4 1.7-.8 1.7-.8s1.8-.5 2.5-.3l1.7.7s.4 1 .2 1.7-.5.5-.2 1.5-.3 1-.7 1q-.9-.5-1 .7c0 .8-.4 1-.4 1.8s0 .6-.5 1q-.8.6.1 1c.7 0 .5.8.5 1.2l-.1 1.4s0 .5-.7.5-1.5 0-1.6.5-1 1.3-.3 1.9q1 .7.1 1c-.4.3-.8 1.3.2 1.6q1.2.5.2 1.1c-.6.4-1.7.8-1.7 1.4s-.3.6-1 .7q-1.2.3-.2 2c.8 1.1 1 1 1.6 1s.6-1 .6-1l2.5.2q1 0 1.9-.3c.5-.4 1.7-.9 1.7 0s.3 1 .8 1.3c.6.5.7.1 1.2.8.5.6.6 0 1-.7.3-.7 1-1.4 1.6-.6.5.9.5.6 1.2.6s1 .4 1 .9.6.5 1.5.4.9.5 1.2 1 .5.4 1 .4q.7.1 1.2-.4c.4-.4.8-1 1.3-.3s1.4.5 1.6-.2c.3-.8 1.3-1.4 1.9-.6.6.9 1 .9 1.6 1q1-.2 1.7.6c.4.6 1.5 1.4.7 2s-1.7 1.5-1 1.8a3 3 0 0 1 1.6 1c.5.4 2 .7 2.7.8.7 0 1.2.2 2-.5s1.7-.6 1.6.3.3 1.8.3 1.8.6 1.4.6 1.9-.1.6 1 1.3c1 .6.8 1 1.7.4q1.1-.8 1-1.5v-1.7s1.2-.2 1.6-.5c.5-.4 2.3-1.3 2.8-.9s1 .3 1.5.1l1.9-.2c.4 0 1.2.1 2.2-.6.9-.8.9-.6 1.5 0q.7.8.2 1.6c-.4.4 0 1.3.8 1.3s1 .5 1 1l.3 1.7c0 .4 0 .7 1.4 1 1.2.3 1 1 1.2 1.6q.6.9-.4 1c-1 .1-1 .3-1 .8-.2.5-1.2.7-1.2.7l-1-.2s-.8 0-1.1.4-1 1.3-.6 2q.7 1.1 0 1.6c-.4.3-.7 1.9-1.1 1.6-.5-.4-1 0-1.5.3s-.4 1.7.5 2.2q1.4 1.1 1.2 1.3l1 1.6s-.3.3-.5.9c-.3.5-1 1.6-.3 1.8s.4 1.4-.3 1.4-1.5-.4-1.6.5-.5.6-1.2.5-2.4-.5-2.9.3-.6 1.2-1.4 1.1-.5 1.3-.2 1.8l1 1.3s.7.5.7 1.6q-.1 1.4-1 .2c-.4-.7-1.3-.6-1.4.2s-.3 2.2-1 2.2q-1.2 0-1.6.6c-.3.4-.9 1.2-.9 1.6s-.1.9-.7 1-.7 1.2-.7 1.2-1.4.3-1.5.8.1 1.4-1 1.5a3 3 0 0 0-2.2 1.4q-.7.7 0 1.5c.7.8.8 2.2 1.4 2.5q.9.3.9 1.3c-.1.9-.8 1.5.1 1.5q1.6-.1 1.2 1c-.4.7-.4.8-1 1.1-.8.4-1.1.4-1.1 1.2s.2.9-.4 1.2-.6.7-.6 1.4-.2.4-.9 1.1q-1.2 1-2.2.6c-1-.4-.7-.2-.8-.9s-1.1-.6-1.7-.5-1.4.7-1.4.7-1 .7-.6 1.2.2 1.4-.6 1.3-2.6.8-3.2-.1-2.2-1.6-2.5-.3c-.2 1.2.7 1.1.6 2.4s-.3 1.3-.8 1.7q-.5.6-.6 1.3c0 .5-.2 1.7.6 2.1s1.2 1.6 1.2 2.3q-.2 1.1.8 1.3 1.5.2 1.6-.9c.1-.7 1.7-1.2 1.9.3q-.2 2.1.7 2.9c.5.6 1 1.5 1.5 1.8s1.2 3 1.2 3c-1.1.3-1.4 1.8-2.1 2-.4.2-.9 0-1.3.3q-.1.6-.6.8c-.9.4-.7-.9-1.8-.4-.9.4-1 1.5-2.3 1-.7-.2-1.1-3-1.3-3.6l-1.1-1.8c-.8-1.2-2.3 0-2.8-.4-.8-.5-.5-1.4-1.7-1.5-2.4-.2-.7 1.5-1.7 1.8-2 .7-2-1.8-3.4-.6-.5.4 1 .7.6 1.4-.3.6-1.7 1.6-1.7 2.3.2 1 1.2 1.3 1.5 2 1 2.3-.5 3.8-2.7 2-1.2-.9-1.5-2.7-3.3-2.5l-1 .5c-.5 0-.8-.4-1.3-.3-.7.3 0 .8-.2 1.2 0 0-1 .7-1 1-.6.6-.4 1.2-1.2 1.8-.6.5-1.1.2-1.8 1-.7.7-.8 1.9-1.7 2.6-.5.4-.8-1.1-1.4-.1l-.2.4q-.3.4 0 .7c1.2 2.4-1.4 3.2-2.2 4.9-.3.7.6 1.3.3 1.9l-1.5 1.7c0 .2-.2.8-.4 1s-1 0-1 .4.8.7 1 .9-.2.7 0 .8c1.2 1.3.5.9 1.1 2 .1.2.5-.1.7.3s-.4.4-.2.8c0 .2 1 1.4 1 1.4 0 .4-1.8 1.2-2.2 1.2-1.1 0 1-2.2-.8-2.2-.8 0-.9 1.7-1 2h-1c-1.2 0-2 1.4-2.4 1.5s-1-.2-1.5 0c-.4 0-1 .5-1.4.5q-.4 0-.7-.4c-.5-.3-1.5-.4-2-.6-.4 0-1 .4-1.2.3-.3-.2.3-1-.6-1.4l-.7-1.7q.6-1.5.5-3.1c-.2-1.1-2-2-2.4-3-.3-.6-.6-2.4-1.3-2.8a6 6 0 0 1-1.8-2.2c0-.2.3-.6 0-1q-.6-.4-1-1c-.1-.4 0-1.8-.5-2.1s-4-.8-5-.9q-.6 0-1-.3l-.6-.7-1 .2h-1c-1.1.7-1.4 1.7-2.5 2.6-1.1.8-2.3.8-3.4 1.7-.7.6-1.2 2.1-1.9 2.8-.3.3-.7 0-.8.1l-2 1.8q0 .3-.2.5l-1.3.4h-1.2c-.5.2-.5.8-2.5 1.2l-.5.3-.6.5h-.9c-.5 0-.8.5-1.2.5-1 .2-2.8-.5-3.6-.1-.5.1-1.8 1.7-2.3 1.8q-.4.1-1-.1l-.6 2.2-2.4 2.1-.8 1q-.5.5-1 .5l-1.6-.4c-.8-.2-3.3-.3-4-.1-.9.1-.6 2.4-2.6 2.6l-3.3.4c-.1 0-.8-.4-1.5-.3-.3.1-1.1 1-1.1 1.2v.5l.2.4c-.4.5-1.4 1.3-1.7 2l-.4.4c-.2.2-1.6.7-1.7.9-.3.8 1 1.6.8 1.9-.3 1-1.7 2-2.2 3-.1.4.5 1.7.5 2.1q-.5 2.1-.5 4.1l.2 1.7.7.5 1.8 3.6c.3 2.2-3 1.4-1 3.6q.2.6.8 1l2.8 2.3c0 .4-2 .7-2.3 1-1 1-1.7 2.6-2.6 3.6-.6.5-1-.1-1.8 1.3-.2.5 0 1.6-.3 2-.5.4-.8-.2-1.3 0-.2 0-.3.7-.5.8-.5.5-5.2 3-5.6 2.7-.2-.1-.5-.9-.5-1.1q-.1-.6-.6-1c-1.2-1-3-1.3-4.2 0l-.7 1-2 1.6-.5.5c-.5 0-1.6-1.3-2-1.7-.4-.6-2-2-2.1-2.7 0-2.4-1.9-4.9-2.6-7.2h1.1c1.3-.9 1-3 3.3-2.2.3-.4.3-.8.8-1l.7-.5c.8-1.2 1.7-5.8.9-7-.7-1-1.5-1-2-2.7q-.1-.7 0-1.6l-1-3.1-.7-.7-.2-3.1c-.7-2.2-3.4-3.5-3.5-3.8l-1-1.7-.6-1.6c-.1-.3-.6-.6-.6-.9 0-.6 1.6-1.7 1.5-2.7 0-.3-1-1.3-.8-1.8s1.2-1.8 1.2-2.5c0-.8-1.6-2.6-1.8-3.4-.1-.5.6-.8.4-1.1s-1.8-1.9-2-2.3c-.3-.3.5-.7 0-1.3-.6-.5-.1-.4-.3-.8l-1-1.5c-.2-.5-1.6-5.5-1.5-5.8q-.5-.4-.9-1l-.4-1.2s-1.6-.5-1.9-1c-.2-.3-.3-1.6-.7-2.2l-.7-.4-.3-.7c-.5-.6-1.4 0-2-2.4q-1.4-.8-2.4-1.8l-.4-.4q-1-.2-2-.7c-.3 0-1.8 0-2-.2l-.4-.8c-.8-.1-2.2 0-2.9-.6-.5-.5-.6-2.8-1.6-2.5h-.4c-.7-1-2.9-1-3.8-1.6-.2-.1-1 0-1-.2l.1-1.3-1.1-1.4c-.9-.2-.6-.3-1-.6-1.5 0-1.7.2-2.6 1q-.4.3-1 .4c-.5.3-.6 1.2-1.3.8l-.6-.5c-.4-.4-.6-.2-.8-.8-1.2-.7-4.5 1.5-5.2 0-.6-.3-1 0-1.5-.4-.2-.2.7-3-1.7-4l1.6-1.1q.2-.6 0-1c0-.5.3-1.4.2-1.7l-.5-1-.2-1.2-.8-.4q-1-.6-1.7-1.4l-.4-.5c-.4-.3-1.8-.8-1.8-1.4l.4-.5q0-.5.3-.8c.6-1 2.1-.5 1.9-2.2-.1-.8-.7-1.4-.8-2.2l-.5-.7c-1.5-.1-1.3-1.6-1.8-2-1.5-1-2.7-.4-1-2.4.2-.7-1.5-1.8-1.8-2.1-.6-.6-.3-1.9-.6-2.5 0-.3-1.1-.9-1.4-1.3l-.5-1v-.1q.4-.6 0-1c-.1-.3-.6-.2-.7-.4q-2-1.6-4.9-2.5c-.5-.2-.3-.6-.8-.8l-3-1.2c-.2 0-.4-1.1-.6-1.5l-.9-1c0-1-.6-1-1.4-1.6v-.6l.6-2.1c.1-.4.6-.8.5-1.2l-.4-2.3c-.8-2-1.7-1.8-1.2-4.5q-.2-.8.3-1.4l.2-.3 1.2-.9c.4-.6.7-1.9 1.2-2.3l1.8-1.2c.2-.2.4-.9.3-1.2l-1.2-.2-1.1-.4-.3-.5-.2-.2q-.8-.1-1.4-.5l-1.7-.5c-1-.5-2-2-2.9-2.2-1.2-.3-2 .1-3.2.2-.7 0-.7-.4-1.3-.6-.8-.3-.2.4-2-.2-.3-.2 0-.8 0-1h-1c-1.4-.4-.9-1.8-1.3-2.7-.1-.2-.8-.2-1-.2l-.2-.2.2-.1c.2-.4-.7-1.4-.7-1.6.1-.3 2-.6 2.2-.6q0-.4-.2-.7.1-.8.5-1.7v-.2c-.6-.3-.7-.7-1.2-1q.1-.4.4-.7c.9-2.5 2.3-.5 3.5-2.8l.6-1.1h.2q.4.1.8 0l.8-.3h.5c2.2-.4 1.7-1.2 3-2.1.4-.3 1.4-.4 1.8-.6q.7.6 2.1 1.4c.7.2 3 .7 3.4 1 .5.2.6.8 1 1 1.3.8.5-.4 1.8-.2s2.3 1.4 3.5 1.9l1-.1c.3-.1 2.3-.5 2.5-.4l.8.3c.3.1.5-.5.8-.5.8.2.8.5 2 .4 0 0 .6-3.3 1.2-3.4.3-.1 1.2.7 1.4.8.4.1 0-.7 0-.7-.2-.3-.8-2.3-.7-2.5l.8.1q1-.2 2-.9l1-1.5c.1-.2-.2-.8 0-1l.9-.6c.4-.4.4-1 1-1.3 2-.2 2.7-1.8 4.6-2h.6l.4.6c0 .1 1.3.9 1.5.8q.3-.1.5-.4c.3.1 1.4-.5 1.5-.9l-.1-.6 1.6-1.2h1.4q.2.4.5.6h1.2c.2 0 .3-.5.7-.5"/>
  <path fill="#FFF" d="M351.9 73.4 368 123l-42.2-30.7H378L335.8 123zm62.8 11.1 16 49.6-42.1-30.7h52.1l-42.2 30.7zm59.9 21.8 16 49.6-42.1-30.7h52.1L458.4 156l16.2-49.6zM288.1 73.4 272 123l42.2-30.7H262l42.2 30.7zm-62.8 11.1-16 49.6 42.1-30.7h-52.1l42.2 30.7zm-59.6 21.8 16.2 49.6-42.2-30.7h52.1l-42.2 30.7z"/>
</svg>
