<svg xmlns="http://www.w3.org/2000/svg" xmlns:xlink="http://www.w3.org/1999/xlink" id="flag-icons-zw" viewBox="0 0 640 480">
  <defs>
    <clipPath id="zw-a">
      <rect width="546" height="420.1" x="1.9" y=".1" fill="#00f" fill-rule="evenodd" ry="0"/>
    </clipPath>
  </defs>
  <g clip-path="url(#zw-a)" transform="matrix(1.1722 0 0 1.1426 -2.3 -.1)">
    <path fill="#006400" d="M0 0h840v420H0z"/>
    <path fill="#ffd200" d="M0 60h840v300H0z"/>
    <path fill="#d40000" d="M0 120h840v180H0z"/>
    <path fill="#000001" d="M0 180h840v60H0z"/>
    <path stroke="#000" stroke-width="20" d="M0 0v420l280-210z"/>
    <path fill="#fff" d="M0 0v420l280-210z"/>
    <path fill="#d40000" d="M106.5 104.4 162 275.1 16.8 169.6h179.5L51 275.1z"/>
    <path fill="#fc0" d="m82.8 253.7 9.8-1.8 18.1-.7 6.7.6 15 2.5 1.1-1.5V242l1.8-9.3 3-9.4 3.3-7.5 4.2-7.8 6.8 1.7h1.8l.2-1.3-14.4-12.3-15-11.5-21.7-16.2-2-.5-2.3-17-1.7-5.1-2.3-2-4.3-1.4-4.8.2-2.2 1.2-4.6 1-2.4.4-1.6 1.9-.2 2.4 6.7.2 1.7.7-.2.7-3.8.5-1.8.6 2.1 1.6 2.2.8 2.8 1 .6 2 .2 25.8-1.5 4-.5 7.5 2.2 9-5.6 6.4L77 216l-.6 3.5-1.7 3.5-.2 2.2 1.1 2.4 4.3 14.2 2.2 11.7z"/>
    <path d="M88 142c-1.8 0-2.6.2-4.3 1.1a11 11 0 0 1-4.6 1.4c-2.5 0-4.5 1.8-4.5 4.1v1.5l3.6-.1c10.6.3 1 1.3.2 1.4-2.6.5.6 2.6 3.7 3.7 3.3 1 3.1.4 3.1 15 0 11.9 0 13.6-1 16.3-1.3 4-1.3 10 0 14 .6 1.6 1 3 1 3.3s-1.6 2.1-3.5 4.3c-3.5 4-5.6 8.1-5.6 11a6 6 0 0 1-1 2.6c-1.3 1.7-1.3 4.6-.1 5.7 1.3 1.2 6.6 21.8 6.7 25.7 0 1.4.2 1.4 8.3-.2 6.6-1.3 22.1-1.6 30-.6 3.6.5 7.8 1.3 9.3 1.6 4.8 1.3 4.6 1.5 4.6-4.3a74 74 0 0 1 5.1-26.7 95 95 0 0 1 6.9-14s1.8.2 4 .8c4.1 1 5.3.9 5.3-1 0-1-4.3-4.6-25.4-21a432 432 0 0 0-26.3-19.9q-1 0-1.3-.7l-1.5-9.5c-.7-4.9-1.7-9.7-2.1-10.7q-2-4.4-8.6-4.8zm.1 1h2c6.6.4 7.8 2.2 9.6 14l1.2 9.4q.1 1.1-3.2 3.3a47 47 0 0 0-10 9.5l-1.3 1.8-.3-4.2V165c.3-8.7 0-9.5-2.8-10.5-2.3-.8-5.3-1.6-4.5-2.1 1-.6 2-.2 4.4-.9 1-.2.9-.1.7-.9-.2-1.3-1.6-2-5.3-1.8-3 .2-3.3.1-3.1-.7q.7-2.4 4.5-2.9a13 13 0 0 0 4.4-1.3 7 7 0 0 1 3.7-1zm14.9 25.8h.4c1.7.3 50.8 38.7 50.8 39.8q0 .7-1 .7c-.4 0-12.9-3.5-27.7-7.8-23.6-7-27-8-28-9.3a5 5 0 0 1-.1-6.2 5 5 0 0 0 1-2c0-1.2-2.5 1.8-3 3.5-.5 2 .5 5.4 2 6.5.6.5 5.1 2 10 3.5 8.4 2.4 9 2.7 9.4 4.1 1 3.3-2.5 7.2-7.5 8.3a15 15 0 0 0-5.2 2.4 68 68 0 0 1-17.2 10.4c-.4.3-.9 1.9-1.2 3.4-.6 3.3-.8 3.8-1.8 3.8q-.8.1-.2-1.4c.7-2 .6-4.4-.1-4.4q-.7 0-.7 1.8c0 1-.3 2.2-.7 2.5-.5.6-.6.2-.4-2.3.2-1.7.1-3-.1-3-.5 0-1.4 2.5-1.7 4.7q-.2 2-.6-.3c-.3-1.2-.2-2 .7-3.5a9 9 0 0 0 1-3.5c0-1.3 1-2.6 5.7-7.3 3-3.1 6.7-7 8-8.7 2.3-2.8 2.4-3 2.3-5.9 0-1.6-.2-3.1-.4-3.3-.6-.6-1.4 2.6-1 4.3.2 1.6 0 2.1-3.3 6a113 113 0 0 1-7.5 7.8c-3.9 3.6-5.3 5.6-5.3 7.4 0 .6-.4 2-1 3.3s-.8 2.6-.6 2.9q.2.5-.3 0-.7-.6-.1-3a7 7 0 0 0 .2-2.6c-.5-1-1.2.2-1.5 2.7-.2 1.4-.5 2.5-.8 2.3-.7-.4-.5-3 .4-4.4.5-.7 1-2.3 1.3-3.6.7-3.7 2.3-6.7 5.8-10.7l3.2-3.8-1-3.3a25 25 0 0 1-.2-13.7q1.9-5.6 8-11.7c4-3.9 7.9-6.3 10-6.4m15 32.2a.9.6 0 0 1 1 .6.9.6 0 0 1-1.7 0 .9.6 0 0 1 .7-.6m2.5.3a.9.6 0 0 1 1 .6.9.6 0 0 1-1.7 0 .9.6 0 0 1 .7-.6m2.6.5a.9.6 0 0 1 1 .6.9.6 0 0 1-1.7 0 .9.6 0 0 1 .7-.6m2.4.5a.9.6 0 0 1 1 .6.9.6 0 0 1-1.7 0 .9.6 0 0 1 .7-.6m-6.3.6a.9.6 0 0 1 1 .6.9.6 0 0 1-1.7 0 .9.6 0 0 1 .7-.6m2.4.4a.9.6 0 0 1 1 .6.9.6 0 0 1-1.7 0 .9.6 0 0 1 .7-.6m5.2.2a.9.6 0 0 1 1 .6.9.6 0 0 1-1.7 0 .9.6 0 0 1 .7-.6m-2.7 0a.9.6 0 0 1 1 .6.9.6 0 0 1-1.7 0 .9.6 0 0 1 .7-.6m5 .6c.1 0 3.7.8 8 2l7.9 2.3-1.5 2.7-2.4 4.4c-1 2-1.2 2-6 .9-5.2-1.2-13.4-2.3-21.8-3l-8-.7 3-1.1 5.3-2.4c2-1.1 2.8-1.3 5.9-1q6.8.4 8.7-2.4l1-1.7zm-8.8.6a.9.6 0 0 1 1 .6.9.6 0 0 1-1.7 0 .9.6 0 0 1 .7-.6m5.6 0a.9.6 0 0 1 1 .6.9.6 0 0 1-1.6 0 .9.6 0 0 1 .7-.6zm-8 0a.9.6 0 0 1 1 .6.9.6 0 0 1-1.7 0 .9.6 0 0 1 .7-.5zm5.3.2a.9.6 0 0 1 1 .5.9.6 0 0 1-1.7 0 .9.6 0 0 1 .7-.5m-6.6 1.1a.9.6 0 0 1 1 .6.9.6 0 0 1-1.7 0 .9.6 0 0 1 .7-.6m2.5 0a.9.6 0 0 1 1 .7.9.6 0 0 1-1.7 0 .9.6 0 0 1 .7-.6zm2.6.2a.9.6 0 0 1 1 .5.9.6 0 0 1-1.7 0 .9.6 0 0 1 .7-.5m2.8 0a.9.6 0 0 1 1 .6.9.6 0 0 1-1.7 0 .9.6 0 0 1 .7-.6m-20.3 8.1a191 191 0 0 1 35.1 4.2c.1.1-.6 2.5-1.7 5.4l-2 6q0 .7-2.5.3c-8.3-1.3-32.3-1.2-41.5.2-5.3.8-6 .7-5.6-.4l1-3.5.6-2.7L93 221a63 63 0 0 0 10.2-6.5h.9zm-27 14.2q.5 0 1.6.8c1 .6 2.2 1.1 2.7 1.1 2.6 0 4 3.7 6.2 16l.8 4.4c.2 1 0 1.2-2.3 1.7-2.8.6-3.5.7-3.5.3 0-1-2.8-13.7-4-18.2l-1.6-6h.1zm28.6 2h2.9l-1 1c-1.7 2-2.5 2.1-3.7.8l-1-1.5c0-.2 1.3-.4 2.8-.4zm6.1 0h5.4l-1.2 1.2c-1.4 1.6-1.5 1.6-3 0l-1.2-1.3zm8.2 0h1.3c.7 0 2 0 2.8.2l1.5.3-1.4 1.3q-1.3 1.2-1.6 1.2l-1.4-1.6zm8.5.3 1.2.3c.7.2 2.2.3 3.3.4h2l-1.5 1.3-1.8 1.3c-.1 0-1-.8-1.7-1.7zm-30.2.1h.2q.1.5-1 1.7l-1 1.4-1.5-1.2-1.5-1.3 2.4-.3zm2.3.2 1.6 1.4 1.6 1.5-3 .2-3 .1 1.4-1.5zm18 0q.4 0 .8.3l1.3 1.7q.8 1.1-1 1l-2.5-.5-1.2-.3 1.3-1.3q.8-1 1.4-1zm-8.3 0q.7-.1 1.6 1.3c.7 1.1.7 1.1-2 1.1h-2.7l1.4-1.3q1-1 1.7-1zm17 .2 1.2 1.2q2.1 2 .6 2l-2.8-.3-2.2-.2 1.6-1.3zm-35.2.7q.5 0 1.6 1.2l1.2 1.3-2.5.4-3.5.5q-1.1.3 1-1.6 1.7-1.7 2.2-1.8m-3.7 0h.4c.8.2.8.4-.6 1.8l-1.5 1.5-.5-1.3c-.4-1-.3-1.3.6-1.7zm46 1.8q.3 0 0 .6c-.2.8-1.1 1-1.1.2q0-.3.7-.7zm-21.4 1.6c7.7 0 15.5.2 17.4.4 3.1.4 3.4.5 3.4 1.7 0 1.4-.4 1.5-4.6.8-1.2-.3-6.3-.7-11.2-1.1a150 150 0 0 0-28.5 1c-1.9.2-2.4 0-2.4-.6 0-1.3 10.2-2.2 25.9-2.2m-10.3 2.9h5.4l-1.2 1.3c-1.5 1.6-1.6 1.6-3 0zm7 0 1.4 1.4 1.4 1.6-2.9.1h-2.9l1.5-1.6zm2.1 0h5.4l-1.2 1.3c-1.4 1.6-1.5 1.6-3 0zm-12.8 0q.3 0-.7 1.5-1.2 1.5-1.5 1.6-.5-.1-1.5-1.3l-1.2-1.3H96a9 9 0 0 0 2.7-.4zm2 .5 1.3 1.2 1.5 1.3-2.6.2-2.9.2 1.4-1.5zm17.4 0 1.4 1.6c1.6 1.7 1.5 1.8-2.1 1.1l-1.7-.3 1.2-1.2zm2 0h2.4q3.8-.1 1.4 1.8c-1.2 1-1.2 1-2.6-.5zm-30.6.5c1.2 0 1.1.1-.4 1.6-1.1 1.1-1.2 1.1-1.6.3q-.3-1.6 2-1.9m38.8.2 2 .2 2.3.4-1.3 1.2-1.2 1.2-1.1-1.4-1-1.6zm-36 .5q.4 0 1.1.7c1 1 1 1 .2 1.4l-2.4.4H90l1.3-1.4q1-1 1.3-1.1zm34.1.3q.5-.1 1.2 1l.9 1.2h-2.1q-2 0-2-.6.3-.7 1.3-1.3zm6.4 1.3q.3 0 .2.5c0 1-.9 1.7-1.3 1q-.1-.5.5-1.1zm-25.9 1.2c8.7 0 18.3.6 24 1.6l1.6.3v4.4c0 3.3-.2 4.4-.7 4.4l-5-1a126 126 0 0 0-35-1l-2.3.3-.6-3.7-.4-3.8s2.3-.5 5-.8c3.3-.5 8.2-.7 13.4-.7"/>
    <path id="zw-b" d="M124.8 217.8c-3 0-5.1 2.1-5.1 5.2 0 4.8 5.4 7.2 8.6 3.8s1-9-3.5-9m0 1.2a4 4 0 0 1 4 4c0 3-3.3 5-6 3.7-2.7-1.5-2.5-6.1.4-7.3z"/>
    <use xlink:href="#zw-b" width="100%" height="100%" x="-20.1" y="-.6"/>
    <path d="M88 145.3a1.7 1.8 0 0 0-1.6 1.7 1.7 1.8 0 1 0 3.5 0 1.7 1.8 0 0 0-1.9-1.7m.1.6a1.2 1.2 0 0 1 1.2 1.1 1.2 1.1 0 1 1-2.4 0 1.2 1.2 0 0 1 1.2-1.1"/>
  </g>
</svg>
